<svg xmlns="http://www.w3.org/2000/svg" xmlns:xlink="http://www.w3.org/1999/xlink" width="200" height="200" viewBox="0 0 200 200" fill="none">
<path d="M149.974 24.2632L165.548 24.2632C179.059 24.2632 190 35.1477 190 48.5988L190 154.662C190 168.104 179.055 179 165.548 179L45.4515 179C31.9405 179 21 168.115 21 154.664L21 48.6011C21 35.1589 31.9449 24.2632 45.4515 24.2632L61.0263 24.2632L61.0263 17.6316C61.0263 17.523 61.0291 17.4145 61.0343 17.306C61.0397 17.1977 61.0478 17.0895 61.0585 16.9815C61.0691 16.8734 61.0824 16.7657 61.0985 16.6584C61.1145 16.5511 61.1331 16.4442 61.1544 16.3378C61.1758 16.2313 61.1998 16.1254 61.2263 16.0201C61.2527 15.9148 61.2819 15.8103 61.3136 15.7066C61.3453 15.6027 61.3795 15.4996 61.4162 15.3974C61.4531 15.2953 61.4923 15.1941 61.534 15.0938C61.5759 14.9935 61.6201 14.8943 61.6668 14.7962C61.7135 14.6981 61.7625 14.6012 61.8139 14.5054C61.8654 14.4097 61.9192 14.3152 61.9753 14.2221C62.0314 14.1291 62.09 14.0375 62.1506 13.9471C62.2113 13.8569 62.274 13.7682 62.3391 13.681C62.4041 13.5938 62.4713 13.5083 62.5405 13.4245C62.6099 13.3406 62.6812 13.2585 62.7544 13.1781C62.8277 13.0977 62.903 13.019 62.9801 12.9422C63.0575 12.8655 63.1365 12.7907 63.2174 12.7178C63.2983 12.645 63.3808 12.5741 63.4652 12.5052C63.5497 12.4364 63.6356 12.3696 63.7233 12.305C63.8111 12.2403 63.9003 12.1779 63.991 12.1176C64.0819 12.0573 64.174 11.9992 64.2677 11.9433C64.3613 11.8875 64.4563 11.8341 64.5526 11.7829C64.6489 11.7318 64.7465 11.6831 64.8451 11.6366C64.9437 11.5902 65.0436 11.5463 65.1445 11.5048C65.2454 11.4632 65.3471 11.4241 65.4499 11.3875C65.5527 11.3511 65.6565 11.3171 65.7609 11.2856C65.8654 11.2541 65.9704 11.2251 66.0763 11.1987C66.1822 11.1724 66.2888 11.1486 66.3959 11.1274C66.5029 11.1062 66.6104 11.0876 66.7184 11.0717C66.8264 11.0558 66.9348 11.0426 67.0434 11.0319C67.152 11.0213 67.2609 11.0133 67.3699 11.0079C67.4789 11.0026 67.5882 11 67.6974 11C67.8064 11 67.9157 11.0026 68.0247 11.0079C68.1337 11.0133 68.2426 11.0213 68.3512 11.0319C68.4598 11.0426 68.5682 11.0558 68.6762 11.0717C68.7842 11.0876 68.8917 11.1062 68.9989 11.1274C69.1058 11.1486 69.2124 11.1724 69.3183 11.1987C69.4242 11.2251 69.5294 11.2541 69.6339 11.2856C69.7383 11.3171 69.8419 11.3511 69.9447 11.3875C70.0475 11.4241 70.1494 11.4632 70.2501 11.5048C70.351 11.5463 70.4509 11.5902 70.5495 11.6366C70.6483 11.6831 70.7459 11.7318 70.842 11.7829C70.9383 11.8341 71.0334 11.8875 71.127 11.9433C71.2206 11.9992 71.3129 12.0573 71.4036 12.1176C71.4943 12.1779 71.5835 12.2403 71.6713 12.305C71.759 12.3696 71.8449 12.4364 71.9294 12.5052C72.0138 12.5741 72.0963 12.645 72.1774 12.7178C72.2583 12.7907 72.3373 12.8655 72.4145 12.9422C72.4918 13.019 72.5671 13.0977 72.6402 13.1781C72.7136 13.2585 72.7849 13.3406 72.8541 13.4245C72.9233 13.5083 72.9905 13.5938 73.0555 13.681C73.1206 13.7682 73.1835 13.8569 73.2442 13.9471C73.3048 14.0375 73.3632 14.1291 73.4193 14.2221C73.4754 14.3152 73.5292 14.4097 73.5807 14.5054C73.6321 14.6012 73.6811 14.6981 73.7278 14.7962C73.7745 14.8943 73.8187 14.9935 73.8606 15.0938C73.9023 15.1941 73.9415 15.2953 73.9784 15.3974C74.0153 15.4996 74.0495 15.6027 74.0812 15.7066C74.1129 15.8103 74.1421 15.9148 74.1685 16.0201C74.195 16.1254 74.2188 16.2313 74.2403 16.3378C74.2615 16.4442 74.2801 16.5511 74.2961 16.6584C74.3122 16.7657 74.3257 16.8734 74.3364 16.9815C74.347 17.0895 74.3551 17.1977 74.3603 17.306C74.3658 17.4145 74.3685 17.523 74.3685 17.6316L74.3685 24.2632L136.632 24.2632L136.632 17.6316C136.632 17.523 136.634 17.4145 136.64 17.306C136.645 17.1977 136.653 17.0895 136.664 16.9815C136.674 16.8734 136.688 16.7657 136.704 16.6584C136.72 16.5511 136.738 16.4442 136.76 16.3378C136.781 16.2313 136.805 16.1254 136.831 16.0201C136.858 15.9148 136.887 15.8103 136.919 15.7066C136.951 15.6027 136.985 15.4996 137.022 15.3974C137.058 15.2953 137.097 15.1941 137.139 15.0938C137.181 14.9935 137.225 14.8943 137.272 14.7962C137.319 14.6981 137.368 14.6012 137.419 14.5054C137.471 14.4097 137.525 14.3152 137.581 14.2221C137.637 14.1291 137.695 14.0375 137.756 13.9471C137.816 13.8569 137.879 13.7682 137.944 13.681C138.01 13.5938 138.077 13.5083 138.146 13.4245C138.215 13.3406 138.286 13.2585 138.36 13.1781C138.433 13.0977 138.508 13.019 138.586 12.9422C138.663 12.8655 138.742 12.7907 138.823 12.7178C138.903 12.645 138.986 12.5741 139.071 12.5052C139.155 12.4364 139.241 12.3696 139.329 12.305C139.417 12.2403 139.506 12.1779 139.596 12.1176C139.687 12.0573 139.779 11.9992 139.873 11.9433C139.967 11.8875 140.062 11.8341 140.158 11.7829C140.254 11.7318 140.352 11.6831 140.45 11.6366C140.549 11.5902 140.649 11.5463 140.75 11.5048C140.851 11.4632 140.953 11.4241 141.055 11.3875C141.158 11.3511 141.262 11.3171 141.366 11.2856C141.471 11.2541 141.576 11.2251 141.682 11.1987C141.788 11.1724 141.894 11.1486 142.001 11.1274C142.108 11.1062 142.216 11.0876 142.324 11.0717C142.432 11.0558 142.54 11.0426 142.649 11.0319C142.757 11.0213 142.866 11.0133 142.975 11.0079C143.084 11.0026 143.194 11 143.303 11C143.412 11 143.521 11.0026 143.63 11.0079C143.739 11.0133 143.848 11.0213 143.957 11.0319C144.065 11.0426 144.174 11.0558 144.282 11.0717C144.39 11.0876 144.497 11.1062 144.604 11.1274C144.711 11.1486 144.818 11.1724 144.924 11.1987C145.03 11.2251 145.135 11.2541 145.239 11.2856C145.344 11.3171 145.447 11.3511 145.55 11.3875C145.653 11.4241 145.755 11.4632 145.856 11.5048C145.956 11.5463 146.056 11.5902 146.155 11.6366C146.253 11.6831 146.351 11.7318 146.447 11.7829C146.544 11.8341 146.639 11.8875 146.732 11.9433C146.826 11.9992 146.918 12.0573 147.009 12.1176C147.1 12.1779 147.189 12.2403 147.277 12.305C147.364 12.3696 147.45 12.4364 147.535 12.5052C147.619 12.5741 147.702 12.645 147.783 12.7178C147.864 12.7907 147.943 12.8655 148.02 12.9422C148.097 13.019 148.172 13.0977 148.246 13.1781C148.319 13.2585 148.39 13.3406 148.46 13.4245C148.529 13.5083 148.596 13.5938 148.661 13.681C148.726 13.7682 148.789 13.8569 148.849 13.9471C148.91 14.0375 148.969 14.1291 149.025 14.2221C149.081 14.3152 149.135 14.4097 149.186 14.5054C149.238 14.6012 149.287 14.6981 149.333 14.7962C149.38 14.8943 149.424 14.9935 149.466 15.0938C149.508 15.1941 149.547 15.2953 149.584 15.3974C149.62 15.4996 149.655 15.6027 149.686 15.7066C149.718 15.8103 149.747 15.9148 149.774 16.0201C149.8 16.1254 149.824 16.2313 149.845 16.3378C149.867 16.4442 149.885 16.5511 149.902 16.6584C149.918 16.7657 149.931 16.8734 149.942 16.9815C149.952 17.0895 149.96 17.1977 149.966 17.306C149.971 17.4145 149.974 17.523 149.974 17.6316L149.974 24.2632ZM149.974 37.5263L149.974 44.1579C149.974 44.2663 149.971 44.3749 149.966 44.4833C149.96 44.5917 149.952 44.6998 149.942 44.8078C149.931 44.9158 149.918 45.0236 149.902 45.1309C149.885 45.2382 149.867 45.3452 149.845 45.4517C149.824 45.558 149.8 45.6639 149.774 45.7692C149.747 45.8745 149.718 45.9791 149.686 46.0829C149.655 46.1868 149.62 46.2898 149.584 46.3919C149.547 46.4941 149.508 46.5954 149.466 46.6957C149.424 46.7958 149.38 46.8951 149.333 46.9931C149.287 47.0914 149.238 47.1884 149.186 47.2839C149.135 47.3796 149.081 47.4741 149.025 47.5672C148.969 47.6602 148.91 47.752 148.849 47.8422C148.789 47.9323 148.726 48.021 148.661 48.1083C148.596 48.1955 148.529 48.2809 148.46 48.3648C148.39 48.4488 148.319 48.531 148.246 48.6114C148.172 48.6919 148.097 48.7704 148.02 48.8471C147.943 48.924 147.864 48.9988 147.783 49.0715C147.702 49.1445 147.619 49.2153 147.535 49.2841C147.45 49.3529 147.364 49.4197 147.277 49.4843C147.189 49.549 147.1 49.6116 147.009 49.6719C146.918 49.7322 146.826 49.7902 146.732 49.846C146.639 49.9017 146.544 49.9552 146.447 50.0064C146.351 50.0575 146.253 50.1062 146.155 50.1527C146.056 50.1991 145.956 50.243 145.856 50.2847C145.755 50.3261 145.653 50.3651 145.55 50.4018C145.447 50.4384 145.344 50.4724 145.239 50.5039C145.135 50.5354 145.03 50.5644 144.924 50.5908C144.818 50.6171 144.711 50.6409 144.604 50.6621C144.497 50.6832 144.39 50.7016 144.282 50.7176C144.174 50.7336 144.065 50.747 143.957 50.7576C143.848 50.7682 143.739 50.7762 143.63 50.7814C143.521 50.7868 143.412 50.7895 143.303 50.7895C143.194 50.7895 143.084 50.7868 142.975 50.7814C142.866 50.7762 142.757 50.7682 142.649 50.7576C142.54 50.747 142.432 50.7336 142.324 50.7176C142.216 50.7016 142.108 50.6832 142.001 50.6621C141.894 50.6409 141.788 50.6171 141.682 50.5908C141.576 50.5644 141.471 50.5354 141.366 50.5039C141.262 50.4724 141.158 50.4384 141.055 50.4018C140.953 50.3651 140.851 50.3261 140.75 50.2847C140.649 50.243 140.549 50.1991 140.45 50.1527C140.352 50.1062 140.254 50.0575 140.158 50.0064C140.062 49.9552 139.967 49.9017 139.873 49.846C139.779 49.7902 139.687 49.7322 139.596 49.6719C139.506 49.6116 139.417 49.549 139.329 49.4843C139.241 49.4197 139.155 49.3529 139.071 49.2841C138.986 49.2153 138.903 49.1445 138.823 49.0715C138.742 48.9988 138.663 48.924 138.586 48.8471C138.508 48.7704 138.433 48.6919 138.36 48.6114C138.286 48.531 138.215 48.4488 138.146 48.3648C138.077 48.2809 138.01 48.1955 137.944 48.1083C137.879 48.021 137.816 47.9323 137.756 47.8422C137.695 47.752 137.637 47.6602 137.581 47.5672C137.525 47.4741 137.471 47.3796 137.419 47.2839C137.368 47.1884 137.319 47.0914 137.272 46.9931C137.225 46.8951 137.181 46.7958 137.139 46.6957C137.097 46.5954 137.058 46.4941 137.022 46.3919C136.985 46.2898 136.951 46.1868 136.919 46.0829C136.887 45.9791 136.858 45.8745 136.831 45.7692C136.805 45.6639 136.781 45.558 136.76 45.4517C136.738 45.3452 136.72 45.2382 136.704 45.1309C136.688 45.0236 136.674 44.9158 136.664 44.8078C136.653 44.6998 136.645 44.5917 136.64 44.4833C136.634 44.3749 136.632 44.2663 136.632 44.1579L136.632 37.5263L74.3685 37.5263L74.3685 44.1579C74.3685 44.2663 74.3658 44.3749 74.3603 44.4833C74.3551 44.5917 74.347 44.6998 74.3364 44.8078C74.3257 44.9158 74.3122 45.0236 74.2961 45.1309C74.2801 45.2382 74.2615 45.3452 74.2403 45.4517C74.2188 45.558 74.195 45.6639 74.1685 45.7692C74.1421 45.8745 74.1129 45.9791 74.0812 46.0829C74.0495 46.1868 74.0153 46.2898 73.9784 46.3919C73.9415 46.4941 73.9023 46.5954 73.8606 46.6957C73.8187 46.7958 73.7745 46.8951 73.7278 46.9931C73.6811 47.0914 73.6321 47.1884 73.5807 47.2839C73.5292 47.3796 73.4754 47.4741 73.4193 47.5672C73.3632 47.6602 73.3048 47.752 73.2442 47.8422C73.1835 47.9323 73.1206 48.021 73.0555 48.1083C72.9905 48.1955 72.9233 48.2809 72.8541 48.3648C72.7849 48.4488 72.7136 48.531 72.6402 48.6114C72.5671 48.6919 72.4918 48.7704 72.4145 48.8471C72.3373 48.924 72.2583 48.9988 72.1772 49.0715C72.0963 49.1445 72.0138 49.2153 71.9294 49.2841C71.8449 49.3529 71.759 49.4197 71.6713 49.4843C71.5835 49.549 71.4943 49.6116 71.4036 49.6719C71.3129 49.7322 71.2206 49.7902 71.127 49.846C71.0334 49.9017 70.9383 49.9552 70.842 50.0064C70.7459 50.0575 70.6483 50.1062 70.5495 50.1527C70.4509 50.1991 70.351 50.243 70.2501 50.2847C70.1494 50.3261 70.0475 50.3651 69.9447 50.4018C69.8419 50.4384 69.7383 50.4724 69.6339 50.5039C69.5294 50.5354 69.4242 50.5644 69.3183 50.5908C69.2124 50.6171 69.1058 50.6409 68.9989 50.6621C68.8917 50.6832 68.7842 50.7016 68.6762 50.7176C68.5682 50.7336 68.4598 50.747 68.3512 50.7576C68.2426 50.7682 68.1337 50.7762 68.0247 50.7814C67.9157 50.7868 67.8064 50.7895 67.6974 50.7895C67.5882 50.7895 67.4789 50.7868 67.3699 50.7814C67.2609 50.7762 67.152 50.7682 67.0434 50.7576C66.9348 50.747 66.8264 50.7336 66.7184 50.7176C66.6104 50.7016 66.5029 50.6832 66.3959 50.6621C66.2888 50.6409 66.1822 50.6171 66.0763 50.5908C65.9704 50.5644 65.8654 50.5354 65.7609 50.5039C65.6565 50.4724 65.5527 50.4384 65.4499 50.4018C65.3471 50.3651 65.2454 50.3261 65.1445 50.2847C65.0436 50.243 64.9437 50.1991 64.8451 50.1527C64.7465 50.1062 64.6489 50.0575 64.5526 50.0064C64.4563 49.9552 64.3613 49.9017 64.2677 49.846C64.174 49.7902 64.0819 49.7322 63.991 49.6719C63.9003 49.6116 63.8111 49.549 63.7233 49.4843C63.6356 49.4197 63.5497 49.3529 63.4652 49.2841C63.3808 49.2153 63.2983 49.1445 63.2174 49.0715C63.1365 48.9988 63.0575 48.924 62.9801 48.8471C62.903 48.7704 62.8277 48.6919 62.7544 48.6114C62.6812 48.531 62.6099 48.4488 62.5405 48.3648C62.4713 48.2809 62.4041 48.1955 62.3391 48.1083C62.274 48.021 62.2113 47.9323 62.1506 47.8422C62.09 47.752 62.0314 47.6602 61.9753 47.5672C61.9192 47.4741 61.8654 47.3796 61.8139 47.2839C61.7625 47.1884 61.7135 47.0914 61.6668 46.9931C61.6201 46.8951 61.5759 46.7958 61.534 46.6957C61.4923 46.5954 61.4531 46.4941 61.4162 46.3919C61.3795 46.2898 61.3453 46.1868 61.3136 46.0829C61.2819 45.9791 61.2527 45.8745 61.2263 45.7692C61.1998 45.6639 61.1758 45.558 61.1544 45.4517C61.1331 45.3452 61.1145 45.2382 61.0985 45.1309C61.0824 45.0236 61.0691 44.9158 61.0585 44.8078C61.0478 44.6998 61.0397 44.5917 61.0343 44.4833C61.0291 44.3749 61.0263 44.2663 61.0263 44.1579L61.0263 37.5263L45.4515 37.5263C45.2695 37.5265 45.0875 37.5311 44.9057 37.5402C44.724 37.5493 44.5424 37.5628 44.3612 37.5808C44.18 37.5989 43.9995 37.6213 43.8194 37.648C43.6395 37.6747 43.4602 37.706 43.2815 37.7414C43.1031 37.7769 42.9255 37.8169 42.7489 37.861C42.5723 37.9052 42.397 37.9535 42.2229 38.0063C42.0489 38.0591 41.876 38.1161 41.7047 38.1773C41.5333 38.2384 41.3636 38.3039 41.1956 38.3733C41.0274 38.4427 40.8611 38.5161 40.6967 38.5938C40.5322 38.6715 40.3697 38.753 40.2093 38.8384C40.0488 38.9239 39.8905 39.0133 39.7344 39.1065C39.5785 39.1998 39.4248 39.2968 39.2735 39.3975C39.1223 39.4984 38.9736 39.6026 38.8276 39.7106C38.6815 39.8186 38.5381 39.9301 38.3975 40.0451C38.257 40.1601 38.1193 40.2787 37.9845 40.4003C37.8498 40.5219 37.7182 40.6467 37.5897 40.775C37.4611 40.9031 37.3358 41.0342 37.2136 41.1685C37.0916 41.3028 36.9729 41.44 36.8575 41.5801C36.7423 41.72 36.6306 41.8628 36.5223 42.0085C36.414 42.1539 36.3094 42.3019 36.2083 42.4526C36.1074 42.6032 36.0103 42.7562 35.9169 42.9114C35.8235 43.0668 35.734 43.2243 35.6484 43.3841C35.5628 43.5439 35.4812 43.7055 35.4036 43.8692C35.326 44.033 35.2524 44.1985 35.1829 44.3658C35.1135 44.533 35.0483 44.7019 34.9871 44.8725C34.9261 45.043 34.8693 45.2148 34.8166 45.3881C34.7639 45.5613 34.7156 45.7358 34.6717 45.9114C34.6277 46.0869 34.5881 46.2635 34.5529 46.4411C34.5176 46.6187 34.4866 46.7969 34.4601 46.9759C34.4337 47.155 34.4117 47.3347 34.394 47.5147C34.3765 47.6948 34.3634 47.8753 34.3546 48.0563C34.346 48.237 34.3418 48.4179 34.3421 48.5988L34.3421 154.662C34.3416 154.843 34.3455 155.024 34.354 155.205C34.3625 155.386 34.3755 155.566 34.393 155.747C34.4103 155.927 34.4322 156.107 34.4584 156.286C34.4847 156.465 34.5154 156.643 34.5506 156.821C34.5858 156.998 34.6252 157.175 34.669 157.351C34.7129 157.527 34.7611 157.701 34.8135 157.875C34.866 158.048 34.9228 158.22 34.9838 158.391C35.0448 158.561 35.11 158.73 35.1793 158.898C35.2487 159.065 35.3221 159.231 35.3997 159.394C35.4772 159.558 35.5588 159.72 35.6444 159.88C35.7299 160.04 35.8193 160.197 35.9127 160.353C36.0061 160.508 36.1033 160.661 36.2042 160.812C36.3051 160.963 36.4097 161.111 36.5179 161.257C36.6262 161.402 36.738 161.545 36.8534 161.685C36.9687 161.825 37.0874 161.963 37.2094 162.097C37.3316 162.231 37.4569 162.362 37.5855 162.491C37.7142 162.619 37.8459 162.744 37.9808 162.866C38.1154 162.987 38.2531 163.106 38.3937 163.221C38.5344 163.336 38.6778 163.447 38.824 163.555C38.9702 163.663 39.119 163.768 39.2704 163.869C39.4216 163.969 39.5753 164.066 39.7315 164.16C39.8876 164.253 40.0459 164.342 40.2064 164.428C40.3669 164.513 40.5295 164.595 40.6942 164.672C40.8588 164.75 41.0251 164.823 41.1933 164.893C41.3615 164.962 41.5313 165.027 41.7028 165.089C41.8742 165.15 42.047 165.207 42.2213 165.259C42.3955 165.312 42.5711 165.36 42.7477 165.404C42.9242 165.449 43.1018 165.488 43.2805 165.524C43.4592 165.559 43.6384 165.59 43.8188 165.617C43.9989 165.643 44.1796 165.666 44.3608 165.683C44.542 165.701 44.7235 165.714 44.9055 165.723C45.0875 165.732 45.2695 165.737 45.4515 165.737L165.548 165.737C165.73 165.737 165.912 165.732 166.094 165.723C166.276 165.714 166.458 165.7 166.639 165.682C166.82 165.664 167 165.642 167.181 165.615C167.361 165.588 167.54 165.557 167.718 165.522C167.897 165.486 168.075 165.446 168.251 165.402C168.428 165.358 168.603 165.31 168.777 165.257C168.951 165.204 169.124 165.147 169.295 165.086C169.467 165.025 169.636 164.959 169.804 164.89C169.973 164.82 170.139 164.747 170.303 164.669C170.468 164.592 170.63 164.51 170.791 164.425C170.951 164.339 171.109 164.25 171.266 164.157C171.422 164.063 171.575 163.966 171.726 163.866C171.878 163.765 172.026 163.661 172.172 163.553C172.319 163.445 172.462 163.333 172.603 163.218C172.743 163.103 172.881 162.985 173.015 162.863C173.15 162.741 173.282 162.616 173.41 162.488C173.539 162.36 173.664 162.229 173.786 162.095C173.908 161.96 174.027 161.823 174.142 161.683C174.258 161.543 174.37 161.4 174.478 161.255C174.586 161.109 174.691 160.961 174.792 160.811C174.893 160.66 174.99 160.507 175.083 160.352C175.176 160.196 175.266 160.039 175.352 159.879C175.437 159.719 175.519 159.558 175.596 159.394C175.674 159.23 175.747 159.065 175.817 158.897C175.886 158.73 175.952 158.561 176.013 158.391C176.074 158.22 176.131 158.048 176.183 157.875C176.236 157.702 176.284 157.527 176.328 157.352C176.372 157.176 176.412 157 176.447 156.822C176.482 156.645 176.513 156.466 176.54 156.287C176.566 156.108 176.588 155.929 176.606 155.748C176.623 155.568 176.637 155.388 176.645 155.207C176.654 155.026 176.658 154.845 176.658 154.664L176.658 48.6011C176.659 48.42 176.655 48.239 176.646 48.0581C176.637 47.8772 176.625 47.6967 176.607 47.5166C176.59 47.3363 176.568 47.1566 176.542 46.9774C176.515 46.7983 176.485 46.6199 176.449 46.4423C176.414 46.2647 176.375 46.0879 176.331 45.9122C176.287 45.7364 176.239 45.562 176.187 45.3885C176.134 45.215 176.077 45.0432 176.016 44.8727C175.955 44.7021 175.89 44.533 175.821 44.3656C175.751 44.1981 175.678 44.0325 175.6 43.8688C175.523 43.7049 175.441 43.543 175.356 43.3833C175.27 43.2235 175.181 43.0658 175.087 42.9104C174.994 42.7549 174.897 42.6018 174.796 42.4511C174.695 42.3005 174.59 42.1523 174.482 42.0066C174.374 41.8609 174.262 41.7181 174.147 41.578C174.031 41.4379 173.913 41.3007 173.791 41.1662C173.668 41.032 173.543 40.9008 173.415 40.7725C173.286 40.6442 173.154 40.5193 173.019 40.3976C172.885 40.2757 172.747 40.1574 172.606 40.0424C172.466 39.9274 172.322 39.8157 172.176 39.7077C172.03 39.5997 171.881 39.4953 171.73 39.3946C171.578 39.2939 171.425 39.1969 171.269 39.1036C171.112 39.0104 170.954 38.921 170.794 38.8355C170.633 38.7499 170.47 38.6684 170.306 38.5909C170.141 38.5134 169.975 38.4398 169.807 38.3704C169.638 38.301 169.469 38.2357 169.297 38.1746C169.126 38.1134 168.953 38.0567 168.779 38.004C168.604 37.9514 168.429 37.9029 168.252 37.8587C168.076 37.8146 167.898 37.775 167.719 37.7396C167.541 37.7041 167.362 37.6733 167.181 37.6465C167.001 37.6198 166.82 37.5976 166.639 37.5798C166.458 37.562 166.276 37.5487 166.094 37.5398C165.912 37.5309 165.73 37.5263 165.548 37.5263L149.974 37.5263ZM147.75 83.9474C147.859 83.9474 147.968 83.9501 148.077 83.9553C148.186 83.9607 148.295 83.9688 148.404 83.9793C148.512 83.9899 148.621 84.0032 148.729 84.0191C148.837 84.0351 148.944 84.0535 149.051 84.0749C149.159 84.096 149.265 84.1199 149.371 84.1462C149.477 84.1725 149.582 84.2015 149.687 84.233C149.791 84.2645 149.895 84.2985 149.997 84.335C150.1 84.3716 150.202 84.4106 150.303 84.4523C150.404 84.4937 150.504 84.5376 150.602 84.5841C150.701 84.6305 150.798 84.6792 150.895 84.7304C150.991 84.7816 151.086 84.835 151.18 84.8908C151.273 84.9465 151.366 85.0048 151.456 85.0651C151.547 85.1254 151.636 85.1877 151.724 85.2524C151.812 85.3171 151.898 85.3838 151.982 85.4526C152.066 85.5216 152.149 85.5925 152.23 85.6652C152.311 85.7382 152.39 85.813 152.467 85.8897C152.544 85.9665 152.62 86.0451 152.693 86.1255C152.766 86.2059 152.838 86.288 152.907 86.3719C152.976 86.4558 153.043 86.5412 153.108 86.6285C153.173 86.7157 153.236 86.8044 153.297 86.8945C153.358 86.9849 153.416 87.0765 153.472 87.1695C153.528 87.2626 153.582 87.3571 153.633 87.4528C153.685 87.5486 153.734 87.6456 153.781 87.7436C153.827 87.8416 153.871 87.9409 153.913 88.0412C153.955 88.1415 153.994 88.2426 154.031 88.3448C154.068 88.447 154.102 88.5502 154.134 88.654C154.166 88.7578 154.195 88.8623 154.221 88.9675C154.248 89.0728 154.271 89.1787 154.293 89.2852C154.314 89.3915 154.333 89.4985 154.349 89.6058C154.365 89.7132 154.378 89.8209 154.389 89.9289C154.4 90.0369 154.408 90.1453 154.413 90.2537C154.418 90.362 154.421 90.4704 154.421 90.579C154.421 90.6874 154.418 90.796 154.413 90.9044C154.408 91.0128 154.4 91.1209 154.389 91.2289C154.378 91.3369 154.365 91.4446 154.349 91.552C154.333 91.6593 154.314 91.7663 154.293 91.8728C154.271 91.9791 154.248 92.085 154.221 92.1903C154.195 92.2956 154.166 92.4002 154.134 92.504C154.102 92.6079 154.068 92.7109 154.031 92.813C153.994 92.9152 153.955 93.0165 153.913 93.1168C153.871 93.2169 153.827 93.3162 153.781 93.4142C153.734 93.5125 153.685 93.6094 153.633 93.705C153.582 93.8007 153.528 93.8952 153.472 93.9883C153.416 94.0813 153.358 94.1731 153.297 94.2633C153.236 94.3534 153.173 94.4421 153.108 94.5294C153.043 94.6166 152.976 94.702 152.907 94.7859C152.838 94.8699 152.766 94.9521 152.693 95.0325C152.62 95.1129 152.544 95.1915 152.467 95.2682C152.39 95.345 152.311 95.4199 152.23 95.4926C152.149 95.5656 152.066 95.6364 151.982 95.7052C151.898 95.774 151.812 95.8408 151.724 95.9054C151.636 95.9701 151.547 96.0327 151.456 96.093C151.366 96.1533 151.273 96.2113 151.18 96.267C151.086 96.3228 150.991 96.3763 150.895 96.4275C150.798 96.4786 150.701 96.5273 150.602 96.5738C150.504 96.6202 150.404 96.6641 150.303 96.7058C150.202 96.7472 150.1 96.7862 149.997 96.8229C149.895 96.8595 149.791 96.8935 149.687 96.925C149.582 96.9565 149.477 96.9855 149.371 97.0119C149.265 97.0382 149.159 97.062 149.051 97.0831C148.944 97.1043 148.837 97.1227 148.729 97.1387C148.621 97.1546 148.512 97.1681 148.404 97.1787C148.295 97.1893 148.186 97.1973 148.077 97.2025C147.968 97.2079 147.859 97.2106 147.75 97.2106L63.2499 97.2106C63.1409 97.2106 63.0316 97.2079 62.9226 97.2025C62.8136 97.1973 62.7047 97.1893 62.5961 97.1787C62.4875 97.1681 62.3791 97.1546 62.2711 97.1387C62.1631 97.1227 62.0556 97.1043 61.9484 97.0831C61.8415 97.062 61.7349 97.0382 61.629 97.0119C61.5231 96.9855 61.4179 96.9565 61.3134 96.925C61.209 96.8935 61.1054 96.8595 61.0026 96.8229C60.8998 96.7862 60.7979 96.7472 60.697 96.7058C60.5963 96.6641 60.4964 96.6202 60.3978 96.5738C60.299 96.5273 60.2014 96.4786 60.1053 96.4275C60.009 96.3763 59.9139 96.3228 59.8203 96.267C59.7267 96.2113 59.6344 96.1533 59.5437 96.093C59.453 96.0327 59.3638 95.9701 59.276 95.9054C59.1883 95.8408 59.1024 95.774 59.0179 95.7052C58.9335 95.6364 58.851 95.5656 58.7699 95.4926C58.689 95.4199 58.61 95.345 58.5328 95.2682C58.4555 95.1915 58.3802 95.1129 58.3071 95.0325C58.2337 94.9519 58.1624 94.8699 58.0932 94.7859C58.024 94.702 57.9568 94.6166 57.8918 94.5294C57.8267 94.4421 57.7638 94.3534 57.7031 94.2633C57.6425 94.1731 57.5841 94.0813 57.528 93.9883C57.4719 93.8952 57.4181 93.8007 57.3666 93.705C57.3152 93.6094 57.2662 93.5125 57.2195 93.4142C57.1728 93.3162 57.1286 93.2169 57.0867 93.1168C57.045 93.0165 57.0058 92.9152 56.9689 92.813C56.932 92.7109 56.8978 92.6079 56.8661 92.504C56.8344 92.4002 56.8052 92.2956 56.7788 92.1903C56.7523 92.085 56.7283 91.9791 56.707 91.8728C56.6858 91.7663 56.6672 91.6593 56.6512 91.552C56.6351 91.4446 56.6216 91.3369 56.6109 91.2289C56.6003 91.1209 56.5922 91.0128 56.587 90.9044C56.5815 90.796 56.5788 90.6874 56.5788 90.579C56.5788 90.4704 56.5815 90.362 56.587 90.2537C56.5922 90.1453 56.6003 90.0369 56.6109 89.9289C56.6216 89.8209 56.6351 89.7132 56.6512 89.6058C56.6672 89.4985 56.6858 89.3915 56.707 89.2852C56.7283 89.1787 56.7523 89.0728 56.7788 88.9675C56.8052 88.8623 56.8344 88.7578 56.8661 88.654C56.8978 88.5502 56.932 88.447 56.9689 88.3448C57.0058 88.2426 57.045 88.1415 57.0867 88.0412C57.1286 87.9409 57.1728 87.8416 57.2195 87.7436C57.2662 87.6456 57.3152 87.5486 57.3666 87.4528C57.4181 87.3571 57.4719 87.2626 57.528 87.1695C57.5841 87.0765 57.6425 86.9849 57.7031 86.8945C57.7638 86.8044 57.8267 86.7157 57.8918 86.6285C57.9568 86.5412 58.024 86.4558 58.0932 86.3719C58.1624 86.288 58.2337 86.2059 58.3071 86.1255C58.3802 86.0451 58.4555 85.9665 58.5328 85.8897C58.61 85.813 58.689 85.7382 58.7699 85.6652C58.8507 85.5925 58.9335 85.5216 59.0179 85.4526C59.1024 85.3838 59.1883 85.3171 59.276 85.2524C59.3638 85.1877 59.453 85.1254 59.5437 85.0651C59.6344 85.0048 59.7267 84.9465 59.8203 84.8908C59.9139 84.835 60.009 84.7816 60.1053 84.7304C60.2014 84.6792 60.299 84.6305 60.3978 84.5841C60.4964 84.5376 60.5963 84.4937 60.697 84.4523C60.7979 84.4106 60.8998 84.3716 61.0026 84.335C61.1054 84.2985 61.209 84.2645 61.3134 84.233C61.4179 84.2015 61.5231 84.1725 61.629 84.1462C61.7349 84.1199 61.8415 84.096 61.9484 84.0749C62.0556 84.0535 62.1631 84.0351 62.2711 84.0191C62.3791 84.0032 62.4875 83.9899 62.5961 83.9793C62.7047 83.9688 62.8136 83.9607 62.9226 83.9553C63.0316 83.9501 63.1409 83.9474 63.2499 83.9474L147.75 83.9474ZM121.066 117.105C121.175 117.105 121.284 117.108 121.393 117.113C121.502 117.119 121.611 117.127 121.72 117.137C121.828 117.148 121.937 117.161 122.045 117.177C122.153 117.193 122.26 117.211 122.367 117.233C122.474 117.254 122.581 117.278 122.687 117.304C122.793 117.33 122.898 117.359 123.002 117.391C123.107 117.422 123.21 117.456 123.313 117.493C123.416 117.53 123.518 117.569 123.619 117.61C123.719 117.652 123.819 117.696 123.918 117.742C124.017 117.788 124.114 117.837 124.21 117.888C124.307 117.939 124.402 117.993 124.495 118.049C124.589 118.104 124.681 118.163 124.772 118.223C124.863 118.283 124.952 118.346 125.04 118.41C125.128 118.475 125.213 118.542 125.298 118.611C125.382 118.68 125.465 118.75 125.546 118.823C125.627 118.896 125.706 118.971 125.783 119.048C125.86 119.124 125.936 119.203 126.009 119.283C126.082 119.364 126.153 119.446 126.223 119.53C126.292 119.614 126.359 119.699 126.424 119.786C126.489 119.874 126.552 119.962 126.613 120.052C126.673 120.143 126.732 120.234 126.788 120.327C126.844 120.421 126.898 120.515 126.949 120.611C127.001 120.707 127.05 120.803 127.096 120.902C127.143 121 127.187 121.099 127.229 121.199C127.271 121.299 127.31 121.401 127.347 121.503C127.384 121.605 127.418 121.708 127.45 121.812C127.481 121.916 127.511 122.02 127.537 122.125C127.563 122.231 127.587 122.337 127.609 122.443C127.63 122.549 127.649 122.656 127.665 122.764C127.681 122.871 127.694 122.979 127.705 123.087C127.715 123.195 127.724 123.303 127.729 123.412C127.734 123.52 127.737 123.628 127.737 123.737C127.737 123.845 127.734 123.954 127.729 124.062C127.724 124.171 127.715 124.279 127.705 124.387C127.694 124.495 127.681 124.603 127.665 124.71C127.649 124.817 127.63 124.924 127.609 125.031C127.587 125.137 127.563 125.243 127.537 125.348C127.511 125.453 127.481 125.558 127.45 125.662C127.418 125.766 127.384 125.869 127.347 125.971C127.31 126.073 127.271 126.174 127.229 126.275C127.187 126.375 127.143 126.474 127.096 126.572C127.05 126.67 127.001 126.767 126.949 126.863C126.898 126.959 126.844 127.053 126.788 127.146C126.732 127.239 126.673 127.331 126.613 127.421C126.552 127.511 126.489 127.6 126.424 127.687C126.359 127.775 126.292 127.86 126.223 127.944C126.153 128.028 126.082 128.11 126.009 128.19C125.936 128.271 125.86 128.349 125.783 128.426C125.706 128.503 125.627 128.578 125.546 128.651C125.465 128.723 125.382 128.794 125.298 128.863C125.213 128.932 125.128 128.999 125.04 129.063C124.952 129.128 124.863 129.191 124.772 129.251C124.681 129.311 124.589 129.369 124.495 129.425C124.402 129.481 124.307 129.534 124.21 129.585C124.114 129.637 124.017 129.685 123.918 129.732C123.819 129.778 123.719 129.822 123.619 129.864C123.518 129.905 123.416 129.944 123.313 129.981C123.21 130.017 123.107 130.051 123.002 130.083C122.898 130.114 122.793 130.143 122.687 130.17C122.581 130.196 122.474 130.22 122.367 130.241C122.26 130.262 122.153 130.281 122.045 130.297C121.937 130.313 121.828 130.326 121.72 130.337C121.611 130.347 121.502 130.355 121.393 130.36C121.284 130.366 121.175 130.369 121.066 130.369L63.2499 130.369C63.1409 130.369 63.0316 130.366 62.9226 130.36C62.8136 130.355 62.7047 130.347 62.5961 130.337C62.4875 130.326 62.3791 130.313 62.2711 130.297C62.1631 130.281 62.0556 130.262 61.9484 130.241C61.8415 130.22 61.7349 130.196 61.629 130.17C61.5231 130.143 61.4179 130.114 61.3134 130.083C61.209 130.051 61.1054 130.017 61.0026 129.981C60.8998 129.944 60.7979 129.905 60.697 129.864C60.5963 129.822 60.4964 129.778 60.3978 129.732C60.299 129.685 60.2014 129.637 60.1053 129.585C60.009 129.534 59.9139 129.481 59.8203 129.425C59.7267 129.369 59.6344 129.311 59.5437 129.251C59.453 129.191 59.3638 129.128 59.276 129.063C59.1883 128.999 59.1024 128.932 59.0179 128.863C58.9335 128.794 58.851 128.723 58.7699 128.651C58.689 128.578 58.61 128.503 58.5328 128.426C58.4555 128.349 58.3802 128.271 58.3071 128.19C58.2337 128.11 58.1624 128.028 58.0932 127.944C58.024 127.86 57.9568 127.775 57.8918 127.687C57.8267 127.6 57.7638 127.511 57.7031 127.421C57.6425 127.331 57.5841 127.239 57.528 127.146C57.4719 127.053 57.4181 126.959 57.3666 126.863C57.3152 126.767 57.2662 126.67 57.2195 126.572C57.1728 126.474 57.1286 126.375 57.0867 126.275C57.045 126.174 57.0058 126.073 56.9689 125.971C56.932 125.869 56.8978 125.766 56.8661 125.662C56.8344 125.558 56.8052 125.453 56.7788 125.348C56.7523 125.243 56.7283 125.137 56.707 125.031C56.6858 124.924 56.6672 124.817 56.6512 124.71C56.6351 124.603 56.6216 124.495 56.6109 124.387C56.6003 124.279 56.5922 124.171 56.587 124.062C56.5815 123.954 56.5788 123.845 56.5788 123.737C56.5788 123.628 56.5815 123.52 56.587 123.412C56.5922 123.303 56.6003 123.195 56.6109 123.087C56.6216 122.979 56.6351 122.871 56.6512 122.764C56.6672 122.656 56.6858 122.549 56.707 122.443C56.7283 122.337 56.7523 122.231 56.7788 122.125C56.8052 122.02 56.8344 121.916 56.8661 121.812C56.8978 121.708 56.932 121.605 56.9689 121.503C57.0058 121.401 57.045 121.299 57.0867 121.199C57.1286 121.099 57.1728 121 57.2195 120.902C57.2662 120.803 57.3152 120.707 57.3666 120.611C57.4181 120.515 57.4719 120.421 57.528 120.327C57.5841 120.234 57.6425 120.143 57.7031 120.052C57.7638 119.962 57.8267 119.874 57.8918 119.786C57.9568 119.699 58.024 119.614 58.0932 119.53C58.1624 119.446 58.2337 119.364 58.3071 119.283C58.3802 119.203 58.4555 119.124 58.5328 119.048C58.61 118.971 58.689 118.896 58.7699 118.823C58.8507 118.75 58.9335 118.68 59.0179 118.611C59.1024 118.542 59.1883 118.475 59.276 118.41C59.3638 118.346 59.453 118.283 59.5437 118.223C59.6344 118.163 59.7267 118.104 59.8203 118.049C59.9139 117.993 60.009 117.939 60.1053 117.888C60.2014 117.837 60.299 117.788 60.3978 117.742C60.4964 117.696 60.5963 117.652 60.697 117.61C60.7979 117.569 60.8998 117.53 61.0026 117.493C61.1054 117.456 61.209 117.422 61.3134 117.391C61.4179 117.359 61.5231 117.33 61.629 117.304C61.7349 117.278 61.8415 117.254 61.9484 117.233C62.0556 117.211 62.1631 117.193 62.2711 117.177C62.3791 117.161 62.4875 117.148 62.5961 117.137C62.7047 117.127 62.8136 117.119 62.9226 117.113C63.0316 117.108 63.1409 117.105 63.2499 117.105L121.066 117.105Z" stroke="rgba(84, 84, 84, 1)" stroke-width="4"      fill="#545454" >
</path>
</svg>
