<svg xmlns="http://www.w3.org/2000/svg" xmlns:xlink="http://www.w3.org/1999/xlink" width="200" height="200" viewBox="0 0 200 200" fill="none">
<path d="M72.0343 13.1269C82.0593 9.92687 89.4618 19.7844 86.8243 28.0469C86.5895 28.7826 86.3639 29.5236 86.1543 30.2669C85.9449 31.0101 85.7483 31.7568 85.5643 32.5069C85.3805 33.2569 85.2125 34.011 85.0543 34.7669C84.8961 35.5227 84.7567 36.2859 84.6243 37.0469C84.4921 37.8076 84.3705 38.562 84.2643 39.3269C84.1581 40.0917 84.0644 40.8587 83.9843 41.6269C83.9044 42.3948 83.838 43.1664 83.7843 43.9369C83.7308 44.7072 83.6916 45.475 83.6643 46.2469C83.637 47.0185 83.6143 47.7946 83.6143 48.5669C83.6143 49.3389 83.6289 50.115 83.6543 50.8869C83.6801 51.6585 83.7225 52.4264 83.7743 53.1969C83.8262 53.9674 83.8862 54.7385 83.9643 55.5069C84.0426 56.275 84.14 57.0416 84.2443 57.8069C84.3488 58.5719 84.4638 59.3355 84.5943 60.0969C84.725 60.8578 84.8679 61.6106 85.0243 62.3669C85.1807 63.1229 85.3521 63.8765 85.5343 64.6269C85.7167 65.3773 85.9067 66.1231 86.1143 66.8669C86.3221 67.6104 86.5413 68.3505 86.7743 69.0869C87.0075 69.823 87.2563 70.5589 87.5143 71.2869C87.7725 72.0146 88.0415 72.7381 88.3243 73.4569C88.6071 74.1752 88.9071 74.8883 89.2143 75.5969C89.5217 76.3053 89.843 77.0092 90.1743 77.7069C90.5057 78.4045 90.8394 79.0911 91.1943 79.7769C91.5494 80.4626 91.9162 81.1434 92.2943 81.8169C92.6724 82.4901 93.0633 83.1569 93.4643 83.8169C93.8655 84.4766 94.2811 85.1308 94.7043 85.7769C95.1277 86.4226 95.5592 87.0658 96.0043 87.6969C96.4496 88.3277 96.9079 88.9514 97.3743 89.5669C97.8407 90.1821 98.3172 90.7877 98.8043 91.3869C99.2916 91.9859 99.7869 92.5746 100.294 93.1569C100.802 93.7389 101.317 94.3124 101.844 94.8769C102.371 95.4411 102.908 95.9908 103.454 96.5369C104 97.083 104.56 97.6199 105.124 98.1469C105.689 98.6738 106.262 99.1994 106.844 99.7069C107.427 100.214 108.015 100.709 108.614 101.197C109.214 101.684 109.819 102.16 110.434 102.627C111.05 103.093 111.673 103.552 112.304 103.997C112.935 104.442 113.578 104.873 114.224 105.297C114.87 105.72 115.525 106.136 116.184 106.537C116.844 106.938 117.511 107.319 118.184 107.697C118.858 108.075 119.539 108.442 120.224 108.797C120.91 109.152 121.597 109.496 122.294 109.827C122.992 110.158 123.696 110.479 124.404 110.787C125.113 111.094 125.826 111.394 126.544 111.677C127.263 111.96 127.987 112.229 128.714 112.487C129.442 112.745 130.178 112.984 130.914 113.217C131.651 113.45 132.391 113.679 133.134 113.887C133.878 114.094 134.624 114.284 135.374 114.467C136.125 114.649 136.878 114.82 137.634 114.977C138.391 115.133 139.143 115.276 139.904 115.407C140.666 115.537 141.429 115.652 142.194 115.757C142.96 115.861 143.726 115.959 144.494 116.037C145.263 116.115 146.034 116.175 146.804 116.227C147.575 116.279 148.343 116.321 149.114 116.347C149.886 116.372 150.662 116.377 151.434 116.377C152.207 116.377 152.973 116.364 153.744 116.337C154.516 116.31 155.294 116.27 156.064 116.217C156.835 116.163 157.606 116.097 158.374 116.017C159.142 115.937 159.909 115.843 160.674 115.737C161.439 115.631 162.194 115.509 162.954 115.377C163.715 115.244 164.478 115.105 165.234 114.947C165.99 114.789 166.744 114.611 167.494 114.427C168.244 114.243 168.991 114.046 169.734 113.837C170.478 113.627 171.219 113.412 171.954 113.177C180.217 110.552 190.072 117.942 186.884 127.967C186.292 129.825 185.644 131.66 184.934 133.477C184.225 135.293 183.459 137.08 182.634 138.847C181.81 140.614 180.93 142.356 179.994 144.067C179.059 145.778 178.068 147.459 177.024 149.107C175.981 150.754 174.881 152.369 173.734 153.947C172.588 155.524 171.399 157.056 170.154 158.557C168.909 160.058 167.613 161.519 166.274 162.937C164.936 164.355 163.551 165.727 162.124 167.057C160.698 168.387 159.233 169.671 157.724 170.907C156.216 172.143 154.669 173.33 153.084 174.467C151.5 175.604 149.878 176.694 148.224 177.727C146.57 178.76 144.891 179.731 143.174 180.657C141.458 181.582 139.717 182.453 137.944 183.267C136.172 184.081 134.375 184.838 132.554 185.537C130.734 186.236 128.886 186.876 127.024 187.457C125.163 188.038 123.289 188.556 121.394 189.017C119.499 189.477 117.585 189.878 115.664 190.217C113.744 190.555 111.823 190.832 109.884 191.047C107.946 191.262 106.002 191.416 104.054 191.507C102.106 191.597 100.154 191.621 98.2043 191.587C96.2545 191.553 94.308 191.465 92.3643 191.307C90.4205 191.148 88.4838 190.919 86.5543 190.637C84.6248 190.354 82.7019 190.012 80.7943 189.607C78.8869 189.201 77.002 188.733 75.1243 188.207C73.2466 187.68 71.3845 187.093 69.5443 186.447C67.7043 185.801 65.8896 185.099 64.0943 184.337C62.2994 183.575 60.5271 182.762 58.7843 181.887C57.0417 181.011 55.3275 180.082 53.6443 179.097C51.9611 178.112 50.3111 177.067 48.6943 175.977C47.0777 174.886 45.498 173.748 43.9543 172.557C42.4105 171.365 40.9087 170.125 39.4443 168.837C37.9798 167.549 36.5534 166.216 35.1743 164.837C33.7954 163.458 32.4624 162.041 31.1743 160.577C29.8864 159.113 28.646 157.61 27.4543 156.067C26.2625 154.523 25.1249 152.933 24.0343 151.317C22.9437 149.7 21.9093 148.06 20.9243 146.377C19.9392 144.694 19.0097 142.979 18.1343 141.237C17.2589 139.494 16.4365 137.722 15.6743 135.927C14.9121 134.132 14.2101 132.317 13.5643 130.477C12.9185 128.637 12.3312 126.774 11.8043 124.897C11.2774 123.019 10.81 121.124 10.4043 119.217C9.99859 117.309 9.6572 115.396 9.3743 113.467C9.09138 111.537 8.86324 109.6 8.7043 107.657C8.54535 105.713 8.44865 103.767 8.4143 101.817C8.37996 99.8669 8.41389 97.9149 8.5043 95.9669C8.5947 94.0188 8.74952 92.075 8.9643 90.1369C9.17909 88.1986 9.45602 86.2674 9.7943 84.3469C10.1326 82.4262 10.5239 80.5218 10.9843 78.6269C11.4447 76.7318 11.9737 74.8584 12.5543 72.9969C13.1349 71.1351 13.7658 69.2876 14.4643 67.4669C15.1628 65.646 15.9208 63.8491 16.7343 62.0769C17.5478 60.3044 18.4192 58.5637 19.3443 56.8469C20.2694 55.1301 21.2512 53.4408 22.2843 51.7869C23.3174 50.1328 24.3977 48.5114 25.5343 46.9269C26.671 45.3421 27.8587 43.7955 29.0943 42.2869C30.33 40.7781 31.6148 39.3134 32.9443 37.8869C34.274 36.4603 35.6463 35.0755 37.0643 33.7369C38.4825 32.3982 39.9435 31.112 41.4443 29.8669C42.9451 28.6217 44.487 27.4236 46.0643 26.2769C47.6416 25.1301 49.2468 24.0304 50.8943 22.9869C52.5418 21.9434 54.2236 20.9629 55.9343 20.0269C57.6452 19.0909 59.3871 18.2016 61.1543 17.3769C62.9215 16.5521 64.7081 15.7869 66.5243 15.0769C68.3407 14.3668 70.1765 13.7193 72.0343 13.1269ZM65.0543 37.0869C63.8367 37.758 62.6312 38.4662 61.4543 39.2069C60.2775 39.9473 59.1263 40.7194 57.9943 41.5269C56.8623 42.3341 55.7579 43.1754 54.6743 44.0469C53.5909 44.9184 52.5355 45.8141 51.5043 46.7469C50.473 47.6795 49.4697 48.6459 48.4943 49.6369C47.5189 50.6277 46.5709 51.6412 45.6543 52.6869C44.7379 53.7324 43.849 54.81 42.9943 55.9069C42.14 57.0037 41.3139 58.1223 40.5243 59.2669C39.7346 60.4114 38.9864 61.5786 38.2643 62.7669C37.5422 63.9551 36.8564 65.1587 36.2043 66.3869C35.5523 67.615 34.9344 68.8632 34.3543 70.1269C33.7744 71.3905 33.2302 72.6716 32.7243 73.9669C32.2184 75.262 31.7544 76.5746 31.3243 77.8969C30.8942 79.2191 30.4972 80.5519 30.1443 81.8969C29.7916 83.2418 29.4789 84.5938 29.2043 85.9569C28.9299 87.3198 28.6996 88.6901 28.5043 90.0669C28.3092 91.4434 28.1495 92.8211 28.0343 94.2069C27.9193 95.5924 27.8392 96.9868 27.8043 98.3769C27.7695 99.7667 27.7786 101.147 27.8243 102.537C27.8699 103.927 27.9583 105.322 28.0843 106.707C28.2105 108.091 28.3784 109.472 28.5843 110.847C28.7902 112.222 29.0291 113.586 29.3143 114.947C29.5995 116.308 29.931 117.655 30.2943 118.997C30.6578 120.339 31.0541 121.678 31.4943 122.997C31.9347 124.316 32.4183 125.616 32.9343 126.907C33.4503 128.198 33.9945 129.477 34.5843 130.737C35.1741 131.996 35.8026 133.234 36.4643 134.457C37.126 135.68 37.823 136.884 38.5543 138.067C39.2855 139.249 40.0559 140.409 40.8543 141.547C41.6527 142.685 42.4814 143.797 43.3443 144.887C44.2076 145.977 45.0997 147.048 46.0243 148.087C46.9489 149.125 47.9011 150.134 48.8843 151.117C49.8675 152.1 50.876 153.052 51.9143 153.977C52.9528 154.901 54.0241 155.794 55.1143 156.657C56.2045 157.52 57.316 158.348 58.4543 159.147C59.5926 159.945 60.7519 160.716 61.9343 161.447C63.1169 162.178 64.3214 162.875 65.5443 163.537C66.7673 164.199 68.0053 164.817 69.2643 165.407C70.5237 165.997 71.8033 166.551 73.0943 167.067C74.3855 167.583 75.6855 168.066 77.0043 168.507C78.323 168.947 79.6521 169.343 80.9943 169.707C82.3365 170.07 83.6934 170.402 85.0543 170.687C86.4152 170.972 87.7793 171.211 89.1543 171.417C90.5295 171.623 91.9097 171.791 93.2943 171.917C94.6791 172.043 96.0647 172.131 97.4543 172.177C98.8441 172.223 100.234 172.222 101.624 172.187C103.014 172.152 104.409 172.082 105.794 171.967C107.18 171.852 108.558 171.692 109.934 171.497C111.311 171.302 112.681 171.071 114.044 170.797C115.408 170.522 116.759 170.21 118.104 169.857C119.449 169.504 120.782 169.107 122.104 168.677C123.427 168.247 124.739 167.783 126.034 167.277C127.33 166.771 128.611 166.227 129.874 165.647C131.138 165.067 132.376 164.449 133.604 163.797C134.832 163.145 136.046 162.459 137.234 161.737C138.423 161.015 139.59 160.257 140.734 159.467C141.879 158.677 142.997 157.861 144.094 157.007C145.191 156.152 146.259 155.263 147.304 154.347C148.35 153.43 149.374 152.482 150.364 151.507C151.355 150.531 152.312 149.528 153.244 148.497C154.177 147.466 155.083 146.41 155.954 145.327C156.826 144.243 157.667 143.139 158.474 142.007C159.282 140.875 160.054 139.714 160.794 138.537C161.535 137.36 162.243 136.164 162.914 134.947C161.263 135.167 159.606 135.341 157.944 135.467C156.283 135.592 154.621 135.677 152.954 135.707C151.288 135.737 149.62 135.712 147.954 135.647C146.289 135.581 144.623 135.468 142.964 135.307C141.306 135.146 139.651 134.943 138.004 134.687C136.358 134.431 134.724 134.127 133.094 133.777C131.465 133.427 129.851 133.03 128.244 132.587C126.638 132.144 125.043 131.651 123.464 131.117C121.886 130.582 120.32 130.011 118.774 129.387C117.229 128.763 115.701 128.088 114.194 127.377C112.687 126.665 111.208 125.914 109.744 125.117C108.281 124.32 106.84 123.486 105.424 122.607C104.009 121.728 102.617 120.806 101.254 119.847C99.8914 118.888 98.56 117.893 97.2543 116.857C95.9488 115.821 94.6684 114.746 93.4243 113.637C92.1804 112.528 90.9728 111.385 89.7943 110.207C88.616 109.028 87.4733 107.811 86.3643 106.567C85.2555 105.323 84.18 104.052 83.1443 102.747C82.1086 101.441 81.1135 100.11 80.1543 98.7469C79.1953 97.384 78.2736 95.9925 77.3943 94.5769C76.515 93.1612 75.6812 91.7205 74.8843 90.2569C74.0876 88.793 73.3358 87.3037 72.6243 85.7969C71.913 84.2898 71.2383 82.7722 70.6143 81.2269C69.9905 79.6814 69.4187 78.1154 68.8843 76.5369C68.3501 74.9582 67.8573 73.3633 67.4143 71.7569C66.9717 70.1502 66.5743 68.5362 66.2243 66.9069C65.8745 65.2776 65.5704 63.6335 65.3143 61.9869C65.0584 60.34 64.8554 58.6955 64.6943 57.0369C64.5334 55.3781 64.4199 53.7121 64.3543 52.0469C64.2887 50.3816 64.2644 48.7131 64.2943 47.0469C64.3244 45.3805 64.4089 43.7186 64.5343 42.0569C64.6599 40.395 64.8338 38.7386 65.0543 37.0869Z" stroke="rgba(84, 84, 84, 1)" stroke-width="1"      fill="#545454" >
</path>
</svg>
