<svg xmlns="http://www.w3.org/2000/svg" xmlns:xlink="http://www.w3.org/1999/xlink" width="200" height="200" viewBox="0 0 200 200" fill="none">
<path d="M125.917 185.583C88.9166 185.583 71.0834 171 68 138.333C67.9901 138.231 67.9828 138.129 67.978 138.026C67.9732 137.923 67.9709 137.82 67.9711 137.718C67.9714 137.615 67.9742 137.512 67.9795 137.409C67.9849 137.306 67.9928 137.204 68.0032 137.102C68.0135 136.999 68.0263 136.897 68.0416 136.796C68.0571 136.694 68.075 136.593 68.0954 136.492C68.1158 136.391 68.1386 136.291 68.1639 136.192C68.1893 136.092 68.2171 135.993 68.2473 135.895C68.2775 135.796 68.3101 135.699 68.3452 135.602C68.3801 135.505 68.4174 135.41 68.4571 135.315C68.4968 135.22 68.5388 135.126 68.5832 135.034C68.6276 134.941 68.6743 134.849 68.7231 134.759C68.7719 134.668 68.823 134.579 68.8762 134.491C68.9295 134.403 68.9849 134.317 69.0424 134.231C69.1 134.146 69.1595 134.062 69.2211 133.98C69.2829 133.898 69.3465 133.817 69.4121 133.738C69.4778 133.659 69.5453 133.581 69.6147 133.506C69.6842 133.43 69.7555 133.356 69.8286 133.283C69.9016 133.211 69.9764 133.141 70.053 133.072C70.1297 133.003 70.2079 132.937 70.2877 132.872C70.3676 132.807 70.4489 132.744 70.5319 132.684C70.6148 132.623 70.6993 132.564 70.7852 132.508C70.871 132.451 70.9582 132.397 71.0467 132.345C71.1353 132.292 71.225 132.242 71.3159 132.194C71.4069 132.146 71.499 132.101 71.5922 132.057C71.6854 132.014 71.7797 131.973 71.875 131.934C71.9704 131.896 72.0665 131.859 72.1635 131.825C72.2605 131.791 72.3584 131.76 72.4571 131.731C72.5556 131.702 72.6549 131.675 72.7547 131.651C72.8547 131.627 72.9552 131.605 73.0561 131.586C73.1571 131.566 73.2586 131.549 73.3604 131.535C73.4622 131.521 73.5643 131.509 73.6666 131.5C73.7687 131.492 73.8709 131.487 73.9731 131.484C74.0753 131.48 74.1776 131.48 74.2799 131.482C74.3823 131.484 74.4845 131.488 74.5866 131.495C74.6887 131.502 74.7905 131.511 74.892 131.523C74.9937 131.534 75.095 131.548 75.1959 131.565C75.2968 131.581 75.3974 131.601 75.4975 131.622C75.5975 131.644 75.697 131.667 75.7959 131.694C75.8948 131.72 75.993 131.748 76.0905 131.779C76.188 131.81 76.2847 131.843 76.3805 131.879C76.4765 131.915 76.5715 131.953 76.6657 131.993C76.7597 132.033 76.8527 132.075 76.9448 132.12C77.0368 132.164 77.1278 132.211 77.2176 132.261C77.3073 132.309 77.3959 132.361 77.4832 132.414C77.5706 132.467 77.6566 132.523 77.7412 132.58C77.8259 132.638 77.9091 132.697 77.9909 132.758C78.0728 132.82 78.1531 132.883 78.2319 132.948C78.3105 133.014 78.3876 133.081 78.4631 133.15C78.5387 133.219 78.6125 133.29 78.6846 133.362C78.7567 133.435 78.827 133.509 78.8955 133.585C78.9642 133.661 79.0308 133.739 79.0956 133.818C79.1604 133.897 79.2233 133.978 79.2842 134.06C79.3452 134.142 79.4041 134.226 79.461 134.311C79.5178 134.396 79.5725 134.482 79.6252 134.57C79.678 134.657 79.7286 134.746 79.777 134.837C79.8256 134.927 79.8719 135.018 79.9159 135.11C79.9599 135.202 80.0017 135.296 80.0413 135.39C80.0808 135.484 80.1181 135.58 80.1532 135.676C80.1882 135.772 80.2208 135.869 80.251 135.967C80.2813 136.064 80.3093 136.163 80.335 136.262C80.3605 136.361 80.3837 136.46 80.4045 136.561C80.4252 136.661 80.4436 136.761 80.4596 136.863C80.4755 136.964 80.489 137.065 80.5 137.167C82.9166 163.333 95.25 173.083 126 173.083L127.067 173.083C160.983 173.083 172.983 161.083 172.983 127.167L172.983 72.8334C172.983 38.9166 160.983 26.9166 127.067 26.9166L125.983 26.9166C95.0666 26.9166 82.7334 36.8334 80.4834 63.5C80.4722 63.6012 80.4587 63.702 80.4428 63.8028C80.4268 63.9031 80.4084 64.0033 80.3875 64.1031C80.3667 64.2028 80.3435 64.3018 80.3178 64.4004C80.2922 64.4989 80.2642 64.5969 80.2338 64.6942C80.2035 64.7912 80.1708 64.8877 80.1358 64.9834C80.1008 65.0789 80.0634 65.1737 80.0239 65.2676C79.9843 65.3614 79.9424 65.4541 79.8983 65.5459C79.8543 65.6377 79.808 65.7283 79.7594 65.818C79.711 65.9074 79.6604 65.9959 79.6077 66.083C79.5549 66.1701 79.5001 66.2559 79.4432 66.3405C79.3863 66.4248 79.3274 66.5078 79.2664 66.5895C79.2055 66.6711 79.1427 66.7512 79.078 66.8297C79.0131 66.9082 78.9464 66.9854 78.878 67.0608C78.8095 67.136 78.7392 67.2096 78.667 67.2817C78.595 67.3535 78.5212 67.4237 78.4457 67.4922C78.3704 67.5606 78.2933 67.627 78.2145 67.6916C78.1358 67.7563 78.0557 67.819 77.9741 67.8797C77.8923 67.9405 77.8092 67.9992 77.7246 68.0561C77.64 68.1127 77.5541 68.1674 77.4668 68.2201C77.3797 68.2727 77.2913 68.3231 77.2016 68.3715C77.112 68.4198 77.0213 68.4658 76.9293 68.51C76.8375 68.5537 76.7447 68.5955 76.6508 68.635C76.5568 68.6744 76.462 68.7115 76.3664 68.7463C76.2707 68.7811 76.1743 68.8137 76.077 68.844C75.9797 68.874 75.8818 68.902 75.7832 68.9274C75.6845 68.9528 75.5853 68.9758 75.4856 68.9965C75.386 69.0172 75.2858 69.0354 75.1852 69.0514C75.0845 69.067 74.9836 69.0805 74.8825 69.0914C74.7812 69.1024 74.6797 69.1108 74.578 69.1168C74.4764 69.1227 74.3747 69.1264 74.2729 69.1276C74.1709 69.1285 74.0691 69.1272 73.9674 69.1235C73.8656 69.1196 73.764 69.1133 73.6625 69.1047C73.5611 69.0957 73.4599 69.0846 73.359 69.0711C73.2581 69.0574 73.1576 69.0412 73.0575 69.0229C72.9572 69.0043 72.8575 68.9834 72.7584 68.9602C72.6593 68.9367 72.5608 68.9112 72.4629 68.883C72.365 68.8549 72.2679 68.8246 72.1715 68.7918C72.075 68.759 71.9795 68.7239 71.8848 68.6865C71.79 68.649 71.6962 68.6094 71.6034 68.5676C71.5106 68.5256 71.4189 68.4815 71.3282 68.4352C71.2375 68.3887 71.1481 68.3403 71.0598 68.2895C70.9714 68.2387 70.8844 68.186 70.7987 68.1311C70.7129 68.0762 70.6285 68.0192 70.5455 67.9602C70.4625 67.9012 70.3809 67.8403 70.3008 67.7774C70.2207 67.7145 70.1422 67.6496 70.0653 67.5828C69.9885 67.516 69.9132 67.4475 69.8395 67.3772C69.7659 67.3069 69.6941 67.2348 69.6239 67.161C69.5538 67.0871 69.4855 67.0116 69.419 66.9344C69.3526 66.8573 69.288 66.7785 69.2252 66.6983C69.1626 66.618 69.1019 66.5364 69.0432 66.4531C68.9845 66.3699 68.9278 66.2854 68.8733 66.1994C68.8186 66.1133 68.7661 66.026 68.7157 65.9377C68.6653 65.849 68.617 65.7594 68.5709 65.6688C68.5248 65.5778 68.481 65.486 68.4395 65.393C68.3978 65.3 68.3584 65.2063 68.3213 65.1114C68.2842 65.0164 68.2495 64.9207 68.217 64.8242C68.1846 64.7278 68.1545 64.6305 68.1268 64.5326C68.0991 64.4346 68.0737 64.336 68.0506 64.2367C68.0277 64.1375 68.0071 64.0377 67.9889 63.9377C67.9708 63.8373 67.9551 63.7367 67.9418 63.636C67.9286 63.5348 67.9177 63.4336 67.9092 63.3323C67.9009 63.2307 67.895 63.1289 67.8914 63.0274C67.8879 62.9254 67.8869 62.8237 67.8883 62.7219C67.8898 62.6199 67.8937 62.5182 67.9 62.4166C70.75 29.25 88.6666 14.4166 125.917 14.4166L127 14.4166C167.9 14.4166 185.4 31.9166 185.4 72.8334L185.4 127.167C185.4 168.083 167.9 185.583 126.983 185.583L125.917 185.583Z" stroke="rgba(0, 0, 0, 1)" stroke-width="3"      fill="#000000" >
</path>
<path d="M30.1582 106.25C30.0561 106.249 29.9541 106.246 29.8521 106.241C29.7502 106.235 29.6484 106.227 29.5469 106.216C29.4453 106.206 29.3441 106.192 29.2432 106.177C29.1422 106.161 29.0417 106.143 28.9416 106.123C28.8416 106.103 28.7421 106.08 28.6432 106.054C28.5443 106.029 28.4461 106.002 28.3484 105.972C28.2509 105.942 28.1541 105.909 28.058 105.874C27.9621 105.84 27.867 105.803 27.7729 105.763C27.6786 105.724 27.5854 105.682 27.4932 105.638C27.401 105.594 27.31 105.548 27.2201 105.5C27.1301 105.452 27.0414 105.401 26.9539 105.348C26.8665 105.296 26.7804 105.241 26.6955 105.184C26.6107 105.127 26.5274 105.068 26.4455 105.007C26.3636 104.946 26.2832 104.884 26.2043 104.819C26.1254 104.754 26.0481 104.687 25.9725 104.619C25.8969 104.55 25.823 104.48 25.7508 104.407C25.6786 104.335 25.6083 104.261 25.5396 104.186C25.471 104.11 25.4043 104.033 25.3395 103.954C25.2746 103.875 25.2117 103.795 25.1508 103.713C25.0898 103.631 25.0309 103.547 24.974 103.463C24.9173 103.378 24.8625 103.292 24.8098 103.204C24.7572 103.117 24.7066 103.028 24.6582 102.938C24.6099 102.848 24.5638 102.757 24.5199 102.665C24.4759 102.573 24.4342 102.48 24.3949 102.385C24.3555 102.291 24.3184 102.196 24.2838 102.1C24.249 102.004 24.2166 101.907 24.1865 101.81C24.1564 101.712 24.1288 101.614 24.1035 101.515C24.0783 101.416 24.0554 101.317 24.035 101.216C24.0146 101.116 23.9967 101.016 23.9811 100.915C23.9656 100.814 23.9525 100.713 23.942 100.611C23.9313 100.51 23.9232 100.408 23.9176 100.306C23.912 100.204 23.9089 100.102 23.9082 100C23.9089 99.8979 23.912 99.7959 23.9176 99.6939C23.9232 99.592 23.9313 99.4902 23.942 99.3887C23.9525 99.2871 23.9656 99.1859 23.9811 99.085C23.9967 98.984 24.0146 98.8836 24.035 98.7836C24.0554 98.6835 24.0783 98.584 24.1035 98.4852C24.1288 98.3862 24.1564 98.2879 24.1865 98.1902C24.2166 98.0927 24.249 97.996 24.2838 97.9C24.3184 97.8039 24.3555 97.7088 24.3949 97.6146C24.4342 97.5205 24.4759 97.4273 24.5199 97.3352C24.5638 97.243 24.6099 97.1519 24.6582 97.0619C24.7066 96.9719 24.7572 96.8833 24.8098 96.7959C24.8625 96.7084 24.9173 96.6223 24.974 96.5375C25.0309 96.4526 25.0898 96.3692 25.1508 96.2873C25.2117 96.2054 25.2746 96.125 25.3395 96.0461C25.4043 95.9672 25.471 95.89 25.5396 95.8145C25.6083 95.7388 25.6786 95.6648 25.7508 95.5926C25.823 95.5204 25.8969 95.4501 25.9725 95.3814C26.0481 95.3128 26.1254 95.2461 26.2043 95.1813C26.2832 95.1164 26.3636 95.0535 26.4455 94.9926C26.5274 94.9318 26.6107 94.8729 26.6955 94.816C26.7804 94.7591 26.8665 94.7044 26.9539 94.6518C27.0414 94.599 27.1301 94.5485 27.2201 94.5002C27.31 94.4518 27.401 94.4056 27.4932 94.3617C27.5854 94.3178 27.6786 94.2762 27.7729 94.2367C27.867 94.1974 27.9621 94.1604 28.058 94.1256C28.1541 94.0908 28.2509 94.0584 28.3484 94.0283C28.4461 93.9984 28.5443 93.9708 28.6432 93.9455C28.7421 93.9202 28.8416 93.8974 28.9416 93.877C29.0417 93.8565 29.1422 93.8385 29.2432 93.823C29.3441 93.8076 29.4453 93.7945 29.5469 93.7838C29.6484 93.7732 29.7502 93.7652 29.8521 93.7596C29.9541 93.7538 30.0561 93.7506 30.1582 93.75L124.991 93.75C125.094 93.7506 125.196 93.7538 125.297 93.7596C125.399 93.7652 125.501 93.7732 125.603 93.7838C125.704 93.7945 125.805 93.8076 125.906 93.823C126.007 93.8385 126.108 93.8565 126.208 93.877C126.308 93.8974 126.407 93.9202 126.506 93.9455C126.605 93.9708 126.704 93.9984 126.801 94.0283C126.899 94.0584 126.996 94.0908 127.092 94.1256C127.188 94.1604 127.283 94.1974 127.377 94.2367C127.471 94.2762 127.564 94.3178 127.656 94.3617C127.749 94.4056 127.84 94.4518 127.929 94.5002C128.02 94.5485 128.108 94.599 128.196 94.6518C128.283 94.7044 128.369 94.7591 128.454 94.816C128.539 94.8729 128.622 94.9318 128.704 94.9926C128.786 95.0535 128.866 95.1164 128.945 95.1813C129.024 95.2461 129.102 95.3128 129.177 95.3814C129.253 95.4501 129.327 95.5204 129.399 95.5926C129.471 95.6648 129.541 95.7388 129.61 95.8145C129.679 95.89 129.745 95.9672 129.81 96.0461C129.875 96.125 129.938 96.2054 129.999 96.2873C130.06 96.3692 130.119 96.4526 130.176 96.5375C130.232 96.6223 130.287 96.7084 130.34 96.7959C130.392 96.8833 130.443 96.9719 130.491 97.0619C130.54 97.1519 130.586 97.243 130.63 97.3352C130.674 97.4273 130.715 97.5205 130.755 97.6146C130.794 97.7088 130.831 97.8039 130.866 97.9C130.901 97.996 130.933 98.0928 130.963 98.1904C130.993 98.2879 131.021 98.3862 131.046 98.4852C131.071 98.5841 131.094 98.6836 131.115 98.7836C131.135 98.8836 131.153 98.984 131.169 99.085C131.184 99.1859 131.197 99.2871 131.208 99.3887C131.218 99.4902 131.226 99.592 131.232 99.6939C131.238 99.7959 131.241 99.8979 131.241 100C131.241 100.102 131.238 100.204 131.232 100.306C131.226 100.408 131.218 100.51 131.208 100.611C131.197 100.713 131.184 100.814 131.168 100.915C131.153 101.016 131.135 101.116 131.114 101.216C131.094 101.316 131.071 101.416 131.046 101.515C131.021 101.614 130.993 101.712 130.963 101.81C130.933 101.907 130.901 102.004 130.866 102.1C130.831 102.196 130.794 102.291 130.755 102.385C130.715 102.479 130.674 102.573 130.63 102.665C130.586 102.757 130.54 102.848 130.491 102.938C130.443 103.028 130.392 103.117 130.34 103.204C130.287 103.292 130.232 103.378 130.175 103.463C130.119 103.547 130.06 103.631 129.999 103.713C129.938 103.795 129.875 103.875 129.81 103.954C129.745 104.033 129.679 104.11 129.61 104.186C129.541 104.261 129.471 104.335 129.399 104.407C129.327 104.48 129.253 104.55 129.177 104.619C129.102 104.687 129.024 104.754 128.945 104.819C128.866 104.884 128.786 104.946 128.704 105.007C128.622 105.068 128.539 105.127 128.454 105.184C128.369 105.241 128.283 105.296 128.196 105.348C128.108 105.401 128.02 105.452 127.929 105.5C127.84 105.548 127.749 105.594 127.656 105.638C127.564 105.682 127.471 105.724 127.377 105.763C127.283 105.803 127.188 105.84 127.092 105.874C126.996 105.909 126.899 105.942 126.801 105.972C126.704 106.002 126.605 106.029 126.506 106.054C126.407 106.08 126.308 106.103 126.208 106.123C126.108 106.143 126.007 106.161 125.906 106.177C125.805 106.192 125.704 106.206 125.603 106.216C125.501 106.227 125.399 106.235 125.297 106.241C125.196 106.246 125.094 106.249 124.991 106.25L30.1582 106.25Z" stroke="rgba(0, 0, 0, 1)" stroke-width="3"      fill="#000000" >
</path>
<path d="M44.3334 132.342L16.4167 104.425C16.345 104.352 16.2751 104.278 16.2069 104.202C16.1388 104.126 16.0726 104.048 16.0083 103.969C15.9439 103.89 15.8816 103.809 15.8212 103.727C15.7607 103.645 15.7024 103.561 15.6461 103.476C15.5897 103.391 15.5355 103.304 15.4834 103.217C15.4313 103.129 15.3813 103.04 15.3336 102.95C15.2858 102.859 15.2402 102.768 15.1969 102.676C15.1536 102.583 15.1125 102.49 15.0738 102.396C15.035 102.301 14.9985 102.206 14.9644 102.11C14.9303 102.014 14.8985 101.917 14.8691 101.819C14.8397 101.721 14.8127 101.623 14.788 101.524C14.7634 101.425 14.7412 101.325 14.7215 101.225C14.7017 101.125 14.6844 101.024 14.6695 100.923C14.6547 100.822 14.6423 100.721 14.6323 100.619C14.6224 100.518 14.615 100.416 14.61 100.314C14.605 100.212 14.6025 100.11 14.6025 100.008C14.6025 99.9062 14.605 99.8042 14.61 99.7022C14.615 99.6003 14.6224 99.4985 14.6323 99.397C14.6423 99.2954 14.6547 99.194 14.6695 99.0931C14.6844 98.9921 14.7017 98.8917 14.7215 98.7915C14.7412 98.6913 14.7634 98.5919 14.788 98.4927C14.8127 98.3937 14.8397 98.2954 14.8691 98.1976C14.8985 98.0999 14.9303 98.003 14.9644 97.9067C14.9985 97.8106 15.035 97.7153 15.0738 97.6208C15.1125 97.5265 15.1536 97.4331 15.1969 97.3407C15.2402 97.2483 15.2858 97.1569 15.3336 97.0667C15.3813 96.9767 15.4313 96.8878 15.4834 96.7999C15.5355 96.7122 15.5897 96.6257 15.6461 96.5405C15.7024 96.4556 15.7607 96.372 15.8212 96.2896C15.8816 96.2073 15.9439 96.1265 16.0083 96.0474C16.0726 95.9681 16.1388 95.8903 16.2069 95.8144C16.2751 95.7384 16.345 95.6642 16.4167 95.5915L44.3334 67.6749C44.4064 67.6068 44.4813 67.5405 44.5576 67.4759C44.634 67.4113 44.7117 67.3486 44.791 67.2876C44.8705 67.2268 44.9514 67.168 45.0334 67.1111C45.1156 67.054 45.199 66.999 45.2838 66.946C45.3688 66.8932 45.4549 66.8423 45.542 66.7935C45.6293 66.7447 45.7176 66.6979 45.807 66.6533C45.8967 66.6087 45.9873 66.5663 46.0787 66.5261C46.1701 66.4859 46.2625 66.4479 46.3559 66.412C46.4492 66.3762 46.5436 66.3427 46.6385 66.3115C46.7334 66.2801 46.8291 66.251 46.9254 66.2243C47.0219 66.1977 47.1188 66.1733 47.2162 66.1513C47.3139 66.1293 47.4117 66.1096 47.5102 66.0923C47.6088 66.0749 47.7076 66.0599 47.8068 66.0474C47.9061 66.0348 48.0055 66.0245 48.1051 66.0167C48.2047 66.0089 48.3045 66.0035 48.4045 66.0005C48.5045 65.9974 48.6043 65.9967 48.7043 65.9986C48.8043 66.0003 48.9043 66.0044 49.0039 66.0111C49.1039 66.0176 49.2033 66.0265 49.3025 66.0378C49.402 66.0491 49.501 66.0629 49.5996 66.079C49.6984 66.0951 49.7967 66.1135 49.8943 66.1343C49.9922 66.1551 50.0895 66.1783 50.1861 66.2037C50.283 66.2292 50.3789 66.257 50.4742 66.287C50.5695 66.3171 50.6643 66.3495 50.758 66.3841C50.8518 66.4187 50.9447 66.4556 51.0367 66.4947C51.1289 66.5337 51.2199 66.575 51.3098 66.6185C51.4 66.6618 51.4889 66.7074 51.5768 66.7552C51.6646 66.8029 51.7514 66.8527 51.8367 66.9046C51.9223 66.9564 52.0064 67.0103 52.0893 67.0661C52.1723 67.1221 52.2537 67.18 52.3338 67.2398C52.4139 67.2997 52.4926 67.3614 52.5697 67.4249C52.6469 67.4886 52.7225 67.554 52.7965 67.6212C52.8705 67.6884 52.9428 67.7574 53.0135 67.8281C53.0842 67.8988 53.1531 67.9712 53.2203 68.0453C53.2877 68.1192 53.3531 68.1948 53.4166 68.272C53.4803 68.3491 53.542 68.4277 53.6018 68.5078C53.6617 68.588 53.7195 68.6695 53.7754 68.7523C53.8312 68.8352 53.8852 68.9194 53.9371 69.0048C53.9891 69.0904 54.0389 69.1771 54.0865 69.265C54.1342 69.3529 54.1799 69.4418 54.2232 69.5318C54.2666 69.6219 54.308 69.713 54.3471 69.805C54.3861 69.8969 54.423 69.9898 54.4576 70.0837C54.4922 70.1775 54.5244 70.2721 54.5545 70.3675C54.5846 70.4628 54.6125 70.5588 54.6379 70.6554C54.6635 70.7522 54.6865 70.8494 54.7072 70.9472C54.7281 71.045 54.7467 71.1432 54.7627 71.2419C54.7787 71.3406 54.7924 71.4397 54.8037 71.539C54.815 71.6383 54.824 71.7379 54.8307 71.8376C54.8373 71.9374 54.8414 72.0372 54.8432 72.1372C54.8449 72.2372 54.8443 72.3372 54.8412 72.437C54.8383 72.537 54.8328 72.6369 54.8248 72.7367C54.817 72.8363 54.8068 72.9357 54.7943 73.0349C54.7818 73.1341 54.7668 73.2329 54.7494 73.3314C54.7322 73.4298 54.7125 73.5278 54.6902 73.6253C54.6684 73.7229 54.6439 73.8198 54.6172 73.9162C54.5906 74.0125 54.5615 74.1082 54.5303 74.2033C54.499 74.2982 54.4654 74.3923 54.4295 74.4857C54.3937 74.579 54.3557 74.6715 54.3154 74.763C54.2752 74.8546 54.2328 74.9451 54.1883 75.0345C54.1437 75.124 54.0971 75.2124 54.0482 75.2997C53.9994 75.387 53.9486 75.473 53.8955 75.5578C53.8426 75.6425 53.7877 75.726 53.7307 75.8081C53.6736 75.8904 53.6148 75.9712 53.5539 76.0505C53.4932 76.1298 53.4305 76.2077 53.3658 76.2841C53.3014 76.3604 53.235 76.4352 53.1666 76.5083L29.6585 100.025L53.1584 123.525C53.2303 123.597 53.3002 123.672 53.3682 123.748C53.4363 123.824 53.5025 123.901 53.5668 123.981C53.6312 124.06 53.6936 124.141 53.7539 124.223C53.8145 124.305 53.8727 124.389 53.9289 124.474C53.9854 124.559 54.0396 124.646 54.0916 124.733C54.1437 124.821 54.1937 124.91 54.2414 125C54.2893 125.09 54.3348 125.182 54.3781 125.274C54.4215 125.367 54.4627 125.46 54.5014 125.554C54.54 125.649 54.5766 125.744 54.6107 125.84C54.6449 125.936 54.6768 126.033 54.7061 126.131C54.7354 126.229 54.7623 126.327 54.7869 126.426C54.8115 126.525 54.8338 126.625 54.8535 126.725C54.8734 126.825 54.8906 126.925 54.9055 127.026C54.9203 127.127 54.9328 127.229 54.9428 127.33C54.9527 127.432 54.9602 127.534 54.965 127.636C54.9701 127.738 54.9725 127.84 54.9725 127.942C54.9725 128.044 54.9701 128.146 54.965 128.248C54.9602 128.35 54.9527 128.451 54.9428 128.553C54.9328 128.654 54.9203 128.756 54.9055 128.857C54.8906 128.958 54.8734 129.058 54.8535 129.158C54.8338 129.258 54.8115 129.358 54.7869 129.457C54.7623 129.556 54.7354 129.655 54.7061 129.752C54.6768 129.85 54.6449 129.947 54.6107 130.043C54.5766 130.139 54.54 130.235 54.5014 130.329C54.4627 130.423 54.4215 130.517 54.3781 130.609C54.3348 130.701 54.2893 130.793 54.2414 130.883C54.1937 130.973 54.1437 131.062 54.0916 131.15C54.0396 131.238 53.9854 131.324 53.9289 131.409C53.8727 131.494 53.8145 131.578 53.7539 131.66C53.6936 131.743 53.6312 131.823 53.5668 131.902C53.5025 131.982 53.4363 132.059 53.3682 132.135C53.3002 132.211 53.2303 132.286 53.1584 132.358C53.0871 132.432 53.0139 132.503 52.9389 132.573C52.8639 132.643 52.7871 132.711 52.7086 132.777C52.6303 132.843 52.5502 132.907 52.4684 132.968C52.3867 133.03 52.3035 133.09 52.2188 133.147C52.134 133.205 52.0479 133.26 51.9604 133.314C51.8729 133.367 51.784 133.418 51.6937 133.467C51.6037 133.515 51.5123 133.562 51.4197 133.606C51.3273 133.65 51.2338 133.691 51.1391 133.731C51.0445 133.77 50.949 133.807 50.8523 133.841C50.7559 133.875 50.6586 133.907 50.5605 133.937C50.4625 133.966 50.3637 133.993 50.2641 134.018C50.1646 134.042 50.0646 134.064 49.9639 134.083C49.8635 134.103 49.7623 134.119 49.6607 134.134C49.5594 134.148 49.4576 134.16 49.3555 134.169C49.2535 134.178 49.1514 134.184 49.0488 134.188C48.9465 134.192 48.8441 134.193 48.7416 134.191C48.6395 134.191 48.5373 134.189 48.435 134.184C48.333 134.179 48.2311 134.171 48.1291 134.161C48.0273 134.151 47.926 134.138 47.8248 134.123C47.7236 134.108 47.623 134.09 47.5227 134.07C47.4225 134.05 47.3227 134.027 47.2234 134.002C47.1244 133.976 47.026 133.949 46.9281 133.919C46.8305 133.889 46.7334 133.856 46.6371 133.822C46.541 133.787 46.4459 133.75 46.3516 133.71C46.2572 133.67 46.1639 133.628 46.0717 133.584C45.9795 133.54 45.8883 133.493 45.7984 133.445C45.7086 133.396 45.6199 133.345 45.5324 133.292C45.4451 133.239 45.359 133.184 45.2742 133.126C45.1896 133.069 45.1064 133.009 45.0248 132.948C44.9432 132.886 44.8629 132.823 44.7844 132.757C44.7059 132.692 44.6289 132.624 44.5537 132.555C44.4785 132.486 44.4051 132.415 44.3334 132.342Z" stroke="rgba(0, 0, 0, 1)" stroke-width="3"      fill="#000000" >
</path>
</svg>
