<svg xmlns="http://www.w3.org/2000/svg" xmlns:xlink="http://www.w3.org/1999/xlink" width="200" height="200" viewBox="0 0 200 200" fill="none">
<path d="M188.105 140.293L184.492 134.434L184.492 134.238L183.77 133.262C174.082 120.02 168.867 104.238 168.223 86.3672C167.578 68.9844 163.555 54.4531 156.348 43.2812C149.258 32.2266 139.375 25 127.031 21.8164C125.625 16.4648 122.461 11.6797 117.969 8.26172C113.301 4.70703 107.324 2.73438 101.25 2.73438L98.7891 2.73438C92.168 2.73438 85.8008 5.03906 80.8594 9.25781C76.875 12.5977 74.082 17.0508 72.9102 21.8359C60.6055 25.0195 50.7812 32.2656 43.6133 43.3398C36.4453 54.5117 32.4609 68.9844 31.8164 86.3477C31.1719 104.141 25.8789 120 16.1328 133.438L16.0742 133.535L11.9727 140.098C9.35547 144.043 7.91016 148.555 7.91016 153.145C7.91016 166.426 19.375 177.227 33.457 177.227L60.3516 177.188C66.1914 177.188 71.6406 180.039 74.8828 184.785C76.6211 187.363 78.8477 189.629 81.3867 191.504C86.1914 195.117 92.1875 197.227 98.3008 197.461C98.7109 197.461 101.035 197.5 101.445 197.5C107.695 197.5 113.594 195.664 118.535 192.285C123.281 189.082 126.855 184.668 128.828 179.551C129.023 179.043 131.406 177.52 134.883 177.383L135.078 177.383C136.445 177.383 141.113 177.715 144.316 182.207C145.742 184.277 148.301 185.586 150.996 185.586C152.695 185.586 154.297 185.117 155.527 184.258C159.102 181.914 160.059 177.227 157.617 173.828C149.746 162.852 138.418 162.285 135.996 162.285L135.586 162.285L135.41 162.324C124.844 162.324 119.883 166.641 118.145 169.355C116.738 171.562 112.246 177.285 112.246 177.285C111.387 178.398 110.371 179.297 109.219 180.098C107.012 181.641 104.375 182.441 101.504 182.441C101.172 182.441 98.9062 182.441 98.5742 182.402C94.6875 182.129 91.1719 180.234 88.8477 177.285L88.8477 177.246C88.8477 177.246 77.6562 162.129 67.4414 162.129L42.0508 162.129C41.875 162.129 41.543 162.129 41.1328 162.188L33.5352 162.188C28.2422 162.188 23.9844 158.145 23.9844 153.184C23.9844 151.309 24.5312 149.629 25.625 148.105L25.6836 148.008L29.4336 141.895L29.5703 141.699C40.8594 126.074 47.0312 107.656 47.8125 86.9141C48.9648 56.9141 60.7617 38.6914 81.0352 35.6445L81.4062 35.6445L86.3086 34.1406L87.9102 30.0977L88.2227 28.5352L88.2812 28.1641L88.2812 27.832C88.2812 22.3828 93.0273 17.9297 98.8281 17.9297L101.211 17.9297C107.012 17.9297 111.758 22.4023 111.758 27.9297L111.758 28.5352L113.906 35.0586L118.711 35.7617C139.238 38.6328 151.133 56.8945 152.227 87.1289C153.008 107.832 159.121 126.191 170.371 141.719L170.469 141.816L174.355 148.066L174.453 148.262L174.629 148.496C175.645 149.863 176.172 151.543 176.172 153.34C176.172 158.281 171.875 162.344 166.621 162.344C162.188 162.344 158.613 165.723 158.613 169.902C158.613 174.082 162.188 177.461 166.621 177.461C180.703 177.461 192.168 166.66 192.168 153.379C192.09 148.613 190.664 144.043 188.105 140.293Z" stroke="rgba(84, 84, 84, 1)" stroke-width="3"      fill="#545454" >
</path>
</svg>
