<svg id="图层_1" data-name="图层 1" xmlns="http://www.w3.org/2000/svg" viewBox="0 0 164 194"><defs><style>.cls-1{fill:none;}</style></defs><title>article</title><path d="M179,27c0-.41-.05-.82-.09-1.24s-.1-.82-.16-1.22-.13-.82-.21-1.22-.17-.81-.27-1.21-.22-.8-.34-1.2-.25-.78-.39-1.17-.29-.77-.45-1.16-.32-.75-.5-1.13-.37-.74-.56-1.1-.4-.73-.62-1.08-.43-.7-.66-1-.47-.68-.72-1-.5-.66-.76-1-.54-.64-.82-.94-.56-.61-.86-.9-.59-.58-.9-.85-.62-.55-.94-.81-.65-.52-1-.76l-1-.72q-.53-.35-1.05-.66L165.58,6c-.36-.19-.73-.38-1.11-.56s-.75-.34-1.14-.5-.77-.3-1.16-.44-.78-.27-1.18-.39l-1.2-.33c-.4-.1-.81-.19-1.21-.27l-1.23-.22c-.41-.06-.82-.11-1.24-.15s-.82-.07-1.24-.09-.83,0-1.24,0H92C49.55,3,15,37.36,15,79.55v97.87c0,.32,0,.64,0,1s0,.64.07,1,.07.64.11,1,.1.63.16.95.13.62.21.94.16.62.26.92.19.62.3.92.22.6.34.9l.39.88c.14.29.29.57.44.86s.31.56.47.84.34.54.52.81.36.53.56.79.39.51.59.76l.63.73c.22.23.44.47.67.69l.7.67c.24.21.48.42.73.62s.51.4.77.6l.79.55c.27.18.54.35.82.51s.55.32.84.48l.86.43.89.38c.3.13.6.24.9.35s.61.21.92.3l.93.25c.32.08.63.15.95.21l.95.16c.32,0,.64.08,1,.11s.65.06,1,.07.64,0,1,0H102c42.42,0,77-34.36,77-76.55V28.23C179,27.81,179,27.4,179,27Zm-12.64,93.46h-.45a62.64,62.64,0,0,1-18.81,44.8A64.4,64.4,0,0,1,102,184H34.39l-.3,0-.3,0-.3-.05-.29-.07-.29-.08-.29-.09-.28-.1-.27-.12-.27-.13-.27-.14-.26-.16-.25-.16-.24-.18-.23-.18-.23-.2L30.1,182l-.2-.23a2.11,2.11,0,0,1-.19-.23l-.18-.25-.16-.25-.15-.27-.14-.27-.12-.27c0-.1-.07-.19-.1-.29l-.09-.29c0-.09-.05-.19-.08-.29s0-.2-.05-.3,0-.2,0-.3,0-.2,0-.3,0-.2,0-.3,0-.2,0-.3V79.55a62.68,62.68,0,0,1,18.8-44.8c11.81-11.3,27.56-18.7,45.05-18.7h61.66a12.21,12.21,0,0,1,8.74,3.48,12.07,12.07,0,0,1,3.51,8.7Z" transform="translate(-15 -3)"/><path d="M162.82,19.53a12.21,12.21,0,0,0-8.74-3.48H92.42c-17.49,0-33.24,7.4-45.05,18.7a62.68,62.68,0,0,0-18.8,44.8v98.31c0,.1,0,.2,0,.3s0,.2,0,.3,0,.2,0,.3,0,.2,0,.3,0,.2.05.3,0,.2.08.29l.09.29c0,.1.07.19.1.29l.12.27.14.27.15.27.16.25.18.25a2.11,2.11,0,0,0,.19.23l.2.23.22.21.23.2.23.18.24.18.25.16.26.16.27.14.27.13.27.12.28.1.29.09.29.08.29.07.3.05.3,0,.3,0H102a64.4,64.4,0,0,0,45.05-18.7,62.64,62.64,0,0,0,18.81-44.8h.45V28.23A12.07,12.07,0,0,0,162.82,19.53ZM55.4,77.54a1.53,1.53,0,0,1,0-.3c0-.1,0-.2,0-.3l.06-.3c0-.1,0-.2.07-.3s0-.19.08-.29.07-.19.1-.28l.12-.29.12-.27.14-.27.15-.27.17-.25a2.2,2.2,0,0,1,.17-.25l.19-.24.2-.23.21-.22.22-.21.23-.2.24-.19.25-.17.25-.17.26-.15.27-.14.28-.12.28-.12.29-.1.29-.08.29-.08.3,0,.3,0,.31,0H96.38l.3,0,.31,0,.29,0,.3.08.29.08.29.1.28.11.28.13.27.14.26.15.26.17.24.17a2.51,2.51,0,0,1,.24.19l.23.2.22.21.21.22a2.2,2.2,0,0,1,.2.23l.19.24.18.25c0,.08.11.16.16.25l.15.26c0,.09.1.18.14.27l.13.28c0,.09.08.19.11.28s.07.19.1.29l.09.29c0,.1.05.2.07.3l.06.3c0,.1,0,.2,0,.3l0,.3c0,.1,0,.2,0,.3s0,.21,0,.31l0,.3c0,.1,0,.2,0,.3l-.06.3c0,.1,0,.2-.07.29l-.09.3c0,.09-.06.19-.1.28a2.33,2.33,0,0,1-.11.28,2.39,2.39,0,0,1-.13.28c0,.09-.09.18-.14.27l-.15.26-.16.26-.18.25-.19.24-.2.23-.21.22a2.09,2.09,0,0,1-.22.2l-.23.2-.24.19-.24.18-.26.16-.26.15-.27.14-.28.13-.28.11-.29.1-.29.09-.3.07L97,84l-.31,0-.3,0H61.61a6.38,6.38,0,0,1-6.23-6.23C55.39,77.74,55.39,77.64,55.4,77.54ZM138,123.42l0,.3c0,.1,0,.2,0,.3l-.06.3c0,.1,0,.19-.07.29l-.09.29c0,.1-.06.19-.1.29s-.07.19-.11.28-.08.19-.13.28-.09.18-.14.27a1.74,1.74,0,0,1-.15.26,2.13,2.13,0,0,1-.16.25l-.18.25-.18.24-.2.23-.21.22-.22.21-.23.2-.24.19-.25.17-.25.17-.27.15-.27.14-.27.12-.28.12-.29.1-.29.08-.3.07-.29.06-.31.05-.3,0-.3,0H61.61a6.38,6.38,0,0,1-6.23-6.23c0-.1,0-.2,0-.3a1.53,1.53,0,0,1,0-.3c0-.1,0-.2,0-.3l.06-.3c0-.1,0-.2.07-.3s0-.19.08-.29a2.47,2.47,0,0,0,.1-.29l.12-.28.12-.27.14-.27.15-.27.17-.25a2.2,2.2,0,0,1,.17-.25l.19-.24L57,119l.21-.22.22-.21.23-.2.24-.19.25-.17.25-.17.26-.15.27-.14.28-.12.28-.12.29-.1.29-.08.29-.08.3,0,.3,0,.31,0H132.1l.31,0,.3,0,.3,0,.29.08.29.08.29.1.28.12.28.12.27.14.26.15.25.17.25.17.24.19.23.2.22.21.21.22.2.23.19.24a2.2,2.2,0,0,1,.17.25l.17.25.15.27.14.27.12.27c0,.1.08.19.11.28s.07.2.11.29.05.2.08.29.05.2.07.3l.06.3c0,.1,0,.2,0,.3l0,.3c0,.1,0,.2,0,.3S138,123.32,138,123.42Z" transform="translate(-15 -3)"/><path class="cls-1" d="M138,123.11c0,.1,0,.21,0,.31l0,.3c0,.1,0,.2,0,.3l-.06.3c0,.1,0,.19-.07.29l-.09.29c0,.1-.06.19-.1.29s-.07.19-.11.28-.08.19-.13.28-.09.18-.14.27a1.74,1.74,0,0,1-.15.26,2.13,2.13,0,0,1-.16.25l-.18.25-.18.24-.2.23-.21.22-.22.21-.23.2-.24.19-.25.17-.25.17-.27.15-.27.14-.27.12-.28.12-.29.1-.29.08-.3.07-.29.06-.31.05-.3,0-.3,0H61.61a6.38,6.38,0,0,1-6.23-6.23c0-.1,0-.2,0-.3a1.53,1.53,0,0,1,0-.3c0-.1,0-.2,0-.3l.06-.3c0-.1,0-.2.07-.3s0-.19.08-.29a2.47,2.47,0,0,0,.1-.29l.12-.28.12-.27.14-.27.15-.27.17-.25a2.2,2.2,0,0,1,.17-.25l.19-.24L57,119l.21-.22.22-.21.23-.2.24-.19.25-.17.25-.17.26-.15.27-.14.28-.12.28-.12.29-.1.29-.08.29-.08.3,0,.3,0,.31,0H132.1l.31,0,.3,0,.3,0,.29.08.29.08.29.1.28.12.28.12.27.14.26.15.25.17.25.17.24.19.23.2.22.21.21.22.2.23.19.24a2.2,2.2,0,0,1,.17.25l.17.25.15.27.14.27.12.27c0,.1.08.19.11.28s.07.2.11.29.05.2.08.29.05.2.07.3l.06.3c0,.1,0,.2,0,.3l0,.3C138,122.91,138,123,138,123.11Z" transform="translate(-15 -3)"/><path class="cls-1" d="M102.31,77.84c0,.11,0,.21,0,.31l0,.3c0,.1,0,.2,0,.3l-.06.3c0,.1,0,.2-.07.29l-.09.3c0,.09-.06.19-.1.28a2.33,2.33,0,0,1-.11.28,2.39,2.39,0,0,1-.13.28c0,.09-.09.18-.14.27l-.15.26-.16.26-.18.25-.19.24-.2.23-.21.22a2.09,2.09,0,0,1-.22.2l-.23.2-.24.19-.24.18-.26.16-.26.15-.27.14-.28.13-.28.11-.29.1-.29.09-.3.07L97,84l-.31,0-.3,0H61.61a6.38,6.38,0,0,1-6.23-6.23c0-.1,0-.2,0-.3a1.53,1.53,0,0,1,0-.3c0-.1,0-.2,0-.3l.06-.3c0-.1,0-.2.07-.3s0-.19.08-.29.07-.19.1-.28l.12-.29.12-.27.14-.27.15-.27.17-.25a2.2,2.2,0,0,1,.17-.25l.19-.24.2-.23.21-.22.22-.21.23-.2.24-.19.25-.17.25-.17.26-.15.27-.14.28-.12.28-.12.29-.1.29-.08.29-.08.3,0,.3,0,.31,0H96.38l.3,0,.31,0,.29,0,.3.08.29.08.29.1.28.11.28.13.27.14.26.15.26.17.24.17a2.51,2.51,0,0,1,.24.19l.23.2.22.21.21.22a2.2,2.2,0,0,1,.2.23l.19.24.18.25c0,.08.11.16.16.25l.15.26c0,.09.1.18.14.27l.13.28c0,.09.08.19.11.28s.07.19.1.29l.09.29c0,.1.05.2.07.3l.06.3c0,.1,0,.2,0,.3l0,.3C102.31,77.64,102.31,77.74,102.31,77.84Z" transform="translate(-15 -3)"/></svg>