<svg id="图层_1" data-name="图层 1" xmlns="http://www.w3.org/2000/svg" viewBox="0 0 181.66 155.3"><defs><style>.cls-1{fill:none;}</style></defs><title>file</title><path d="M191.27,75.3c0-.49-.06-1-.11-1.46s-.11-1-.18-1.45-.16-1-.25-1.44-.2-1-.32-1.42-.25-.94-.39-1.41-.3-.93-.46-1.38-.34-.92-.53-1.37-.38-.89-.59-1.33-.43-.88-.66-1.3-.47-.86-.72-1.28-.51-.82-.78-1.23-.55-.8-.84-1.19-.59-.78-.9-1.15-.63-.75-.95-1.11-.66-.71-1-1.06-.7-.68-1.06-1-.73-.65-1.1-1-.76-.61-1.15-.9-.79-.57-1.2-.84-.81-.53-1.23-.78-.84-.49-1.27-.72-.86-.45-1.31-.66l-1.33-.59c-.45-.18-.9-.36-1.36-.52s-.92-.32-1.39-.46-.93-.28-1.41-.39-.94-.23-1.42-.33l-1.44-.25c-.48-.07-1-.13-1.45-.18s-1-.08-1.45-.1-1,0-1.46,0H106.22l-.28,0-.27,0-.26-.07-.26-.1-.24-.13-.23-.14-.22-.17-.19-.2L88.09,28.41l-.28-.3-.28-.28-.29-.28-.3-.27-.3-.27-.31-.25L86,26.51l-.32-.24L85.36,26,85,25.82l-.34-.21-.35-.21L84,25.21,83.64,25l-.36-.17-.37-.17-.37-.16-.37-.14-.38-.14-.38-.13L81,24l-.39-.11-.39-.1-.39-.08-.39-.08-.4-.07-.4-.06-.4,0-.39,0-.41,0H39.41c-.48,0-1,0-1.46,0s-1,.06-1.45.11-1,.1-1.45.18-1,.15-1.44.25-1,.2-1.42.32-.95.25-1.41.39-.93.29-1.39.46-.91.34-1.36.52-.89.39-1.34.6-.87.42-1.3.65-.85.47-1.27.72-.83.51-1.23.79-.81.55-1.2.84-.77.59-1.15.9-.74.62-1.1.95-.72.66-1.06,1-.68.69-1,1-.64.73-.95,1.11-.61.76-.9,1.15-.57.79-.84,1.19-.53.82-.78,1.24-.49.84-.72,1.27-.45.86-.66,1.3-.41.89-.59,1.34-.36.9-.53,1.36-.32.92-.46,1.39-.27.93-.39,1.4-.22,1-.32,1.43-.18,1-.25,1.44-.13,1-.18,1.44-.08,1-.11,1.46,0,1,0,1.46v95.77c0,.48,0,1,0,1.46s.06,1,.11,1.45.11,1,.18,1.45.15,1,.25,1.44.2.95.32,1.43.25.94.39,1.4.29.93.46,1.39.34.91.52,1.36.39.9.6,1.34.42.87.65,1.3.47.86.72,1.27.51.83.78,1.24.56.8.85,1.19.59.78.89,1.15.63.75,1,1.11.66.71,1,1.06.69.68,1.05,1,.73.65,1.11,1,.76.61,1.15.9.79.57,1.19.84.82.53,1.24.78.84.49,1.27.72.86.45,1.3.66.89.41,1.34.59.9.36,1.36.53.92.32,1.39.46.93.27,1.4.39,1,.22,1.43.32,1,.18,1.44.25,1,.13,1.45.18,1,.08,1.45.11,1,0,1.46,0H161.52c.49,0,1,0,1.47,0s1-.06,1.45-.11,1-.11,1.45-.18,1-.15,1.44-.25,1-.2,1.43-.32l1.41-.39c.46-.14.93-.29,1.38-.46s.92-.34,1.37-.53.89-.38,1.33-.59l1.31-.65c.43-.23.85-.47,1.27-.73s.83-.51,1.23-.78.81-.55,1.2-.84.77-.59,1.15-.9.74-.62,1.11-.95.71-.66,1-1,.68-.7,1-1.06.65-.73,1-1.1.61-.76.9-1.15.57-.79.84-1.2.53-.81.78-1.23.49-.84.72-1.27.45-.87.66-1.31.4-.88.59-1.33.36-.91.53-1.37.32-.92.46-1.38.27-.94.39-1.41.22-1,.32-1.43.18-.95.25-1.44.13-1,.18-1.45.08-1,.11-1.45,0-1,0-1.46V76.76C191.31,76.27,191.29,75.78,191.27,75.3Zm-12.78,73.59c0,.27,0,.55,0,.83s0,.55-.06.83-.06.55-.1.82-.09.55-.14.82-.12.55-.19.82-.14.53-.22.8-.17.53-.26.79-.2.52-.3.77-.22.51-.34.77-.24.49-.37.74-.27.48-.41.72l-.45.71c-.15.23-.31.45-.48.68s-.33.44-.51.65-.36.43-.54.63-.38.41-.58.61l-.6.57-.63.54c-.21.18-.43.35-.66.52l-.68.48c-.23.15-.46.3-.7.44l-.72.41-.75.38-.76.34-.77.3-.79.26-.8.22-.82.19-.82.14-.82.1-.83.06-.84,0H39.41l-.83,0-.83-.07c-.28,0-.55-.06-.83-.1l-.82-.14-.81-.19c-.27-.06-.53-.14-.8-.22l-.79-.26-.78-.3-.76-.34-.74-.37-.72-.41L30,163c-.23-.15-.46-.31-.68-.48l-.65-.51c-.22-.18-.43-.36-.63-.55s-.41-.37-.61-.57l-.57-.6q-.29-.32-.54-.63l-.52-.66-.48-.68-.44-.7c-.14-.24-.28-.48-.41-.73s-.26-.49-.38-.74-.23-.51-.33-.76-.21-.52-.3-.78-.18-.53-.26-.79-.16-.53-.23-.8l-.18-.82c-.05-.27-.1-.54-.14-.82s-.08-.55-.1-.82-.05-.55-.07-.83,0-.56,0-.83V53.12c0-.28,0-.55,0-.83s0-.56.07-.83.06-.55.1-.83.09-.54.14-.82.12-.54.19-.81.14-.54.22-.8.17-.53.26-.79.19-.52.3-.78.22-.51.34-.76.24-.5.37-.74.27-.49.41-.72.29-.48.45-.71.31-.45.48-.68.33-.44.51-.65.36-.43.54-.63.38-.41.58-.61l.6-.57q.31-.29.63-.54c.21-.18.43-.35.66-.52L30,39c.23-.16.46-.31.7-.45l.72-.41.75-.38c.25-.11.5-.23.76-.33s.51-.21.77-.3.53-.18.79-.26.54-.16.8-.23.54-.13.82-.18l.82-.14.82-.11.83-.06.83,0,37.3,0,.28,0,.27,0,.27.07.25.1.25.12.23.15.21.17a1.89,1.89,0,0,1,.2.2L94.78,54.75l.28.3.28.28.29.28.3.27.3.26.31.26.32.24.32.24.33.23.33.22.34.22.35.2.35.2.36.18.36.18.36.16.37.16.37.15.38.14.38.13.38.11.39.11.39.1.39.09.39.08.4.07.4,0,.4.05.4,0,.39,0h56.13l.84,0,.83.06.82.1c.28,0,.55.09.82.15s.55.11.81.18l.81.22.79.26.77.3.76.34.75.38c.24.13.48.26.72.41s.47.29.7.44l.68.48.66.51.63.55c.21.18.41.38.6.57l.58.6.54.63c.17.22.35.44.51.66s.33.45.48.68l.45.7c.14.24.28.48.41.73s.25.49.37.74.23.5.34.76.21.52.3.78.18.52.26.79.15.53.22.8.13.54.19.81.1.55.14.82.07.55.1.83,0,.55.06.83,0,.55,0,.83Z" transform="translate(-9.65 -23.36)"/><path d="M178.46,75.93s-.16-1.8-.3-2.48l0-.11c0-.14-.09-.39-.17-.7s-.14-.54-.22-.8-.17-.53-.26-.79-.2-.52-.3-.78-.22-.51-.34-.76-.24-.5-.37-.74-.39-.74-.41-.73,1.38,3,1.42,3a41.59,41.59,0,0,0-2.35-4.39c-.25-.34-.51-.66-.51-.66l-.54-.63-.58-.6c-.19-.19-.39-.39-.6-.57l-.63-.55-.66-.51-.68-.48c-.23-.15-.46-.3-.7-.44s-.48-.28-.72-.41l-.75-.38-.76-.34-.77-.3-.79-.26-.81-.22c-.26-.07-.54-.13-.81-.18S164.29,60,164,60l-.82-.1c-.64-.07-.73,0-.83-.06-.35-.1-.67-.88-.47-4l-54.45-.67c-.91,3.74-1.28,4.69-1.44,4.69h-.61l-.39,0-.4,0-.4-.05-.4,0-.4-.07-.39-.08-.39-.09-.39-.1-.39-.11-.38-.11-.38-.13-.38-.14-.37-.15-.37-.16-.36-.16-.36-.18L98.88,58l-.35-.2-.35-.2-.34-.22-.33-.22-.33-.23-.32-.24-.32-.24-.31-.26-.3-.26-.3-.27-.29-.28-.28-.28-.28-.3L78.67,37.07a1.89,1.89,0,0,0-.2-.2l-.21-.17L78,36.55l-.25-.12-.25-.1-.27-.07a2,2,0,0,0-.27,0c-.27-.08,0-1.84,0-2.22-.12-3.69-34.07-2.73-35.78.45,0,0-.89,1.67-1.81,1.71-.09,0-.36,0-.83,0l-.83.06-.82.11-.82.14c-.28,0-.55.12-.82.18s-.53.14-.8.23-.53.16-.79.26-.52.19-.77.3-.51.22-.76.33l-.75.38-.72.41c-.24.14-.47.29-.7.45l-.68.47c-.23.17-.45.34-.66.52s-.42.35-.63.54l-.6.57c-.2.2-.39.4-.58.61s-.36.41-.54.63-.35.43-.51.65-.33.45-.48.68-.3.47-.45.71-.28.47-.41.72-.25.49-.37.74-.23.51-.34.76-.21.52-.3.78-.18.52-.26.79-.16.53-.22.8-.13.54-.19.81-.1.55-.14.82-.08.55-.1.83c0,.46-.07.79-.07.83,0,.42-.76,1.22-3.69,2.82-.92,76.06,0,94.32,1.11,94.45,0,0,2.27.25,2.65,1v0c0,.07,0,.16.09.8,0,.28.09.55.14.82L23,153c.07.27.15.53.23.8s.16.53.26.79.19.52.3.78.22.51.33.76.25.5.38.74.27.49.41.73l.44.7.48.68.52.66q.26.32.54.63l.57.6c.2.2.4.39.61.57s.41.37.63.55l.65.51c.22.17.45.33.68.48l.71.45.72.41.74.37.76.34.78.3.79.26c.27.08.53.16.8.22l.81.19.82.14c.28,0,.55.08.83.1l.83.07c.41,0,1,.63,2,3l119.11,1.33c1.74-2.78,2.72-4.37,2.69-4.39s-2.65,4.42-2.69,4.39,3.23-4.39,4.34-4.55c0,0,.37,0,.82-.14l.82-.19.8-.22.79-.26.77-.3.76-.34.75-.38.72-.41c.24-.14.47-.29.7-.44l.68-.48c.23-.17.45-.34.66-.52l.63-.54.6-.57c.2-.2.39-.4.58-.61s.36-.41.54-.63.35-.43.51-.65.33-.45.48-.68l.45-.71c.14-.24.28-.48.41-.72s.25-.49.37-.74.23-.51.34-.77.21-.51.3-.77.18-.53.26-.79.15-.54.22-.8.13-.54.19-.82.1-.54.14-.82.07-.55.1-.82c0-.46.06-.79.06-.83.06-.9,4.5-2.31,5.21-2.61C191.36,143.87,178.48,76,178.46,75.93ZM100,122.71l0,.32c0,.1,0,.21,0,.31s0,.21,0,.31,0,.2-.07.31-.05.2-.08.3-.06.2-.1.3l-.11.29c0,.1-.09.19-.13.29s-.09.19-.14.28-.1.18-.16.27l-.16.27c-.06.08-.12.17-.19.25a2.35,2.35,0,0,1-.19.25l-.2.24-.22.23-.23.21-.24.21-.24.19-.26.18-.27.17c-.09,0-.18.11-.27.15l-.28.15-.29.12-.29.12-.3.09-.3.09-.31.07-.31,0-.31,0-.31,0H48.09l-.32,0-.31,0-.31,0-.31-.07-.3-.09-.3-.09-.29-.12-.29-.12-.28-.15c-.09,0-.18-.1-.27-.15l-.27-.17-.25-.18-.25-.19-.24-.21-.23-.21-.21-.23-.21-.24c-.06-.08-.13-.16-.19-.25l-.18-.25c-.06-.09-.12-.18-.17-.27l-.15-.27-.15-.28-.12-.29-.12-.29-.09-.3-.09-.3c0-.11,0-.21-.07-.31s0-.21,0-.31,0-.21,0-.31,0-.21,0-.32,0-.2,0-.31,0-.21,0-.31,0-.21,0-.32,0-.2,0-.31,0-.21,0-.31.05-.2.07-.3l.09-.31.09-.3.12-.29.12-.29.15-.28.15-.27c.05-.09.11-.18.17-.27l.18-.25c.06-.09.13-.17.19-.25l.21-.24.21-.22.23-.22.24-.21.25-.19.25-.18.27-.17.27-.15.28-.15.29-.12.29-.12.3-.09.3-.09.31-.07.31-.05.31,0,.32,0H93.9l.31,0,.31,0,.31.05.31.07.3.09.3.09.29.12.29.12.28.15.27.15.27.17.26.18.24.19.24.21a2.39,2.39,0,0,1,.23.22l.22.22.2.24a2.35,2.35,0,0,1,.19.25c.07.08.13.17.19.25l.16.27c.06.09.11.18.16.27s.09.19.14.28.09.19.13.29.07.2.11.29.07.2.1.3a2.81,2.81,0,0,1,.08.31c0,.1,0,.2.07.3s0,.21,0,.31,0,.21,0,.31l0,.32Z" transform="translate(-9.65 -23.36)"/><path class="cls-1" d="M100,122.09v.62l0,.32c0,.1,0,.21,0,.31s0,.21,0,.31,0,.2-.07.31-.05.2-.08.3-.06.2-.1.3l-.11.29c0,.1-.09.19-.13.29s-.09.19-.14.28-.1.18-.16.27l-.16.27c-.06.08-.12.17-.19.25a2.35,2.35,0,0,1-.19.25l-.2.24-.22.23-.23.21-.24.21-.24.19-.26.18-.27.17c-.09,0-.18.11-.27.15l-.28.15-.29.12-.29.12-.3.09-.3.09-.31.07-.31,0-.31,0-.31,0H48.09l-.32,0-.31,0-.31,0-.31-.07-.3-.09-.3-.09-.29-.12-.29-.12-.28-.15c-.09,0-.18-.1-.27-.15l-.27-.17-.25-.18-.25-.19-.24-.21-.23-.21-.21-.23-.21-.24c-.06-.08-.13-.16-.19-.25l-.18-.25c-.06-.09-.12-.18-.17-.27l-.15-.27-.15-.28-.12-.29-.12-.29-.09-.3-.09-.3c0-.11,0-.21-.07-.31s0-.21,0-.31,0-.21,0-.31,0-.21,0-.32,0-.2,0-.31,0-.21,0-.31,0-.21,0-.32,0-.2,0-.31,0-.21,0-.31.05-.2.07-.3l.09-.31.09-.3.12-.29.12-.29.15-.28.15-.27c.05-.09.11-.18.17-.27l.18-.25c.06-.09.13-.17.19-.25l.21-.24.21-.22.23-.22.24-.21.25-.19.25-.18.27-.17.27-.15.28-.15.29-.12.29-.12.3-.09.3-.09.31-.07.31-.05.31,0,.32,0H93.9l.31,0,.31,0,.31.05.31.07.3.09.3.09.29.12.29.12.28.15.27.15.27.17.26.18.24.19.24.21a2.39,2.39,0,0,1,.23.22l.22.22.2.24a2.35,2.35,0,0,1,.19.25c.07.08.13.17.19.25l.16.27c.06.09.11.18.16.27s.09.19.14.28.09.19.13.29.07.2.11.29.07.2.1.3a2.81,2.81,0,0,1,.08.31c0,.1,0,.2.07.3s0,.21,0,.31,0,.21,0,.31Z" transform="translate(-9.65 -23.36)"/></svg>