<svg id="图层_1" data-name="图层 1" xmlns="http://www.w3.org/2000/svg" viewBox="0 0 162 159"><defs><style>.cls-1{fill:none;}</style></defs><title>home</title><path class="cls-1" d="M129.54,178.19c0-.61-.09-1.21-.16-1.81s-.17-1.19-.28-1.78v0c-.11-.59-.24-1.18-.38-1.77s-.32-1.17-.5-1.75-.38-1.15-.6-1.71-.45-1.13-.7-1.68-.52-1.09-.81-1.62-.59-1.06-.9-1.58-.65-1-1-1.52-.71-1-1.09-1.45-.77-.93-1.18-1.38-.83-.89-1.26-1.31-.88-.83-1.34-1.23-.93-.77-1.41-1.14-1-.72-1.48-1.06-1-.65-1.54-1-1-.59-1.59-.86-1.09-.53-1.65-.77-1.12-.46-1.69-.66-1.15-.4-1.73-.56-1.17-.32-1.76-.46-1.18-.24-1.78-.34-1.2-.17-1.8-.23-1.21-.1-1.81-.13-1.21,0-1.82,0-1.21,0-1.81.1-1.21.13-1.81.21-1.19.2-1.78.33-1.18.27-1.77.43-1.16.34-1.73.54-1.14.41-1.7.64h0l-1,.43-1,.48-1,.5c-.32.18-.64.36-1,.55s-.62.38-.92.57-.61.41-.91.62-.59.42-.87.64-.58.44-.86.68-.56.46-.83.7l-.8.74c-.27.25-.52.5-.78.76s-.5.53-.74.8-.49.54-.72.82l-.69.85c-.22.28-.44.57-.65.87s-.42.59-.62.89-.4.61-.59.92-.38.62-.56.94-.35.63-.52,1l-.48,1c-.16.33-.3.66-.45,1s-.28.67-.41,1-.25.68-.37,1-.23.69-.34,1-.2.69-.29,1.05-.18.7-.26,1-.15.71-.22,1.07v0c-.07.35-.13.71-.18,1.06s-.1.72-.14,1.08-.07.72-.1,1.08,0,.73-.06,1.09,0,.73,0,1.09v5.6h59.2V180C129.6,179.39,129.58,178.79,129.54,178.19ZM82.47,174.4c.08-.23.15-.46.24-.69s.17-.45.26-.67.18-.45.29-.67.2-.44.31-.65.22-.43.34-.64l.36-.63.39-.61c.13-.21.27-.4.41-.6s.29-.39.44-.58.3-.38.46-.56.31-.37.48-.55L87,167c.17-.17.34-.34.52-.5L88,166c.18-.16.37-.31.56-.46s.38-.3.58-.44l.59-.42.61-.39L91,164l.64-.34.65-.32.66-.29.68-.26c.22-.09.45-.17.68-.24s.46-.15.7-.21l.7-.19c.23-.05.47-.11.71-.15l.71-.13.72-.1.72-.07.72,0H100l.72,0c.24,0,.49,0,.73,0l.72.07.72.1.71.13.71.15.7.19.69.21.69.24.67.26c.23.1.45.19.67.3l.65.31.64.35.62.36.61.4.6.41.57.44.56.46c.19.16.37.32.54.49s.35.33.52.5.34.35.5.53.33.36.48.54.31.37.46.56l.44.58.41.6.39.61.36.63c.12.21.23.42.34.64s.21.43.32.65.19.44.28.67.18.45.26.67.16.46.24.69Z" transform="translate(-18 -27)"/><path d="M176.32,84c-.55-1.28-1.13-2.54-1.78-3.77-4.45-8.41-12-14.49-24.32-24.49l-1-.83-.26-.21c-10.39-8.41-18.53-15-25.62-19.56-7.26-4.67-13.89-7.52-21.29-8a47,47,0,0,0-6,0c-7.4.52-14,3.37-21.28,8C67.6,39.7,59.45,46.29,49.07,54.7l-.26.21-1,.83c-12.35,10-19.87,16.08-24.32,24.49-.65,1.23-1.24,2.49-1.78,3.77C18,92.79,18,102.62,18,118.74v13.14C18,143,18,152,18.92,159c.95,7.28,3,13.35,7.69,18.16s10.61,6.9,17.72,7.88c6.85.94,15.59.94,26.47.94h56.4c10.88,0,19.61,0,26.47-.94,7.1-1,13-3.07,17.72-7.88s6.74-10.88,7.69-18.17c.92-7,.92-16,.92-27.13V118.74C180,102.62,180,92.79,176.32,84Zm-7.44,47.45c0,11.68,0,19.86-.82,26.05-.8,6-2.24,9.28-4.53,11.62s-5.46,3.83-11.34,4.64c-5.61.77-12.92.83-23.09.84H70.9c-11.23,0-19.12,0-25.1-.84s-9.06-2.3-11.35-4.64-3.73-5.61-4.52-11.62c-.81-6.18-.83-14.37-.83-26.05V120.09c0-17.91.11-25.22,2.78-31.59.41-1,.86-1.91,1.35-2.83C36.45,79.56,42,75,55.69,63.85,66.39,55.19,74.07,49,80.6,44.8s11.23-6,16.12-6.32a31.55,31.55,0,0,1,4.56,0c4.88.33,9.7,2.19,16.12,6.32s14.2,10.39,24.9,19.05C156,75,161.54,79.56,164.75,85.66c.49.92.94,1.87,1.35,2.84,2.68,6.37,2.78,13.68,2.78,31.59Z" transform="translate(-18 -27)"/><path d="M170.78,118.77v11.64c0,12,0,20.34-.84,26.68-.83,6.15-2.3,9.5-4.66,11.9s-5.6,3.92-11.64,4.75c-5.76.79-13.27.85-23.72.86v0c-.11-.6-.24-1.21-.39-1.81s-.33-1.2-.51-1.8-.39-1.17-.62-1.75-.46-1.15-.72-1.72-.53-1.11-.83-1.66-.6-1.08-.92-1.61-.67-1-1-1.56-.73-1-1.12-1.49-.79-1-1.21-1.41-.85-.91-1.29-1.34-.91-.85-1.38-1.26-1-.79-1.45-1.17-1-.74-1.52-1.08-1-.67-1.58-1-1.08-.6-1.63-.88-1.12-.54-1.7-.79-1.15-.47-1.73-.67-1.18-.41-1.78-.58-1.2-.32-1.81-.47-1.21-.24-1.83-.35S103.64,150,103,150s-1.25-.1-1.86-.13-1.25,0-1.87,0-1.24.05-1.86.1-1.24.13-1.86.21-1.22.21-1.83.34-1.21.28-1.82.44-1.19.35-1.77.55-1.17.42-1.75.66h0l-1,.44-1,.49-1,.51c-.33.19-.66.37-1,.57s-.64.39-1,.58-.63.42-.93.64-.61.43-.9.65-.59.45-.88.7-.58.47-.85.72-.56.5-.82.75l-.81.78c-.25.27-.51.54-.76.82s-.5.55-.73.84-.48.57-.71.87-.46.58-.67.89-.43.61-.64.91-.41.63-.6.95-.39.63-.58,1-.36.64-.53,1l-.5,1c-.16.34-.3.68-.46,1s-.29.68-.42,1-.26.7-.38,1.05-.23.7-.35,1.06-.2.71-.3,1.08-.18.72-.26,1.07-.16.73-.23,1.1v0c-11.53,0-19.64,0-25.78-.86s-9.3-2.36-11.65-4.75-3.83-5.75-4.65-11.9c-.83-6.33-.85-14.72-.85-26.68V118.77c0-18.34.12-25.82,2.86-32.35.42-1,.88-2,1.38-2.9,3.31-6.25,9-11,23.07-22.34,11-8.87,18.88-15.22,25.58-19.51s11.54-6.14,16.56-6.47a30.46,30.46,0,0,1,4.68,0c5,.33,10,2.24,16.56,6.47s14.58,10.64,25.57,19.51c14.09,11.37,19.76,16.09,23.06,22.33q.75,1.42,1.38,2.91C170.68,93,170.78,100.43,170.78,118.77Z" transform="translate(-18 -27)"/></svg>