<svg id="图层_1" data-name="图层 1" xmlns="http://www.w3.org/2000/svg" viewBox="0 0 186.66 177.78"><defs><style>.cls-1{fill:none;}</style></defs><title>todo</title><path class="cls-1" d="M140,77.62V78c0,.13,0,.27,0,.41s0,.27,0,.41l-.06.41c0,.13,0,.27-.08.4s-.06.27-.1.4l-.12.4c0,.13-.08.26-.13.39l-.15.38-.17.38c-.06.12-.12.24-.19.36a3.07,3.07,0,0,1-.2.36l-.22.35-.24.34-.48.6L98.87,128.07c-.09.11-.19.21-.28.31l-.3.3L98,129l-.32.27-.34.25-.35.23-.36.22-.37.2a3.26,3.26,0,0,1-.38.18l-.39.17-.39.15-.4.12-.41.11-.41.09-.42.07-.42,0-.42,0h-.42l-.42,0a3,3,0,0,1-.42,0l-.42-.05-.41-.07a2.71,2.71,0,0,1-.41-.09l-.41-.11-.4-.12-.4-.15-.38-.17c-.13-.05-.26-.12-.38-.18s-.25-.13-.37-.2l-.36-.22c-.12-.08-.24-.15-.35-.24l-.34-.25-.56-.48-23.3-21.64-.3-.29-.29-.31-.28-.33-.25-.33a3.64,3.64,0,0,1-.24-.35c-.08-.12-.16-.24-.23-.36l-.21-.37c-.06-.13-.13-.25-.19-.38l-.17-.39-.15-.39c-.05-.14-.09-.27-.13-.41l-.12-.4-.09-.42c0-.14,0-.28-.08-.42s0-.28,0-.42,0-.28,0-.42,0-.28,0-.42,0-.28,0-.43,0-.28,0-.42,0-.28.05-.42l.06-.42.09-.41c0-.14.07-.28.11-.41s.08-.28.12-.41.09-.27.15-.4.1-.26.16-.39l.18-.38c.06-.13.13-.25.2-.38s.14-.24.22-.36.15-.24.23-.35.17-.23.25-.34l.27-.33.28-.32.3-.3c.1-.1.2-.2.31-.29l.32-.27.34-.26.35-.24.36-.22c.12-.08.25-.14.37-.21l.38-.19.39-.17.4-.15.4-.13.41-.11.41-.1.42-.07.42,0,.42,0h.85l.42,0,.42,0,.42.07.42.09.41.1.4.13.4.14.39.17.38.18c.13.06.25.13.37.2l.37.22.35.24.34.25.59.5,16.59,15.4,32.89-37.55.3-.32c.1-.11.2-.21.31-.31l.32-.29.34-.27.35-.26.37-.24c.12-.08.25-.15.38-.22l.38-.21.4-.18.4-.17.41-.14c.14,0,.28-.09.42-.12l.43-.11.43-.08.43-.06.43,0,.44,0h.44l.43,0,.43,0,.44.06.42.09.43.11.41.13.41.15.4.17.4.19.38.21c.13.07.25.15.37.23s.25.16.37.24l.34.26.34.28.3.28c.1.1.2.19.29.29s.19.21.28.31a4,4,0,0,1,.26.32l.25.33a4,4,0,0,1,.23.34l.22.35.2.36.18.37c.06.13.11.25.16.38s.1.26.15.39.09.26.13.39.08.26.11.39l.09.41c0,.13.05.27.08.4s0,.27,0,.41,0,.27,0,.41S140,77.49,140,77.62Z" transform="translate(-6.67 -6.66)"/><path d="M188.72,41.36A32,32,0,0,0,175,28.7c-6.41-3.16-12.56-4.26-24.74-4.26h-1.37V15.55c0-.15,0-.29,0-.44l0-.43-.06-.43c0-.15,0-.29-.07-.43s-.06-.29-.1-.43-.07-.28-.11-.42-.09-.28-.14-.41-.1-.28-.16-.41-.11-.27-.17-.4l-.2-.39c-.07-.13-.14-.26-.22-.38l-.23-.37-.25-.36-.27-.34-.28-.33-.3-.32L146,9l-.33-.28-.35-.27c-.11-.09-.23-.17-.35-.25s-.24-.16-.37-.23-.25-.15-.38-.22l-.39-.2-.4-.17L143,7.18,142.58,7l-.42-.11-.43-.1-.43-.07-.43-.06-.43,0h-.88l-.43,0-.43.06-.43.07-.43.1-.42.11-.41.14-.41.16-.4.17-.39.2c-.13.07-.26.14-.38.22s-.25.15-.37.23-.24.16-.35.25l-.35.27L134,9l-.32.3-.3.32-.28.33-.27.34-.25.36-.23.37c-.08.12-.15.25-.22.38l-.2.39c-.06.13-.12.26-.17.4s-.11.27-.16.41-.09.27-.14.41-.08.28-.11.42-.07.28-.1.43-.05.28-.07.43l-.06.43,0,.43c0,.15,0,.29,0,.44v8.89H68.89V15.55c0-.15,0-.29,0-.44l0-.43-.06-.43c0-.15,0-.29-.07-.43s-.06-.29-.1-.43-.07-.28-.11-.42-.09-.28-.14-.41-.1-.28-.16-.41-.11-.27-.17-.4l-.2-.39c-.07-.13-.14-.26-.22-.38l-.23-.37-.25-.36-.27-.34-.28-.33-.3-.32L66,9l-.33-.28-.34-.27-.36-.25-.37-.23c-.12-.08-.25-.15-.38-.22l-.39-.2-.4-.17L63,7.18,62.58,7l-.42-.11-.43-.1-.43-.07-.43-.06-.43,0h-.88l-.43,0-.43.06-.43.07-.43.1L57.42,7,57,7.18l-.41.16-.4.17-.39.2-.38.22-.37.23c-.12.08-.24.16-.35.25l-.35.27L54,9l-.32.3-.3.32-.28.33-.27.34-.25.36-.23.37c-.08.12-.15.25-.22.38l-.2.39c-.06.13-.12.26-.17.4s-.11.27-.16.41-.09.27-.14.41-.08.28-.11.42-.07.28-.1.43-.05.28-.07.43l-.06.43,0,.43c0,.15,0,.29,0,.44v8.89H49.74c-12.18,0-18.34,1.1-24.74,4.26A32,32,0,0,0,11.28,41.37C7.85,47.28,6.67,53,6.67,64.2v80.47c0,11.24,1.19,16.93,4.61,22.84A32,32,0,0,0,25,180.18c6.41,3.16,12.56,4.26,24.74,4.26H150.26c12.18,0,18.34-1.1,24.74-4.26a32,32,0,0,0,13.72-12.67c3.43-5.91,4.61-11.59,4.61-22.83V64.2C193.33,53,192.14,47.27,188.72,41.36ZM140,78c0,.13,0,.27,0,.41s0,.27,0,.41l-.06.41c0,.13,0,.27-.08.4s-.06.27-.1.4l-.12.4c0,.13-.08.26-.13.39l-.15.38-.17.38c-.06.12-.12.24-.19.36a3.07,3.07,0,0,1-.2.36l-.22.35-.24.34-.48.6L98.87,128.07c-.09.11-.19.21-.28.31l-.3.3L98,129l-.32.27-.34.25-.35.23-.36.22-.37.2a3.26,3.26,0,0,1-.38.18l-.39.17-.39.15-.4.12-.41.11-.41.09-.42.07-.42,0-.42,0h-.42l-.42,0a3,3,0,0,1-.42,0l-.42-.05-.41-.07a2.71,2.71,0,0,1-.41-.09l-.41-.11-.4-.12-.4-.15-.38-.17c-.13-.05-.26-.12-.38-.18s-.25-.13-.37-.2l-.36-.22c-.12-.08-.24-.15-.35-.24l-.34-.25-.56-.48-23.3-21.64-.3-.29-.29-.31-.28-.33-.25-.33a3.64,3.64,0,0,1-.24-.35c-.08-.12-.16-.24-.23-.36l-.21-.37c-.06-.13-.13-.25-.19-.38l-.17-.39-.15-.39c-.05-.14-.09-.27-.13-.41l-.12-.4-.09-.42c0-.14,0-.28-.08-.42s0-.28,0-.42,0-.28,0-.42,0-.28,0-.42,0-.28,0-.43,0-.28,0-.42,0-.28.05-.42l.06-.42.09-.41c0-.14.07-.28.11-.41s.08-.28.12-.41.09-.27.15-.4.1-.26.16-.39l.18-.38c.06-.13.13-.25.2-.38s.14-.24.22-.36.15-.24.23-.35.17-.23.25-.34l.27-.33.28-.32.3-.3c.1-.1.2-.2.31-.29l.32-.27.34-.26.35-.24.36-.22c.12-.08.25-.14.37-.21l.38-.19.39-.17.4-.15.4-.13.41-.11.41-.1.42-.07.42,0,.42,0h.85l.42,0,.42,0,.42.07.42.09.41.1.4.13.4.14.39.17.38.18c.13.06.25.13.37.2l.37.22.35.24.34.25.59.5,16.59,15.4,32.89-37.55.3-.32c.1-.11.2-.21.31-.31l.32-.29.34-.27.35-.26.37-.24c.12-.08.25-.15.38-.22l.38-.21.4-.18.4-.17.41-.14c.14,0,.28-.09.42-.12l.43-.11.43-.08.43-.06.43,0,.44,0h.44l.43,0,.43,0,.44.06.42.09.43.11.41.13.41.15.4.17.4.19.38.21c.13.07.25.15.37.23s.25.16.37.24l.34.26.34.28.3.28c.1.1.2.19.29.29s.19.21.28.31a4,4,0,0,1,.26.32l.25.33a4,4,0,0,1,.23.34l.22.35.2.36.18.37c.06.13.11.25.16.38s.1.26.15.39.09.26.13.39.08.26.11.39l.09.41c0,.13.05.27.08.4s0,.27,0,.41,0,.27,0,.41,0,.28,0,.41Z" transform="translate(-6.67 -6.66)"/></svg>