<svg xmlns="http://www.w3.org/2000/svg" xmlns:xlink="http://www.w3.org/1999/xlink" width="200" height="200" viewBox="0 0 200 200" fill="none">
<path d="M165.879 120.446C165.879 137.84 158.883 153.504 147.072 165.253C135.699 176.545 119.52 183.949 102.022 183.949L34.6865 183.949C34.5862 183.947 34.4861 183.943 34.3862 183.936C34.2862 183.93 34.1865 183.921 34.087 183.91C33.9874 183.899 33.8882 183.886 33.7892 183.87C33.6902 183.855 33.5916 183.837 33.4934 183.817C33.3953 183.797 33.2976 183.775 33.2006 183.751C33.1034 183.727 33.0068 183.7 32.9108 183.671C32.8148 183.643 32.7195 183.612 32.6249 183.579C32.5303 183.547 32.4366 183.512 32.3436 183.475C32.2506 183.437 32.1586 183.398 32.0674 183.357C31.9761 183.316 31.8858 183.273 31.7965 183.228C31.7073 183.182 31.619 183.135 31.5318 183.086C31.4448 183.037 31.3588 182.986 31.274 182.933C31.1891 182.88 31.1054 182.825 31.023 182.768C30.9408 182.712 30.8597 182.653 30.7799 182.593C30.7003 182.532 30.622 182.47 30.5451 182.407C30.4682 182.343 30.3928 182.277 30.3188 182.21C30.2451 182.141 30.1734 182.069 30.1037 181.996C30.0339 181.923 29.9662 181.848 29.9005 181.772C29.8347 181.695 29.7711 181.616 29.7097 181.536C29.6484 181.456 29.5892 181.374 29.5322 181.291C29.4753 181.207 29.4207 181.123 29.3683 181.036C29.3159 180.95 29.2659 180.862 29.2183 180.773C29.1708 180.684 29.1257 180.594 29.083 180.502C29.0404 180.411 29.0003 180.318 28.9627 180.225C28.9252 180.131 28.8901 180.037 28.8576 179.941C28.8251 179.846 28.7953 179.749 28.7682 179.652C28.7409 179.555 28.7163 179.457 28.6943 179.359C28.6725 179.26 28.6533 179.161 28.6367 179.062C28.6203 178.962 28.6065 178.863 28.5954 178.762C28.5844 178.662 28.5762 178.562 28.5705 178.461C28.5649 178.36 28.562 178.26 28.5619 178.159C28.5619 178.058 28.5646 177.957 28.5699 177.857L28.5699 79.5545C28.5699 62.1598 35.5655 46.4956 47.3679 34.7475C59.1796 23.4456 74.9287 16.0505 92.4173 16.0505L154.076 16.0505C157.574 16.0505 160.641 17.3529 162.821 19.5294C165.018 21.706 166.328 24.7478 166.328 28.2269L166.328 120.446L165.888 120.446L165.879 120.446ZM153.628 3L91.9687 3C49.5471 3 15.0002 37.3613 15.0002 79.5545L15.0002 177.42C14.9987 177.74 15.0052 178.061 15.0195 178.382C15.0339 178.702 15.0563 179.022 15.0866 179.342C15.1169 179.661 15.1551 179.979 15.2011 180.297C15.2473 180.615 15.3014 180.931 15.3632 181.246C15.425 181.561 15.4946 181.874 15.572 182.185C15.6493 182.497 15.7344 182.806 15.8272 183.114C15.9199 183.421 16.0202 183.726 16.1281 184.028C16.236 184.331 16.3513 184.63 16.474 184.927C16.5967 185.223 16.7267 185.517 16.8641 185.807C17.0015 186.098 17.1459 186.384 17.2974 186.668C17.4491 186.951 17.6076 187.23 17.7729 187.506C17.9384 187.781 18.1106 188.052 18.2895 188.32C18.4685 188.587 18.6539 188.849 18.8459 189.107C19.0378 189.365 19.236 189.618 19.4404 189.866C19.645 190.114 19.8555 190.357 20.072 190.595C20.2886 190.833 20.511 191.065 20.7392 191.292C20.9672 191.519 21.2008 191.74 21.4399 191.955C21.679 192.171 21.9233 192.38 22.1728 192.584C22.4222 192.787 22.6766 192.984 22.9358 193.175C23.1951 193.366 23.459 193.55 23.7274 193.728C23.9959 193.906 24.2686 194.077 24.5455 194.242C24.8225 194.407 25.1034 194.564 25.3881 194.715C25.6729 194.866 25.9612 195.009 26.2531 195.146C26.545 195.283 26.8402 195.412 27.1385 195.534C27.4369 195.656 27.738 195.771 28.042 195.878C28.346 195.985 28.6525 196.085 28.9615 196.177C29.2705 196.27 29.5816 196.354 29.8948 196.431C30.2079 196.508 30.5228 196.577 30.8394 196.639C31.156 196.7 31.4739 196.754 31.7932 196.8C32.1125 196.846 32.4328 196.884 32.7539 196.914C33.0751 196.944 33.3968 196.966 33.719 196.981C34.0414 196.995 34.3639 197.001 34.6865 197L102.031 197C144.453 197 179 162.639 179 120.446L179 28.2269C179 27.8139 178.989 27.4013 178.969 26.9889C178.948 26.5765 178.917 26.165 178.876 25.7542C178.835 25.3433 178.784 24.9336 178.723 24.5253C178.662 24.117 178.591 23.7103 178.509 23.3054C178.428 22.9006 178.337 22.4979 178.236 22.0973C178.135 21.697 178.024 21.2992 177.903 20.9042C177.782 20.5091 177.652 20.1173 177.512 19.7286C177.372 19.34 177.222 18.955 177.063 18.5737C176.905 18.1923 176.736 17.815 176.559 17.4419C176.381 17.0686 176.194 16.7 175.998 16.3361C175.803 15.972 175.598 15.6129 175.384 15.2589C175.171 14.9049 174.949 14.5562 174.718 14.213C174.487 13.8698 174.248 13.5324 174.001 13.2008C173.753 12.8693 173.498 12.544 173.235 12.2249C172.971 11.9058 172.7 11.5933 172.421 11.2875C172.142 10.9816 171.856 10.6827 171.563 10.3909C171.269 10.099 170.968 9.8144 170.661 9.53719C170.353 9.25996 170.039 8.99042 169.718 8.72853C169.397 8.46664 169.07 8.21274 168.736 7.96683C168.403 7.72091 168.064 7.48328 167.719 7.25391C167.374 7.02455 167.023 6.80375 166.667 6.59149C166.311 6.37924 165.95 6.17579 165.584 5.98116C165.218 5.78652 164.847 5.60095 164.472 5.4244C164.096 5.24785 163.717 5.08056 163.334 4.92253C162.95 4.7645 162.563 4.61592 162.172 4.47678C161.781 4.33764 161.387 4.20811 160.99 4.08819C160.593 3.96828 160.193 3.85813 159.79 3.75773C159.388 3.65734 158.983 3.56682 158.576 3.48619C158.169 3.40555 157.76 3.33489 157.349 3.27421C156.939 3.21352 156.527 3.16288 156.114 3.12228C155.7 3.0817 155.287 3.05121 154.872 3.03081C154.457 3.01042 154.043 3.00015 153.628 3Z" stroke="rgba(0, 0, 0, 1)" stroke-width="4"      fill="#000000" >
</path>
<path d="M131.8 116.878L61.609 116.878C61.5077 116.881 61.4066 116.886 61.3057 116.893C61.2046 116.9 61.1038 116.91 61.0033 116.923C60.9027 116.935 60.8024 116.949 60.7025 116.966C60.6028 116.983 60.5035 117.002 60.4045 117.024C60.3055 117.046 60.2072 117.07 60.1094 117.096C60.0116 117.123 59.9145 117.151 59.818 117.182C59.7215 117.213 59.6258 117.246 59.5311 117.282C59.4361 117.317 59.3422 117.355 59.2492 117.395C59.1561 117.435 59.0641 117.477 58.973 117.522C58.8819 117.566 58.7919 117.613 58.7031 117.661C58.6143 117.71 58.5267 117.761 58.4402 117.813C58.3538 117.866 58.2687 117.921 58.185 117.978C58.1011 118.035 58.0186 118.094 57.9375 118.154C57.8565 118.215 57.777 118.278 57.699 118.342C57.6209 118.407 57.5444 118.473 57.4695 118.541C57.3947 118.609 57.3214 118.68 57.2498 118.751C57.1783 118.823 57.1085 118.896 57.0404 118.971C56.9723 119.046 56.9061 119.123 56.8416 119.201C56.7771 119.279 56.7146 119.359 56.6539 119.44C56.5932 119.521 56.5346 119.603 56.4779 119.687C56.4212 119.771 56.3664 119.856 56.3137 119.943C56.2611 120.029 56.2105 120.117 56.1619 120.206C56.1133 120.295 56.067 120.385 56.0229 120.476C55.9786 120.567 55.9365 120.659 55.8967 120.752C55.8568 120.846 55.8192 120.94 55.7838 121.034C55.7484 121.129 55.7152 121.225 55.6844 121.322C55.6537 121.418 55.6251 121.515 55.5988 121.613C55.5727 121.711 55.5488 121.809 55.5272 121.908C55.5057 122.007 55.4865 122.107 55.4697 122.207C55.4529 122.306 55.4385 122.407 55.4264 122.507C55.4144 122.608 55.4048 122.709 55.3975 122.809C55.3902 122.91 55.3853 123.012 55.3828 123.113C55.3828 126.435 58.2873 129.339 61.609 129.339L131.8 129.339C131.901 129.336 132.003 129.331 132.104 129.324C132.204 129.317 132.305 129.307 132.405 129.295C132.506 129.283 132.606 129.268 132.706 129.251C132.806 129.234 132.905 129.215 133.004 129.193C133.103 129.172 133.201 129.148 133.299 129.121C133.396 129.095 133.494 129.067 133.59 129.035C133.686 129.005 133.782 128.971 133.877 128.936C133.971 128.9 134.065 128.863 134.158 128.823C134.251 128.783 134.343 128.741 134.434 128.697C134.525 128.652 134.615 128.606 134.704 128.557C134.793 128.509 134.88 128.458 134.967 128.405C135.053 128.353 135.138 128.298 135.222 128.241C135.306 128.184 135.388 128.126 135.469 128.065C135.55 128.004 135.629 127.942 135.707 127.877C135.786 127.813 135.862 127.747 135.937 127.679C136.012 127.61 136.085 127.541 136.156 127.469C136.228 127.398 136.298 127.324 136.366 127.25C136.434 127.175 136.5 127.098 136.565 127.02C136.629 126.942 136.692 126.863 136.752 126.782C136.813 126.701 136.872 126.618 136.929 126.534C136.985 126.451 137.04 126.366 137.093 126.279C137.146 126.193 137.196 126.105 137.245 126.017C137.293 125.928 137.34 125.838 137.384 125.747C137.428 125.656 137.47 125.564 137.51 125.471C137.55 125.378 137.588 125.284 137.623 125.189C137.659 125.094 137.692 124.999 137.723 124.902C137.754 124.806 137.782 124.709 137.809 124.611C137.835 124.514 137.859 124.415 137.881 124.317C137.902 124.218 137.921 124.118 137.938 124.018C137.955 123.919 137.97 123.819 137.982 123.718C137.994 123.618 138.004 123.517 138.012 123.416C138.019 123.315 138.024 123.214 138.026 123.113C138.024 123.012 138.019 122.91 138.012 122.809C138.004 122.709 137.995 122.608 137.983 122.507C137.971 122.407 137.956 122.306 137.94 122.207C137.923 122.107 137.904 122.007 137.882 121.908C137.861 121.809 137.837 121.711 137.81 121.613C137.784 121.515 137.756 121.418 137.725 121.322C137.694 121.225 137.661 121.129 137.625 121.034C137.59 120.94 137.553 120.846 137.513 120.752C137.473 120.659 137.431 120.567 137.387 120.476C137.342 120.385 137.296 120.295 137.247 120.206C137.199 120.117 137.148 120.029 137.096 119.943C137.043 119.856 136.988 119.771 136.931 119.687C136.875 119.603 136.816 119.521 136.755 119.44C136.695 119.359 136.632 119.279 136.568 119.201C136.503 119.123 136.437 119.046 136.369 118.971C136.301 118.896 136.231 118.823 136.159 118.751C136.088 118.68 136.015 118.609 135.94 118.541C135.865 118.473 135.788 118.407 135.71 118.342C135.632 118.278 135.553 118.215 135.472 118.154C135.391 118.094 135.308 118.035 135.224 117.978C135.141 117.921 135.055 117.866 134.969 117.813C134.883 117.76 134.795 117.71 134.706 117.661C134.617 117.613 134.527 117.566 134.436 117.522C134.345 117.477 134.253 117.435 134.16 117.395C134.067 117.355 133.973 117.317 133.878 117.282C133.783 117.246 133.688 117.213 133.591 117.182C133.495 117.151 133.398 117.123 133.3 117.096C133.202 117.07 133.104 117.046 133.005 117.024C132.906 117.002 132.806 116.983 132.707 116.966C132.607 116.949 132.507 116.935 132.406 116.923C132.305 116.91 132.205 116.9 132.104 116.893C132.003 116.886 131.902 116.881 131.8 116.878ZM61.609 84.0694L96.0785 84.0694C96.1799 84.0671 96.2811 84.0624 96.382 84.0554C96.4832 84.0482 96.584 84.0386 96.6846 84.0267C96.7852 84.0147 96.8855 84.0004 96.9854 83.9837C97.0854 83.967 97.1848 83.948 97.2838 83.9265C97.3828 83.905 97.4814 83.8812 97.5793 83.8552C97.6771 83.829 97.7744 83.8005 97.8709 83.7696C97.9674 83.7389 98.0631 83.7059 98.1582 83.6706C98.2531 83.6352 98.3471 83.5976 98.4402 83.5579C98.5334 83.5181 98.6256 83.4761 98.7168 83.4319C98.808 83.3877 98.898 83.3413 98.9871 83.2929C99.076 83.2443 99.1639 83.1937 99.2504 83.1411C99.3369 83.0884 99.4223 83.0337 99.5061 82.9771C99.59 82.9203 99.6727 82.8616 99.7537 82.8009C99.835 82.7402 99.9146 82.6777 99.9928 82.6132C100.071 82.5487 100.147 82.4825 100.222 82.4144C100.298 82.3463 100.371 82.2764 100.443 82.2048C100.514 82.1333 100.584 82.0601 100.653 81.9851C100.721 81.9102 100.787 81.8337 100.852 81.7556C100.916 81.6775 100.979 81.5979 101.04 81.5169C101.1 81.4358 101.159 81.3533 101.216 81.2694C101.273 81.1856 101.328 81.1004 101.38 81.014C101.433 80.9274 101.484 80.8397 101.533 80.7509C101.581 80.662 101.628 80.5719 101.672 80.4808C101.716 80.3896 101.758 80.2975 101.798 80.2044C101.838 80.1113 101.876 80.0173 101.912 79.9224C101.947 79.8275 101.98 79.7318 102.011 79.6353C102.042 79.5388 102.071 79.4417 102.097 79.3439C102.123 79.2459 102.147 79.1475 102.169 79.0485C102.19 78.9496 102.209 78.8501 102.226 78.7501C102.243 78.6502 102.258 78.55 102.27 78.4493C102.282 78.3488 102.291 78.248 102.299 78.147C102.306 78.046 102.311 77.9448 102.313 77.8435C102.311 77.742 102.306 77.6408 102.299 77.5398C102.292 77.4386 102.282 77.3377 102.27 77.237C102.258 77.1364 102.243 77.036 102.226 76.9361C102.21 76.8362 102.19 76.7367 102.169 76.6376C102.147 76.5385 102.123 76.44 102.097 76.3421C102.071 76.2442 102.042 76.147 102.011 76.0505C101.98 75.9539 101.947 75.8581 101.912 75.7632C101.876 75.6681 101.839 75.5741 101.799 75.481C101.759 75.3877 101.717 75.2956 101.672 75.2044C101.628 75.1133 101.582 75.0232 101.533 74.9341C101.484 74.8452 101.434 74.7574 101.381 74.6708C101.328 74.5844 101.273 74.4991 101.216 74.4151C101.16 74.3312 101.101 74.2486 101.04 74.1675C100.979 74.0864 100.917 74.0067 100.852 73.9284C100.787 73.8503 100.721 73.7737 100.653 73.6987C100.585 73.6237 100.515 73.5504 100.443 73.4786C100.371 73.407 100.298 73.3371 100.223 73.2689C100.148 73.2006 100.072 73.1343 99.9934 73.0698C99.9152 73.0052 99.8355 72.9426 99.7545 72.8818C99.6732 72.8211 99.5906 72.7623 99.5068 72.7054C99.4229 72.6486 99.3375 72.5939 99.251 72.5411C99.1645 72.4883 99.0768 72.4375 98.9877 72.389C98.8988 72.3404 98.8088 72.294 98.7176 72.2497C98.6264 72.2053 98.5342 72.1632 98.441 72.1234C98.3479 72.0834 98.2537 72.0457 98.1588 72.0103C98.0639 71.9748 97.9682 71.9417 97.8715 71.9107C97.7748 71.8798 97.6775 71.8512 97.5797 71.8249C97.4818 71.7987 97.3834 71.7748 97.2844 71.7532C97.1853 71.7316 97.0857 71.7124 96.9857 71.6956C96.8859 71.6787 96.7855 71.6642 96.685 71.6523C96.5844 71.6402 96.4834 71.6304 96.3822 71.6232C96.2811 71.6159 96.1799 71.611 96.0785 71.6087L61.609 71.6087C61.5077 71.6112 61.4066 71.6161 61.3057 71.6236C61.2046 71.631 61.1038 71.6408 61.0033 71.653C60.9027 71.6651 60.8024 71.6797 60.7025 71.6966C60.6028 71.7137 60.5035 71.733 60.4045 71.7546C60.3055 71.7763 60.2072 71.8004 60.1094 71.8267C60.0116 71.853 59.9145 71.8816 59.818 71.9126C59.7215 71.9436 59.6258 71.9769 59.5311 72.0124C59.4361 72.048 59.3422 72.0857 59.2492 72.1257C59.1561 72.1657 59.0641 72.2079 58.973 72.2523C58.8819 72.2965 58.7919 72.343 58.7031 72.3917C58.6143 72.4403 58.5267 72.491 58.4402 72.5439C58.3538 72.5967 58.2687 72.6515 58.185 72.7083C58.1011 72.7652 58.0186 72.824 57.9375 72.8847C57.8565 72.9455 57.777 73.0082 57.699 73.0728C57.6209 73.1373 57.5444 73.2037 57.4695 73.2718C57.3947 73.34 57.3214 73.41 57.2498 73.4818C57.1783 73.5534 57.1085 73.6267 57.0404 73.7017C56.9723 73.7767 56.9061 73.8532 56.8416 73.9314C56.7771 74.0095 56.7146 74.0891 56.6539 74.1702C56.5932 74.2513 56.5346 74.3338 56.4779 74.4177C56.4212 74.5017 56.3664 74.5869 56.3137 74.6734C56.2611 74.7598 56.2105 74.8475 56.1619 74.9364C56.1133 75.0254 56.067 75.1154 56.0229 75.2066C55.9786 75.2977 55.9365 75.3898 55.8967 75.4829C55.8568 75.576 55.8192 75.67 55.7838 75.765C55.7484 75.8599 55.7152 75.9556 55.6844 76.0521C55.6537 76.1484 55.6251 76.2456 55.5988 76.3435C55.5727 76.4413 55.5488 76.5396 55.5272 76.6386C55.5057 76.7375 55.4865 76.837 55.4697 76.9368C55.4529 77.0368 55.4385 77.1371 55.4264 77.2376C55.4144 77.3381 55.4048 77.4389 55.3975 77.54C55.3902 77.641 55.3853 77.7422 55.3828 77.8435C55.3828 81.1651 58.2873 84.0694 61.609 84.0694Z" stroke="rgba(0, 0, 0, 1)" stroke-width="4"      fill="#000000" >
</path>
</svg>
