<svg xmlns="http://www.w3.org/2000/svg" xmlns:xlink="http://www.w3.org/1999/xlink" width="200" height="200" viewBox="0 0 200 200" fill="none">
<path d="M161.525 178.656L39.4133 178.656C38.9264 178.655 38.4396 178.643 37.9531 178.619C37.4668 178.594 36.9813 178.558 36.4967 178.51C36.0121 178.462 35.5289 178.402 35.0473 178.33C34.5656 178.258 34.0859 178.174 33.6084 178.079C33.1309 177.983 32.6559 177.876 32.1836 177.757C31.7111 177.639 31.242 177.509 30.7762 177.367C30.3102 177.225 29.848 177.072 29.3896 176.908C28.9312 176.743 28.477 176.568 28.0271 176.381C27.5774 176.195 27.1324 175.997 26.6922 175.788C26.2521 175.58 25.8173 175.361 25.3879 175.131C24.9586 174.901 24.5351 174.661 24.1174 174.411C23.6998 174.16 23.2886 173.899 22.8838 173.629C22.4789 173.358 22.081 173.077 21.69 172.787C21.2989 172.497 20.9152 172.197 20.5388 171.888C20.1624 171.579 19.7938 171.261 19.433 170.934C19.0723 170.607 18.7197 170.271 18.3754 169.926C18.0311 169.582 17.6954 169.229 17.3684 168.868C17.0414 168.508 16.7234 168.139 16.4145 167.762C16.1056 167.386 15.8061 167.002 15.516 166.611C15.2258 166.22 14.9455 165.822 14.6749 165.417C14.4043 165.012 14.1438 164.601 13.8934 164.183C13.643 163.765 13.4029 163.342 13.1733 162.912C12.9437 162.483 12.7247 162.048 12.5164 161.607C12.308 161.167 12.1106 160.722 11.9241 160.272C11.7377 159.822 11.5623 159.368 11.3981 158.91C11.2339 158.451 11.081 157.989 10.9394 157.523C10.7979 157.057 10.6678 156.588 10.5493 156.116C10.4308 155.643 10.3239 155.168 10.2286 154.691C10.1334 154.213 10.0499 153.733 9.97816 153.252C9.90643 152.77 9.84656 152.287 9.79854 151.802C9.7505 151.318 9.71438 150.832 9.69016 150.346C9.66594 149.859 9.65366 149.372 9.65332 148.885L9.65332 53.1199C9.65384 52.633 9.66629 52.1465 9.69066 51.6602C9.71505 51.174 9.75134 50.6887 9.79951 50.2041C9.84769 49.7196 9.90771 49.2365 9.97957 48.7549C10.0514 48.2735 10.1351 47.794 10.2304 47.3164C10.3258 46.8389 10.4328 46.3641 10.5515 45.8918C10.6701 45.4196 10.8003 44.9506 10.9419 44.4848C11.0836 44.019 11.2366 43.5569 11.4009 43.0985C11.5652 42.6401 11.7406 42.1861 11.9272 41.7364C12.1138 41.2866 12.3112 40.8417 12.5196 40.4016C12.728 39.9616 12.9471 39.527 13.1768 39.0977C13.4065 38.6682 13.6465 38.2448 13.897 37.8274C14.1474 37.4098 14.408 36.9986 14.6786 36.5938C14.9492 36.1891 15.2296 35.7912 15.5197 35.4002C15.8098 35.0091 16.1094 34.6254 16.4183 34.249C16.7272 33.8727 17.0452 33.5042 17.3722 33.1434C17.6992 32.7827 18.0349 32.4302 18.3792 32.086C18.7235 31.7416 19.076 31.4059 19.4367 31.0789C19.7975 30.752 20.1661 30.434 20.5424 30.125C20.9187 29.816 21.3023 29.5165 21.6933 29.2264C22.0844 28.9363 22.4823 28.6559 22.8871 28.3854C23.2919 28.1147 23.703 27.8541 24.1205 27.6037C24.5381 27.3532 24.9615 27.1131 25.3908 26.8834C25.8202 26.6537 26.2549 26.4347 26.6949 26.2264C27.135 26.0179 27.5799 25.8205 28.0297 25.634C28.4794 25.4474 28.9334 25.272 29.3918 25.1076C29.8502 24.9433 30.3121 24.7903 30.7779 24.6487C31.2437 24.507 31.7129 24.3768 32.1852 24.2582C32.6574 24.1396 33.1322 24.0326 33.6096 23.9371C34.0871 23.8418 34.5666 23.7582 35.0482 23.6864C35.5297 23.6145 36.0127 23.5545 36.4973 23.5063C36.9818 23.4581 37.4672 23.4218 37.9535 23.3973C38.4398 23.3729 38.9264 23.3605 39.4133 23.36L76.6721 23.36C76.8059 23.3601 76.9397 23.362 77.0734 23.3657C77.2072 23.3693 77.3408 23.3746 77.4744 23.3817C77.608 23.3887 77.7416 23.3975 77.875 23.408C78.0084 23.4186 78.1416 23.4309 78.2746 23.4449C78.4076 23.4589 78.5406 23.4746 78.6732 23.492C78.8059 23.5095 78.9383 23.5286 79.0705 23.5494C79.2027 23.5704 79.3346 23.5931 79.466 23.6174C79.5977 23.6416 79.7289 23.6676 79.8598 23.6953C79.9908 23.7231 80.1213 23.7525 80.2514 23.7836C80.3816 23.8146 80.5113 23.8474 80.6406 23.8819C80.7699 23.9164 80.8986 23.9525 81.027 23.9903C81.1553 24.0282 81.2832 24.0676 81.4105 24.1086C81.5379 24.1498 81.6646 24.1925 81.7908 24.2369C81.9172 24.2815 82.0428 24.3276 82.1678 24.3752C82.2928 24.4229 82.4172 24.4722 82.5408 24.5231C82.6646 24.574 82.7877 24.6265 82.9102 24.6805C83.0326 24.7347 83.1541 24.7904 83.275 24.8477C83.3959 24.9048 83.5162 24.9636 83.6355 25.024C83.7549 25.0845 83.8736 25.1464 83.9914 25.2098C84.1092 25.2732 84.2262 25.3382 84.3422 25.4047C84.4584 25.4713 84.5736 25.5392 84.6879 25.6086C84.8023 25.6782 84.9158 25.7491 85.0283 25.8215C85.1408 25.8939 85.2523 25.9678 85.3629 26.0432C85.4736 26.1184 85.5832 26.1952 85.6918 26.2735C85.8004 26.3516 85.908 26.4311 86.0145 26.5121C86.1209 26.593 86.2264 26.6753 86.3309 26.759C86.4353 26.8427 86.5387 26.9278 86.6408 27.0141C86.743 27.1006 86.8439 27.1882 86.9439 27.2772C87.0437 27.3662 87.1426 27.4565 87.2402 27.5481C87.3377 27.6396 87.4342 27.7324 87.5293 27.8264C87.6244 27.9205 87.7184 28.0158 87.8111 28.1123C87.9039 28.2088 87.9953 28.3065 88.0854 28.4053L104.267 46.1334C104.329 46.2008 104.394 46.2647 104.463 46.3254C104.531 46.3862 104.603 46.4432 104.677 46.4965C104.752 46.5498 104.829 46.599 104.908 46.6446C104.988 46.6901 105.069 46.7313 105.153 46.7684C105.237 46.8053 105.322 46.8381 105.409 46.8664C105.496 46.8948 105.584 46.9184 105.674 46.9377C105.763 46.9569 105.854 46.9715 105.945 46.9815C106.036 46.9914 106.127 46.9967 106.219 46.9973L161.547 46.9973C162.034 46.9979 162.52 47.0104 163.006 47.0348C163.493 47.0592 163.978 47.0953 164.463 47.1436C164.947 47.1918 165.43 47.2518 165.912 47.3237C166.393 47.3955 166.873 47.4791 167.35 47.5744C167.828 47.6699 168.303 47.777 168.775 47.8955C169.247 48.0141 169.716 48.1444 170.182 48.286C170.648 48.4276 171.11 48.5807 171.568 48.7449C172.027 48.9092 172.481 49.0848 172.93 49.2713C173.38 49.4578 173.825 49.6553 174.265 49.8637C174.705 50.0721 175.14 50.291 175.569 50.5207C175.998 50.7504 176.422 50.9905 176.839 51.241C177.257 51.4916 177.668 51.7522 178.073 52.0227C178.478 52.2932 178.876 52.5737 179.267 52.8637C179.658 53.1539 180.041 53.4535 180.418 53.7623C180.794 54.0713 181.163 54.3893 181.523 54.7162C181.884 55.0434 182.237 55.3789 182.581 55.7233C182.925 56.0676 183.261 56.4199 183.588 56.7807C183.915 57.1414 184.233 57.51 184.542 57.8864C184.851 58.2627 185.15 58.6465 185.44 59.0375C185.73 59.4285 186.011 59.8264 186.281 60.2311C186.552 60.636 186.812 61.0471 187.063 61.4647C187.313 61.8823 187.554 62.3057 187.783 62.735C188.013 63.1643 188.232 63.5989 188.44 64.0389C188.649 64.4789 188.846 64.9239 189.033 65.3737C189.219 65.8235 189.395 66.2774 189.559 66.7358C189.723 67.1942 189.876 67.6563 190.018 68.1221C190.16 68.5879 190.29 69.0569 190.409 69.5291C190.527 70.0014 190.634 70.4762 190.729 70.9537C190.825 71.4313 190.909 71.9108 190.98 72.3922C191.052 72.8739 191.112 73.3569 191.161 73.8414C191.209 74.326 191.245 74.8114 191.269 75.2975C191.294 75.7838 191.306 76.2705 191.307 76.7574L191.307 148.885C191.306 149.373 191.294 149.859 191.269 150.346C191.245 150.832 191.209 151.318 191.16 151.803C191.112 152.288 191.052 152.771 190.98 153.253C190.908 153.735 190.825 154.215 190.729 154.692C190.634 155.17 190.527 155.645 190.408 156.118C190.289 156.59 190.159 157.06 190.017 157.526C189.875 157.992 189.722 158.454 189.558 158.913C189.393 159.371 189.218 159.826 189.031 160.276C188.844 160.726 188.647 161.171 188.438 161.611C188.229 162.051 188.01 162.486 187.78 162.916C187.551 163.345 187.31 163.769 187.06 164.187C186.809 164.605 186.548 165.016 186.277 165.421C186.006 165.826 185.726 166.224 185.436 166.615C185.145 167.006 184.846 167.39 184.536 167.767C184.227 168.143 183.909 168.512 183.582 168.873C183.254 169.234 182.919 169.587 182.574 169.931C182.229 170.275 181.877 170.611 181.516 170.938C181.154 171.265 180.786 171.583 180.409 171.892C180.032 172.202 179.648 172.501 179.257 172.791C178.866 173.081 178.468 173.362 178.063 173.633C177.658 173.903 177.246 174.164 176.828 174.414C176.411 174.665 175.987 174.905 175.557 175.135C175.128 175.364 174.692 175.584 174.252 175.792C173.812 176 173.366 176.198 172.916 176.384C172.466 176.571 172.012 176.747 171.553 176.911C171.095 177.075 170.632 177.228 170.166 177.37C169.7 177.511 169.231 177.641 168.758 177.76C168.286 177.878 167.81 177.985 167.333 178.08C166.855 178.176 166.375 178.259 165.893 178.331C165.411 178.403 164.928 178.463 164.443 178.511C163.958 178.559 163.472 178.595 162.986 178.619C162.499 178.643 162.012 178.656 161.525 178.656ZM39.4133 36.16C39.1357 36.1604 38.8586 36.1675 38.5814 36.1815C38.3043 36.1954 38.0277 36.2161 37.7516 36.2436C37.4756 36.2711 37.2002 36.3053 36.9258 36.3463C36.6514 36.3873 36.3781 36.435 36.1061 36.4895C35.834 36.5438 35.5635 36.6048 35.2943 36.6725C35.0252 36.7402 34.758 36.8144 34.4926 36.8951C34.2271 36.9759 33.9637 37.0631 33.7025 37.1567C33.4414 37.2504 33.1826 37.3504 32.9264 37.4567C32.6701 37.5631 32.4166 37.6756 32.1658 37.7944C31.915 37.9131 31.6674 38.038 31.4227 38.169C31.1779 38.2998 30.9367 38.4366 30.6988 38.5793C30.4607 38.7222 30.2266 38.8707 29.9959 39.0248C29.7652 39.1791 29.5385 39.3389 29.3156 39.5041C29.0928 39.6695 28.8742 39.8402 28.6597 40.0162C28.4453 40.1923 28.2353 40.3735 28.0297 40.56C27.8241 40.7463 27.6232 40.9376 27.4269 41.1338C27.2308 41.3299 27.0396 41.5307 26.8531 41.7364C26.6668 41.942 26.4856 42.152 26.3096 42.3664C26.1335 42.5809 25.9628 42.7995 25.7974 43.0223C25.6321 43.2451 25.4723 43.4719 25.3181 43.7026C25.1638 43.9332 25.0154 44.1676 24.8726 44.4055C24.7299 44.6434 24.5931 44.8846 24.4623 45.1293C24.3313 45.374 24.2064 45.6217 24.0877 45.8725C23.9689 46.1233 23.8564 46.3768 23.75 46.633C23.6436 46.8893 23.5436 47.1481 23.45 47.4092C23.3564 47.6703 23.2692 47.9338 23.1885 48.1992C23.1076 48.4647 23.0334 48.7319 22.9658 49.001C22.8981 49.2701 22.8371 49.5406 22.7828 49.8127C22.7284 50.0848 22.6806 50.358 22.6396 50.6324C22.5986 50.9069 22.5644 51.1823 22.5369 51.4582C22.5094 51.7344 22.4887 52.011 22.4748 52.2881C22.4609 52.5653 22.4537 52.8424 22.4533 53.1199L22.4533 148.885C22.4534 149.163 22.4604 149.44 22.4742 149.718C22.488 149.995 22.5086 150.272 22.5359 150.548C22.5633 150.824 22.5974 151.099 22.6383 151.374C22.6791 151.648 22.7267 151.922 22.7808 152.194C22.8351 152.466 22.8961 152.737 22.9637 153.006C23.0311 153.276 23.1052 153.543 23.1859 153.809C23.2665 154.074 23.3536 154.338 23.4472 154.599C23.5407 154.86 23.6406 155.119 23.7469 155.376C23.8532 155.632 23.9657 155.886 24.0844 156.137C24.2031 156.388 24.3279 156.636 24.4588 156.88C24.5896 157.125 24.7264 157.366 24.8691 157.605C25.0118 157.843 25.1603 158.077 25.3144 158.308C25.4686 158.539 25.6284 158.766 25.7937 158.988C25.9591 159.212 26.1298 159.43 26.3058 159.645C26.4819 159.86 26.6631 160.07 26.8494 160.275C27.0357 160.481 27.227 160.682 27.4232 160.879C27.6195 161.075 27.8204 161.266 28.026 161.453C28.2316 161.639 28.4416 161.821 28.656 161.997C28.8706 162.173 29.0893 162.344 29.3121 162.509C29.535 162.675 29.7619 162.835 29.9926 162.989C30.2232 163.143 30.4576 163.292 30.6957 163.435C30.9338 163.578 31.175 163.714 31.4197 163.846C31.6645 163.977 31.9121 164.101 32.1631 164.22C32.4139 164.339 32.6674 164.452 32.9238 164.558C33.1803 164.665 33.4391 164.765 33.7004 164.859C33.9615 164.952 34.225 165.039 34.4906 165.12C34.7561 165.201 35.0234 165.275 35.2928 165.343C35.5619 165.411 35.8326 165.472 36.1047 165.526C36.377 165.581 36.6504 165.629 36.9248 165.67C37.1994 165.711 37.4748 165.745 37.751 165.772C38.0271 165.8 38.3039 165.821 38.5811 165.835C38.8582 165.848 39.1357 165.856 39.4133 165.856L161.525 165.856C161.803 165.855 162.08 165.848 162.357 165.834C162.635 165.82 162.911 165.799 163.187 165.771C163.463 165.744 163.739 165.709 164.013 165.668C164.288 165.627 164.561 165.579 164.833 165.525C165.105 165.47 165.376 165.409 165.645 165.341C165.914 165.273 166.181 165.199 166.447 165.118C166.712 165.037 166.976 164.95 167.237 164.856C167.498 164.762 167.757 164.662 168.013 164.555C168.27 164.449 168.523 164.336 168.774 164.217C169.024 164.098 169.272 163.973 169.517 163.842C169.762 163.711 170.003 163.574 170.241 163.431C170.479 163.289 170.713 163.14 170.944 162.986C171.174 162.831 171.401 162.672 171.624 162.506C171.847 162.341 172.065 162.17 172.28 161.994C172.494 161.817 172.704 161.636 172.91 161.45C173.115 161.263 173.316 161.072 173.512 160.875C173.708 160.679 173.9 160.478 174.086 160.272C174.272 160.067 174.454 159.857 174.63 159.642C174.806 159.428 174.976 159.209 175.142 158.986C175.307 158.763 175.467 158.536 175.621 158.305C175.775 158.075 175.924 157.84 176.066 157.602C176.209 157.364 176.346 157.123 176.477 156.878C176.608 156.633 176.732 156.386 176.851 156.135C176.97 155.884 177.082 155.63 177.189 155.374C177.295 155.118 177.395 154.859 177.489 154.597C177.582 154.336 177.67 154.073 177.75 153.807C177.831 153.542 177.905 153.274 177.973 153.005C178.041 152.736 178.102 152.465 178.156 152.193C178.21 151.921 178.258 151.648 178.299 151.373C178.34 151.099 178.374 150.824 178.402 150.547C178.429 150.271 178.45 149.995 178.464 149.717C178.478 149.44 178.485 149.163 178.485 148.885L178.485 76.7574C178.485 76.4799 178.478 76.2026 178.464 75.9254C178.45 75.6483 178.429 75.3717 178.402 75.0957C178.374 74.8196 178.34 74.5444 178.299 74.2699C178.258 73.9955 178.21 73.7221 178.156 73.45C178.102 73.178 178.041 72.9074 177.973 72.6383C177.905 72.3692 177.831 72.102 177.75 71.8365C177.67 71.5711 177.582 71.3076 177.489 71.0465C177.395 70.7854 177.295 70.5266 177.189 70.2703C177.082 70.0141 176.97 69.7606 176.851 69.5098C176.732 69.259 176.607 69.0114 176.476 68.7666C176.346 68.5219 176.209 68.2807 176.066 68.0428C175.923 67.8049 175.775 67.5705 175.621 67.3399C175.466 67.1092 175.307 66.8826 175.141 66.6598C174.976 66.4369 174.805 66.2182 174.629 66.0037C174.453 65.7893 174.272 65.5793 174.086 65.3737C173.899 65.1682 173.708 64.9674 173.512 64.7711C173.315 64.5748 173.115 64.3836 172.909 64.1973C172.703 64.011 172.493 63.8297 172.279 63.6535C172.064 63.4776 171.846 63.3069 171.623 63.1414C171.4 62.9762 171.173 62.8164 170.943 62.6621C170.712 62.508 170.478 62.3596 170.24 62.2168C170.002 62.074 169.761 61.9371 169.516 61.8063C169.271 61.6752 169.024 61.5504 168.773 61.4317C168.522 61.3129 168.269 61.2004 168.012 61.094C167.756 60.9877 167.497 60.8877 167.236 60.794C166.975 60.7004 166.712 60.6131 166.446 60.5324C166.181 60.4518 165.913 60.3776 165.644 60.3098C165.375 60.2422 165.105 60.1813 164.833 60.1268C164.561 60.0723 164.287 60.0246 164.013 59.9836C163.738 59.9428 163.463 59.9084 163.187 59.8809C162.911 59.8533 162.634 59.8326 162.357 59.8188C162.08 59.8049 161.803 59.7977 161.525 59.7973L106.197 59.7973C106.063 59.7971 105.93 59.7951 105.796 59.7914C105.662 59.7877 105.529 59.7822 105.395 59.775C105.262 59.7678 105.128 59.759 104.995 59.7483C104.861 59.7377 104.728 59.7254 104.595 59.7112C104.462 59.6971 104.329 59.6813 104.196 59.6639C104.064 59.6463 103.931 59.627 103.799 59.6061C103.667 59.5852 103.535 59.5625 103.404 59.5381C103.272 59.5137 103.141 59.4877 103.01 59.46C102.879 59.4321 102.749 59.4026 102.619 59.3715C102.488 59.3405 102.359 59.3076 102.229 59.2731C102.1 59.2385 101.971 59.2024 101.843 59.1645C101.715 59.1268 101.587 59.0873 101.46 59.0461C101.332 59.0049 101.206 58.9621 101.079 58.9176C100.953 58.8733 100.828 58.8272 100.703 58.7795C100.578 58.7319 100.453 58.6826 100.329 58.6317C100.206 58.5807 100.083 58.5281 99.9605 58.474C99.8381 58.4199 99.7164 58.3643 99.5955 58.3071C99.4746 58.2498 99.3543 58.191 99.235 58.1307C99.1156 58.0703 98.9971 58.0084 98.8793 57.9449C98.7615 57.8815 98.6445 57.8166 98.5283 57.7502C98.4121 57.6838 98.2969 57.6158 98.1826 57.5463C98.0684 57.477 97.9549 57.4061 97.8424 57.3336C97.7297 57.2612 97.6182 57.1873 97.5076 57.1121C97.3969 57.0369 97.2873 56.9602 97.1787 56.8821C97.0701 56.8041 96.9625 56.7246 96.8561 56.6436C96.7494 56.5627 96.6439 56.4805 96.5395 56.3969C96.435 56.3133 96.3316 56.2283 96.2295 56.142C96.1273 56.0557 96.0262 55.968 95.9262 55.8791C95.8262 55.7903 95.7273 55.7 95.6297 55.6086C95.5322 55.517 95.4357 55.4242 95.3404 55.3303C95.2453 55.2364 95.1512 55.1412 95.0584 55.0448C94.9656 54.9485 94.8742 54.8508 94.784 54.752L78.6666 37.0666C78.6051 36.9988 78.54 36.9343 78.4717 36.8733C78.4035 36.8122 78.3322 36.7548 78.2578 36.7012C78.1834 36.6475 78.1066 36.5979 78.0271 36.5522C77.9477 36.5066 77.8658 36.4653 77.782 36.4282C77.6982 36.391 77.6129 36.3584 77.5256 36.3303C77.4383 36.302 77.3498 36.2785 77.2602 36.2596C77.1705 36.2406 77.0801 36.2263 76.9889 36.2168C76.8977 36.2073 76.8063 36.2026 76.7146 36.2028L39.4133 36.16Z" stroke="rgba(0, 0, 0, 1)" stroke-width="4"      fill="#000000" >
</path>
<path d="M93.584 128.8L48.4 128.8C48.2953 128.8 48.1906 128.797 48.0859 128.792C47.9814 128.787 47.877 128.779 47.7727 128.769C47.6685 128.759 47.5646 128.746 47.4609 128.731C47.3573 128.715 47.2541 128.698 47.1514 128.677C47.0486 128.657 46.9465 128.634 46.8449 128.608C46.7434 128.583 46.6424 128.555 46.5422 128.524C46.4419 128.494 46.3425 128.461 46.2439 128.426C46.1453 128.391 46.0475 128.353 45.9508 128.313C45.854 128.273 45.7583 128.23 45.6637 128.186C45.569 128.141 45.4754 128.094 45.383 128.044C45.2907 127.995 45.1996 127.943 45.1098 127.889C45.0199 127.836 44.9314 127.78 44.8443 127.721C44.7572 127.663 44.6716 127.603 44.5875 127.541C44.5034 127.478 44.4208 127.414 44.3398 127.347C44.2588 127.281 44.1796 127.213 44.102 127.142C44.0244 127.072 43.9485 127 43.8744 126.926C43.8005 126.852 43.7283 126.776 43.6578 126.698C43.5875 126.62 43.5191 126.541 43.4527 126.46C43.3863 126.379 43.3219 126.297 43.2594 126.213C43.197 126.128 43.1367 126.043 43.0785 125.956C43.0203 125.869 42.9643 125.78 42.9105 125.69C42.8566 125.6 42.805 125.509 42.7557 125.417C42.7063 125.325 42.6592 125.231 42.6145 125.136C42.5697 125.042 42.5272 124.946 42.4871 124.849C42.447 124.752 42.4093 124.655 42.374 124.556C42.3387 124.457 42.3059 124.358 42.2756 124.258C42.2451 124.158 42.2172 124.057 42.1918 123.955C42.1663 123.854 42.1434 123.751 42.123 123.649C42.1026 123.546 42.0847 123.443 42.0693 123.339C42.054 123.236 42.0411 123.132 42.0309 123.027C42.0206 122.923 42.0128 122.819 42.0076 122.714C42.0025 122.61 42 122.505 42 122.4C42 122.295 42.0025 122.191 42.0076 122.086C42.0128 121.981 42.0206 121.877 42.0309 121.773C42.0411 121.668 42.054 121.565 42.0693 121.461C42.0847 121.357 42.1026 121.254 42.123 121.151C42.1434 121.049 42.1663 120.947 42.1918 120.845C42.2172 120.743 42.2451 120.642 42.2756 120.542C42.3059 120.442 42.3387 120.343 42.374 120.244C42.4093 120.145 42.447 120.048 42.4871 119.951C42.5272 119.854 42.5697 119.758 42.6145 119.664C42.6592 119.569 42.7063 119.476 42.7557 119.383C42.805 119.291 42.8566 119.2 42.9105 119.11C42.9643 119.02 43.0203 118.931 43.0785 118.844C43.1367 118.757 43.197 118.672 43.2594 118.588C43.3219 118.503 43.3863 118.421 43.4527 118.34C43.5191 118.259 43.5875 118.18 43.6578 118.102C43.7283 118.025 43.8005 117.949 43.8744 117.875C43.9485 117.801 44.0244 117.728 44.102 117.658C44.1796 117.588 44.2588 117.519 44.3398 117.453C44.4208 117.386 44.5034 117.322 44.5875 117.26C44.6716 117.197 44.7572 117.137 44.8443 117.079C44.9314 117.021 45.0199 116.964 45.1098 116.911C45.1996 116.857 45.2907 116.805 45.383 116.756C45.4754 116.706 45.569 116.659 45.6637 116.614C45.7583 116.57 45.854 116.527 45.9508 116.487C46.0475 116.447 46.1453 116.41 46.2439 116.374C46.3425 116.339 46.4419 116.306 46.5422 116.276C46.6424 116.245 46.7434 116.217 46.8449 116.192C46.9465 116.166 47.0486 116.143 47.1514 116.123C47.2541 116.103 47.3573 116.085 47.4609 116.069C47.5646 116.054 47.6685 116.041 47.7727 116.031C47.877 116.021 47.9814 116.013 48.0859 116.008C48.1906 116.003 48.2953 116 48.4 116L93.584 116C93.6887 116 93.7934 116.003 93.898 116.008C94.0025 116.013 94.107 116.021 94.2113 116.031C94.3154 116.041 94.4193 116.054 94.523 116.069C94.6268 116.085 94.7299 116.103 94.8326 116.123C94.9353 116.143 95.0375 116.166 95.1391 116.192C95.2406 116.217 95.3416 116.245 95.4418 116.276C95.542 116.306 95.6414 116.339 95.74 116.374C95.8387 116.41 95.9365 116.447 96.0332 116.487C96.1299 116.527 96.2256 116.57 96.3203 116.614C96.415 116.659 96.5086 116.706 96.601 116.756C96.6934 116.805 96.7844 116.857 96.8742 116.911C96.9641 116.964 97.0525 117.021 97.1396 117.079C97.2268 117.137 97.3123 117.197 97.3965 117.26C97.4807 117.322 97.5631 117.386 97.6441 117.453C97.7252 117.519 97.8045 117.588 97.882 117.658C97.9596 117.728 98.0354 117.801 98.1094 117.875C98.1834 117.949 98.2557 118.025 98.326 118.102C98.3965 118.18 98.4648 118.259 98.5312 118.34C98.5977 118.421 98.6621 118.503 98.7244 118.588C98.7869 118.672 98.8473 118.757 98.9055 118.844C98.9635 118.931 99.0195 119.02 99.0734 119.11C99.1273 119.2 99.1789 119.291 99.2283 119.383C99.2777 119.475 99.3248 119.569 99.3695 119.664C99.4143 119.758 99.4568 119.854 99.4969 119.951C99.5369 120.048 99.5744 120.145 99.6098 120.244C99.6451 120.343 99.6779 120.442 99.7084 120.542C99.7389 120.642 99.7668 120.743 99.7922 120.845C99.8176 120.947 99.8404 121.049 99.8609 121.151C99.8814 121.254 99.8992 121.357 99.9146 121.461C99.9301 121.565 99.9428 121.668 99.9531 121.773C99.9635 121.877 99.9711 121.981 99.9764 122.086C99.9814 122.191 99.984 122.295 99.984 122.4C99.984 122.505 99.9814 122.61 99.9764 122.714C99.9711 122.819 99.9635 122.923 99.9531 123.027C99.9428 123.132 99.9301 123.236 99.9146 123.339C99.8992 123.443 99.8814 123.546 99.8609 123.649C99.8404 123.751 99.8176 123.854 99.7922 123.955C99.7666 124.057 99.7387 124.158 99.7084 124.258C99.6779 124.358 99.6451 124.457 99.6098 124.556C99.5744 124.655 99.5369 124.752 99.4969 124.849C99.4568 124.946 99.4143 125.042 99.3695 125.136C99.3248 125.231 99.2777 125.325 99.2283 125.417C99.1789 125.509 99.1273 125.6 99.0734 125.69C99.0195 125.78 98.9635 125.869 98.9055 125.956C98.8473 126.043 98.7869 126.128 98.7244 126.213C98.6621 126.297 98.5977 126.379 98.5312 126.46C98.4648 126.541 98.3965 126.62 98.326 126.698C98.2557 126.776 98.1834 126.852 98.1094 126.926C98.0354 127 97.9596 127.072 97.882 127.142C97.8045 127.213 97.7252 127.281 97.6441 127.347C97.5631 127.414 97.4807 127.478 97.3965 127.541C97.3123 127.603 97.2268 127.663 97.1396 127.721C97.0525 127.78 96.9641 127.836 96.8742 127.889C96.7844 127.943 96.6934 127.995 96.601 128.044C96.5086 128.094 96.415 128.141 96.3203 128.186C96.2256 128.23 96.1299 128.273 96.0332 128.313C95.9365 128.353 95.8387 128.391 95.74 128.426C95.6414 128.461 95.542 128.494 95.4418 128.524C95.3416 128.555 95.2406 128.583 95.1391 128.608C95.0375 128.634 94.9353 128.657 94.8326 128.677C94.7299 128.698 94.6268 128.715 94.523 128.731C94.4193 128.746 94.3154 128.759 94.2113 128.769C94.107 128.779 94.0025 128.787 93.898 128.792C93.7934 128.797 93.6887 128.8 93.584 128.8Z" stroke="rgba(0, 0, 0, 1)" stroke-width="4"      fill="#000000" >
</path>
</svg>
