<svg xmlns="http://www.w3.org/2000/svg" xmlns:xlink="http://www.w3.org/1999/xlink" width="200" height="200" viewBox="0 0 200 200" fill="none">
<path d="M88.68 152.648C89.2394 152.416 89.8054 152.202 90.3782 152.005C90.9509 151.808 91.529 151.628 92.1126 151.467C92.6964 151.305 93.2845 151.161 93.8769 151.036C94.4692 150.911 95.0651 150.803 95.6642 150.714C96.2632 150.626 96.8645 150.555 97.4679 150.503C98.0712 150.451 98.6757 150.418 99.2812 150.403C99.8866 150.388 100.492 150.392 101.097 150.414C101.702 150.436 102.306 150.477 102.909 150.537C103.512 150.596 104.112 150.674 104.71 150.77C105.308 150.866 105.902 150.981 106.493 151.113C107.084 151.246 107.67 151.397 108.252 151.565C108.834 151.734 109.41 151.921 109.98 152.125C110.55 152.329 111.113 152.55 111.67 152.789C112.227 153.028 112.775 153.283 113.316 153.555C113.857 153.828 114.389 154.117 114.913 154.421C115.436 154.727 115.949 155.047 116.453 155.384C116.956 155.72 117.449 156.072 117.931 156.439C118.413 156.806 118.883 157.187 119.341 157.583C119.8 157.978 120.246 158.388 120.679 158.811C121.112 159.234 121.533 159.67 121.939 160.119C122.346 160.567 122.738 161.028 123.116 161.501C123.495 161.974 123.858 162.458 124.207 162.954C124.555 163.449 124.888 163.954 125.206 164.47C125.524 164.986 125.825 165.511 126.11 166.045C126.396 166.579 126.664 167.121 126.916 167.672C127.168 168.223 127.403 168.781 127.621 169.346C127.839 169.911 128.039 170.482 128.222 171.06C128.404 171.637 128.569 172.22 128.716 172.807C128.863 173.395 128.992 173.986 129.102 174.582C129.213 175.177 129.305 175.775 129.379 176.376C129.453 176.978 129.508 177.58 129.545 178.185C129.582 178.789 129.6 179.394 129.6 180L129.6 185.6L70.3999 185.6L70.3999 180C70.3998 179.637 70.4064 179.273 70.4198 178.91C70.4331 178.547 70.4531 178.185 70.4798 177.822C70.5063 177.46 70.5397 177.098 70.5798 176.737C70.6198 176.376 70.6664 176.016 70.7196 175.656C70.7729 175.297 70.8327 174.938 70.8991 174.581C70.9655 174.224 71.0385 173.868 71.1181 173.514C71.1976 173.159 71.2837 172.806 71.3763 172.455C71.4688 172.103 71.5678 171.754 71.6731 171.406C71.7786 171.058 71.8905 170.713 72.0087 170.369C72.1268 170.026 72.2512 169.684 72.3819 169.345C72.5127 169.006 72.6496 168.67 72.7927 168.336C72.9358 168.002 73.085 167.671 73.2403 167.342C73.3955 167.014 73.5568 166.688 73.7241 166.366C73.8914 166.043 74.0646 165.724 74.2437 165.408C74.4227 165.091 74.6075 164.779 74.7981 164.469C74.9886 164.16 75.1849 163.854 75.3868 163.552C75.5886 163.25 75.7959 162.952 76.0087 162.657C76.2214 162.363 76.4396 162.072 76.6632 161.786C76.8868 161.499 77.1155 161.217 77.3493 160.939C77.5832 160.661 77.8221 160.387 78.0661 160.118C78.3101 159.849 78.5589 159.584 78.8126 159.324C79.0664 159.064 79.3248 158.809 79.588 158.558C79.8512 158.308 80.1188 158.062 80.3909 157.821C80.663 157.581 80.9396 157.345 81.2204 157.115C81.5013 156.884 81.7863 156.659 82.0755 156.439C82.3645 156.219 82.6577 156.004 82.9548 155.795C83.2518 155.586 83.5526 155.382 83.8571 155.184C84.1617 154.986 84.4698 154.793 84.7813 154.606C85.0931 154.42 85.4081 154.239 85.7263 154.063C86.0446 153.888 86.3661 153.719 86.6905 153.555C87.0151 153.392 87.3426 153.235 87.673 153.084C88.0033 152.932 88.3363 152.787 88.672 152.648L88.68 152.648ZM99.9999 161.6C99.7581 161.6 99.5163 161.605 99.2747 161.614C99.0331 161.624 98.7917 161.638 98.5505 161.657C98.3095 161.676 98.0688 161.7 97.8288 161.729C97.5886 161.757 97.3491 161.79 97.1103 161.828C96.8714 161.866 96.6335 161.909 96.3962 161.956C96.1591 162.004 95.923 162.055 95.6878 162.112C95.4528 162.169 95.2188 162.23 94.9862 162.296C94.7536 162.362 94.5222 162.432 94.2923 162.507C94.0624 162.582 93.8341 162.662 93.6073 162.746C93.3806 162.83 93.1554 162.918 92.9321 163.011C92.7089 163.104 92.4874 163.201 92.2681 163.303C92.0487 163.404 91.8313 163.51 91.6159 163.621C91.4007 163.731 91.1876 163.845 90.9769 163.964C90.7661 164.082 90.5577 164.205 90.3519 164.332C90.1458 164.459 89.9425 164.589 89.7417 164.724C89.5409 164.859 89.3429 164.998 89.1478 165.14C88.9524 165.283 88.76 165.429 88.5704 165.58C88.3808 165.73 88.1943 165.884 88.0108 166.041C87.8274 166.199 87.6471 166.36 87.47 166.525C87.2929 166.689 87.1192 166.857 86.9487 167.029C86.7782 167.201 86.6111 167.375 86.4476 167.553C86.284 167.731 86.124 167.913 85.9675 168.097C85.8111 168.282 85.6584 168.469 85.5093 168.66C85.3602 168.85 85.2149 169.043 85.0735 169.239C84.9321 169.436 84.7946 169.634 84.661 169.836C84.5274 170.038 84.3979 170.242 84.2724 170.448C84.1468 170.655 84.0254 170.864 83.9081 171.076C83.7908 171.287 83.6777 171.501 83.5688 171.717C83.46 171.933 83.3554 172.151 83.2552 172.371C83.1549 172.591 83.059 172.813 82.9675 173.037C82.8759 173.261 82.7888 173.486 82.7062 173.713C82.6236 173.941 82.5455 174.17 82.472 174.4L117.528 174.4C117.454 174.17 117.376 173.941 117.294 173.714C117.211 173.487 117.124 173.261 117.033 173.037C116.941 172.813 116.845 172.592 116.745 172.372C116.645 172.152 116.54 171.934 116.431 171.718C116.323 171.502 116.21 171.288 116.092 171.077C115.975 170.865 115.854 170.656 115.728 170.45C115.603 170.243 115.473 170.039 115.34 169.837C115.206 169.636 115.069 169.437 114.927 169.241C114.786 169.045 114.641 168.852 114.492 168.661C114.343 168.471 114.19 168.283 114.034 168.099C113.877 167.915 113.717 167.733 113.554 167.555C113.391 167.377 113.224 167.203 113.053 167.031C112.883 166.86 112.709 166.692 112.532 166.527C112.355 166.362 112.175 166.201 111.992 166.044C111.808 165.886 111.622 165.732 111.432 165.582C111.243 165.432 111.05 165.285 110.855 165.143C110.66 165 110.462 164.861 110.262 164.727C110.061 164.592 109.858 164.461 109.652 164.334C109.446 164.207 109.238 164.085 109.027 163.966C108.816 163.848 108.603 163.733 108.388 163.623C108.173 163.513 107.956 163.407 107.737 163.305C107.517 163.204 107.296 163.106 107.073 163.013C106.85 162.92 106.625 162.832 106.398 162.748C106.171 162.664 105.943 162.584 105.713 162.509C105.483 162.434 105.252 162.364 105.02 162.298C104.787 162.232 104.553 162.17 104.318 162.114C104.083 162.057 103.847 162.005 103.61 161.957C103.373 161.91 103.135 161.867 102.896 161.829C102.658 161.791 102.418 161.758 102.178 161.729C101.938 161.701 101.698 161.677 101.457 161.658C101.216 161.638 100.975 161.624 100.733 161.615C100.491 161.605 100.25 161.6 100.008 161.6L99.9999 161.6Z" stroke="rgba(0, 0, 0, 1)" stroke-width="3"      fill="#000000" >
</path>
<path d="M101.275 38.4774C99.7559 38.3732 98.2362 38.3732 96.7167 38.4774C91.8327 38.8112 87.0121 40.6674 80.5955 44.7952C74.0675 48.988 66.3879 55.1919 55.6906 63.8461C41.9755 74.9511 36.4483 79.5591 33.2319 85.6652C32.7396 86.585 32.2948 87.5377 31.8819 88.4984C29.2134 94.8732 29.1023 102.176 29.1023 120.087L29.1023 131.453C29.1023 143.127 29.1182 151.318 29.9283 157.497C30.7224 163.514 32.1758 166.778 34.4549 169.115C36.7422 171.46 39.9267 172.949 45.7955 173.755C51.8311 174.586 59.8123 174.602 71.2005 174.602L126.791 174.602C138.18 174.602 146.161 174.586 152.189 173.755C158.065 172.949 161.242 171.46 163.529 169.115C165.816 166.778 167.262 163.514 168.056 157.497C168.866 151.31 168.882 143.127 168.882 131.453L168.882 120.087C168.882 102.176 168.779 94.8732 166.102 88.4984C165.694 87.5304 165.244 86.5833 164.752 85.657C161.536 79.5591 156.016 74.9511 142.301 63.8543C131.596 55.1919 123.917 48.988 117.397 44.7952C110.98 40.6674 106.159 38.8112 101.275 38.4774ZM95.9702 27.1039C97.9874 26.9654 100.005 26.9654 102.022 27.1039C109.423 27.6167 116.047 30.4662 123.305 35.1394C130.397 39.6987 138.545 46.2931 148.932 54.6952L149.187 54.9068L150.219 55.7373C162.568 65.735 170.089 71.8166 174.536 80.2267C175.187 81.4561 175.775 82.7179 176.315 83.9961C180 92.7889 180 102.616 180 118.736L180 131.876C180 143.03 180 151.985 179.079 159.011C178.126 166.298 176.085 172.363 171.391 177.175C166.698 181.986 160.773 184.079 153.674 185.056C146.812 186 138.084 186 127.197 186L70.7955 186C59.9156 186 51.1799 186 44.3262 185.056C37.2186 184.079 31.3021 181.986 26.6087 177.175C21.9072 172.371 19.8741 166.298 18.9212 159.019C18 151.985 18 143.03 18 131.876L18 120.087L18 118.736C18 102.616 18 92.7889 21.6769 83.9961C22.217 82.7181 22.8127 81.4561 23.4637 80.2267C27.9111 71.8166 35.4317 65.735 47.7809 55.7373L48.8133 54.9068L49.0673 54.6952C59.447 46.2931 67.595 39.6987 74.6868 35.1394C81.9455 30.4662 88.5686 27.6167 95.9702 27.1039Z" stroke="rgba(0, 0, 0, 1)" stroke-width="4"      fill="#000000" >
</path>
</svg>
