<svg xmlns="http://www.w3.org/2000/svg" xmlns:xlink="http://www.w3.org/1999/xlink" width="200" height="200" viewBox="0 0 200 200" fill="none">
<path d="M140 6.66052C140.145 6.66052 140.291 6.6641 140.436 6.67125C140.582 6.67838 140.727 6.68908 140.871 6.70333C141.016 6.71759 141.16 6.73539 141.304 6.75673C141.448 6.77809 141.592 6.80295 141.734 6.83132C141.877 6.85971 142.019 6.89157 142.16 6.92691C142.301 6.96226 142.441 7.00105 142.58 7.04328C142.719 7.0855 142.858 7.13112 142.995 7.18013C143.132 7.22914 143.267 7.28149 143.402 7.33716C143.536 7.39283 143.669 7.45176 143.801 7.51396C143.932 7.57616 144.062 7.64154 144.19 7.71011C144.319 7.77869 144.445 7.85038 144.57 7.92517C144.695 7.99995 144.818 8.07775 144.939 8.15857C145.06 8.23939 145.178 8.32313 145.295 8.4098C145.412 8.49645 145.527 8.58593 145.639 8.67822C145.752 8.7705 145.862 8.86548 145.969 8.96318C146.077 9.06087 146.183 9.16115 146.285 9.26402C146.388 9.36689 146.489 9.47222 146.586 9.58002C146.684 9.68781 146.779 9.79792 146.871 9.91037C146.964 10.0228 147.053 10.1375 147.14 10.2543C147.226 10.3712 147.31 10.4901 147.391 10.611C147.472 10.732 147.55 10.8548 147.624 10.9796C147.699 11.1044 147.771 11.2309 147.839 11.3592C147.908 11.4875 147.973 11.6174 148.035 11.7489C148.098 11.8804 148.157 12.0134 148.212 12.1478C148.268 12.2822 148.32 12.4179 148.369 12.5548C148.418 12.6918 148.464 12.8299 148.506 12.9691C148.548 13.1083 148.587 13.2485 148.623 13.3896C148.658 13.5307 148.69 13.6726 148.718 13.8153C148.746 13.958 148.771 14.1012 148.793 14.2452C148.814 14.389 148.832 14.5334 148.846 14.6782C148.86 14.8229 148.871 14.968 148.878 15.1133C148.885 15.2585 148.889 15.4039 148.889 15.5494L148.889 24.4384L150.258 24.4384C162.436 24.4384 168.591 25.536 174.996 28.6961C180.889 31.6072 185.569 35.9273 188.72 41.3629C192.142 47.274 193.334 52.9584 193.334 64.1984L193.334 144.678C193.334 155.923 192.147 161.598 188.72 167.51C185.565 172.949 180.889 177.27 174.996 180.181C168.596 183.341 162.44 184.438 150.258 184.438L49.7423 184.438C37.5646 184.438 31.4091 183.341 25.0046 180.181C19.1112 177.27 14.4312 172.949 11.2801 167.514C7.85786 161.598 6.66675 155.914 6.66675 144.674L6.66675 64.1984C6.66675 52.9539 7.85343 47.2783 11.2801 41.3672C14.4356 35.9273 19.1112 31.6072 25.0046 28.6961C31.4046 25.536 37.5601 24.4384 49.7423 24.4384L51.1113 24.4384L51.1113 15.5494C51.1113 15.4039 51.1148 15.2585 51.122 15.1133C51.1291 14.968 51.1398 14.8229 51.1541 14.6782C51.1683 14.5334 51.1861 14.389 51.2074 14.2452C51.2287 14.1012 51.2535 13.958 51.282 13.8153C51.3103 13.6726 51.3421 13.5307 51.3777 13.3896C51.4128 13.2485 51.4517 13.1083 51.4941 12.9691C51.5363 12.8299 51.5818 12.6918 51.6308 12.5548C51.6798 12.4179 51.7322 12.2822 51.7878 12.1478C51.8435 12.0134 51.9025 11.8804 51.9646 11.7489C52.0267 11.6174 52.0921 11.4875 52.1609 11.3592C52.2292 11.2309 52.3009 11.1044 52.3759 10.9796C52.4505 10.8548 52.5285 10.732 52.6093 10.611C52.6902 10.4901 52.7738 10.3712 52.8605 10.2543C52.9472 10.1375 53.0367 10.0228 53.1289 9.91037C53.221 9.79792 53.3162 9.68779 53.4138 9.58C53.5115 9.4722 53.6119 9.36689 53.7148 9.26402C53.8175 9.16115 53.923 9.06087 54.0308 8.96318C54.1384 8.86548 54.2486 8.7705 54.3611 8.67822C54.4736 8.58593 54.5882 8.49645 54.705 8.4098C54.8218 8.32313 54.9406 8.23939 55.0617 8.15857C55.1826 8.07775 55.3054 7.99995 55.4304 7.92517C55.555 7.85038 55.6816 7.77869 55.8099 7.71011C55.9382 7.64154 56.0681 7.57616 56.1996 7.51396C56.331 7.45176 56.464 7.39283 56.5986 7.33716C56.733 7.28149 56.8685 7.22914 57.0056 7.18013C57.1425 7.13112 57.2806 7.0855 57.4199 7.04328C57.5589 7.00105 57.6992 6.96226 57.8404 6.92691C57.9814 6.89157 58.1232 6.85971 58.266 6.83132C58.4085 6.80295 58.5519 6.77809 58.6959 6.75673C58.8396 6.73539 58.9839 6.71759 59.1289 6.70333C59.2736 6.68908 59.4187 6.67838 59.564 6.67125C59.7093 6.6641 59.8546 6.66052 60.0001 6.66052C60.1455 6.66052 60.291 6.6641 60.4363 6.67125C60.5816 6.67838 60.7265 6.68908 60.8714 6.70333C61.0162 6.71759 61.1605 6.73539 61.3044 6.75673C61.4482 6.77809 61.5916 6.80295 61.7343 6.83132C61.8769 6.85971 62.0187 6.89158 62.1599 6.92693C62.3009 6.96227 62.4412 7.00105 62.5804 7.04328C62.7195 7.08551 62.8576 7.13113 62.9947 7.18013C63.1316 7.22914 63.2673 7.28149 63.4017 7.33716C63.5361 7.39283 63.6689 7.45176 63.8005 7.51396C63.932 7.57616 64.0619 7.64154 64.1904 7.71011C64.3185 7.77869 64.4451 7.85038 64.5699 7.92517C64.6947 7.99995 64.8175 8.07775 64.9386 8.15857C65.0595 8.23939 65.1785 8.32313 65.2953 8.4098C65.4121 8.49645 65.5267 8.58593 65.6392 8.67822C65.7517 8.7705 65.8617 8.86548 65.9695 8.96318C66.0773 9.06087 66.1826 9.16115 66.2855 9.26402C66.3882 9.36689 66.4886 9.47222 66.5863 9.58002C66.6839 9.68781 66.7791 9.79792 66.8714 9.91037C66.9636 10.0228 67.0531 10.1375 67.1398 10.2543C67.2263 10.3712 67.3101 10.4901 67.391 10.611C67.4718 10.732 67.5496 10.8548 67.6244 10.9796C67.6992 11.1044 67.7709 11.2309 67.8394 11.3592C67.908 11.4875 67.9734 11.6174 68.0357 11.7489C68.0978 11.8804 68.1566 12.0134 68.2124 12.1478C68.2679 12.2822 68.3203 12.4179 68.3695 12.5548C68.4183 12.6918 68.464 12.8299 68.5062 12.9691C68.5484 13.1083 68.5873 13.2485 68.6226 13.3896C68.658 13.5307 68.6898 13.6726 68.7183 13.8153C68.7466 13.958 68.7714 14.1012 68.7927 14.2452C68.814 14.389 68.8318 14.5334 68.8462 14.6782C68.8603 14.8229 68.871 14.968 68.8783 15.1133C68.8853 15.2585 68.889 15.4039 68.889 15.5494L68.889 24.4384L131.111 24.4384L131.111 15.5494C131.111 15.4039 131.115 15.2585 131.122 15.1133C131.129 14.968 131.14 14.8229 131.154 14.6782C131.168 14.5334 131.186 14.389 131.207 14.2452C131.229 14.1012 131.253 13.958 131.282 13.8153C131.31 13.6726 131.342 13.5307 131.378 13.3896C131.413 13.2485 131.452 13.1083 131.494 12.9691C131.536 12.8299 131.582 12.6918 131.631 12.5548C131.68 12.4179 131.732 12.2822 131.788 12.1478C131.844 12.0134 131.902 11.8804 131.965 11.7489C132.027 11.6174 132.092 11.4875 132.161 11.3592C132.229 11.2309 132.301 11.1044 132.376 10.9796C132.451 10.8548 132.528 10.732 132.609 10.611C132.69 10.4901 132.774 10.3712 132.861 10.2543C132.947 10.1375 133.037 10.0228 133.129 9.91037C133.221 9.79792 133.316 9.68781 133.414 9.58002C133.511 9.47222 133.612 9.36689 133.715 9.26402C133.818 9.16115 133.923 9.06087 134.031 8.96318C134.138 8.86548 134.249 8.7705 134.361 8.67822C134.474 8.58593 134.588 8.49645 134.705 8.4098C134.822 8.32313 134.941 8.23939 135.062 8.15857C135.183 8.07775 135.305 7.99995 135.43 7.92517C135.555 7.85038 135.682 7.77869 135.81 7.71011C135.938 7.64154 136.068 7.57616 136.2 7.51396C136.331 7.45176 136.464 7.39283 136.599 7.33716C136.733 7.28149 136.868 7.22914 137.006 7.18013C137.143 7.13113 137.281 7.08551 137.42 7.04328C137.559 7.00105 137.699 6.96226 137.84 6.92691C137.981 6.89157 138.123 6.85971 138.266 6.83132C138.409 6.80295 138.552 6.77809 138.696 6.75673C138.84 6.73539 138.984 6.71759 139.129 6.70333C139.274 6.68908 139.419 6.67838 139.564 6.67125C139.709 6.6641 139.855 6.66052 140 6.66052ZM151.516 42.2162L49.7378 42.2162C40.2447 42.2162 36.8667 42.8072 33.3912 44.4828C30.5912 45.834 28.4535 47.7717 26.9556 50.2961C25.0979 53.434 24.4446 56.4828 24.4446 65.0605L24.4446 143.807C24.4446 152.385 25.0979 155.438 26.9556 158.576C27.0494 158.734 27.146 158.89 27.2457 159.044C27.3453 159.198 27.4476 159.35 27.5531 159.5C27.6583 159.65 27.7664 159.798 27.8773 159.945C27.988 160.091 28.1015 160.235 28.2179 160.377C28.3339 160.519 28.4529 160.658 28.5744 160.796C28.6959 160.933 28.8199 161.068 28.9464 161.201C29.073 161.334 29.2019 161.464 29.3333 161.592C29.4646 161.72 29.5984 161.845 29.7347 161.969C29.8707 162.092 30.0091 162.212 30.1498 162.33C30.2904 162.447 30.4332 162.562 30.5781 162.675C30.723 162.787 30.8699 162.897 31.0191 163.004C31.1681 163.111 31.3191 163.215 31.472 163.316C31.625 163.417 31.7798 163.516 31.9365 163.611C32.0931 163.707 32.2515 163.799 32.4117 163.889C32.5716 163.978 32.7333 164.065 32.8966 164.148C33.0599 164.232 33.2248 164.312 33.3912 164.389C36.8667 166.065 40.2447 166.656 49.7423 166.656L150.258 166.656C159.756 166.656 163.134 166.065 166.613 164.389C166.78 164.312 166.944 164.232 167.108 164.148C167.271 164.065 167.432 163.978 167.593 163.889C167.752 163.799 167.911 163.706 168.067 163.611C168.224 163.515 168.378 163.417 168.531 163.316C168.684 163.214 168.835 163.11 168.984 163.003C169.133 162.896 169.28 162.787 169.425 162.674C169.57 162.562 169.712 162.447 169.853 162.329C169.993 162.211 170.132 162.091 170.268 161.968C170.404 161.845 170.537 161.72 170.669 161.592C170.8 161.464 170.929 161.333 171.055 161.201C171.182 161.068 171.306 160.933 171.427 160.795C171.548 160.658 171.667 160.518 171.783 160.376C171.899 160.234 172.013 160.09 172.124 159.944C172.234 159.798 172.342 159.65 172.448 159.5C172.553 159.35 172.655 159.197 172.755 159.044C172.854 158.889 172.951 158.734 173.045 158.576C174.902 155.438 175.556 152.385 175.556 143.807L175.556 65.065C175.556 56.4873 174.902 53.434 173.045 50.2961C172.951 50.1385 172.854 49.9826 172.755 49.8287C172.655 49.6746 172.552 49.5224 172.447 49.3722C172.342 49.2219 172.234 49.0738 172.123 48.9277C172.012 48.7816 171.899 48.6375 171.782 48.4957C171.666 48.3537 171.547 48.214 171.426 48.0765C171.304 47.939 171.18 47.8041 171.054 47.6713C170.927 47.5385 170.798 47.408 170.667 47.2801C170.535 47.1519 170.402 47.0265 170.266 46.9037C170.129 46.7806 169.991 46.6603 169.851 46.5426C169.71 46.4248 169.567 46.3097 169.422 46.1972C169.277 46.0847 169.13 45.9752 168.981 45.8683C168.832 45.7613 168.681 45.6572 168.528 45.556C168.375 45.4547 168.22 45.3562 168.064 45.2609C167.907 45.1654 167.749 45.0728 167.589 44.9834C167.429 44.8939 167.267 44.8074 167.104 44.724C166.94 44.6404 166.775 44.5601 166.609 44.4828C163.294 42.8828 160.062 42.274 151.516 42.2162ZM136.969 71.0828C137.072 71.1734 137.174 71.2662 137.273 71.3615C137.372 71.4568 137.469 71.5543 137.564 71.6541C137.658 71.7539 137.75 71.8558 137.84 71.9599C137.93 72.0638 138.018 72.1699 138.102 72.2781C138.187 72.3861 138.27 72.4961 138.35 72.6082C138.43 72.7201 138.507 72.8338 138.581 72.9494C138.656 73.0648 138.728 73.182 138.797 73.3009C138.866 73.4197 138.932 73.5402 138.996 73.6621C139.06 73.784 139.12 73.9072 139.178 74.0322C139.236 74.1568 139.291 74.2828 139.343 74.4101C139.395 74.5375 139.444 74.6658 139.49 74.7955C139.536 74.925 139.579 75.0554 139.619 75.1871C139.659 75.3187 139.696 75.4511 139.73 75.5844C139.763 75.7176 139.794 75.8515 139.822 75.9863C139.849 76.1211 139.874 76.2562 139.895 76.3922C139.916 76.5279 139.935 76.6642 139.95 76.8009C139.964 76.9377 139.976 77.0746 139.985 77.2119C139.994 77.349 139.999 77.4865 140.002 77.624C140.004 77.7613 140.003 77.8988 139.999 78.0363C139.994 78.1736 139.987 78.3109 139.977 78.448C139.966 78.5851 139.953 78.7218 139.936 78.8584C139.919 78.9947 139.899 79.1308 139.876 79.2664C139.853 79.4019 139.826 79.5369 139.797 79.6713C139.768 79.8054 139.735 79.939 139.7 80.072C139.664 80.2049 139.625 80.3367 139.584 80.4678C139.542 80.5986 139.497 80.7287 139.449 80.8576C139.402 80.9865 139.351 81.1144 139.297 81.241C139.243 81.3676 139.187 81.4928 139.127 81.6168C139.068 81.7406 139.006 81.8633 138.94 81.9844C138.875 82.1054 138.807 82.2248 138.737 82.3428C138.666 82.4607 138.592 82.5769 138.516 82.6914C138.44 82.8058 138.361 82.9185 138.28 83.0295L137.8 83.6295L98.8712 128.074C98.7787 128.179 98.6835 128.283 98.5863 128.384C98.4888 128.485 98.389 128.584 98.2871 128.68C98.1849 128.777 98.0806 128.87 97.974 128.962C97.8673 129.053 97.7587 129.142 97.648 129.228C97.5373 129.315 97.4246 129.398 97.3097 129.479C97.1949 129.56 97.0785 129.638 96.9601 129.714C96.8416 129.789 96.7214 129.861 96.5996 129.931C96.4777 130.001 96.3542 130.068 96.2292 130.132C96.1042 130.195 95.9777 130.256 95.8498 130.314C95.7218 130.372 95.5927 130.427 95.4623 130.479C95.3316 130.53 95.2 130.579 95.0671 130.625C94.9343 130.67 94.8005 130.712 94.6658 130.752C94.5308 130.791 94.3951 130.827 94.2587 130.86C94.122 130.892 93.9849 130.922 93.847 130.948C93.7091 130.974 93.5707 130.997 93.4316 131.017C93.2925 131.036 93.1531 131.053 93.0134 131.066C92.8736 131.079 92.7335 131.089 92.5933 131.095C92.4531 131.102 92.3126 131.105 92.1724 131.105C92.0318 131.104 91.8916 131.101 91.7513 131.094C91.6111 131.087 91.471 131.077 91.3314 131.063C91.1916 131.05 91.0523 131.033 90.9134 131.013C90.7744 130.993 90.6359 130.97 90.4982 130.943C90.3603 130.916 90.223 130.886 90.0867 130.853C89.9503 130.82 89.8148 130.784 89.68 130.744C89.5453 130.704 89.4115 130.662 89.2789 130.616C89.1462 130.57 89.0148 130.521 88.8843 130.469C88.7539 130.417 88.625 130.361 88.4972 130.303C88.3695 130.245 88.2431 130.184 88.1183 130.119C87.9935 130.055 87.8703 129.988 87.7486 129.918C87.6269 129.848 87.507 129.775 87.3888 129.699C87.2705 129.623 87.1543 129.545 87.0398 129.463C86.9253 129.382 86.8128 129.298 86.7023 129.212L86.1378 128.727L62.8402 107.092C62.7367 106.995 62.6357 106.897 62.5371 106.795C62.4382 106.694 62.3419 106.591 62.2482 106.485C62.1544 106.379 62.0632 106.271 61.9748 106.161C61.8861 106.051 61.7999 105.939 61.7167 105.825C61.6335 105.711 61.5531 105.595 61.4753 105.477C61.3976 105.359 61.3226 105.239 61.2507 105.117C61.1785 104.996 61.1095 104.872 61.0435 104.748C60.9773 104.623 60.9142 104.496 60.8541 104.368C60.7939 104.24 60.7369 104.111 60.683 103.981C60.6289 103.85 60.5781 103.718 60.5304 103.585C60.4828 103.452 60.4382 103.318 60.397 103.183C60.3558 103.048 60.3179 102.911 60.2832 102.775C60.2482 102.637 60.2167 102.5 60.1886 102.361C60.1603 102.223 60.1355 102.084 60.114 101.944C60.0923 101.804 60.0742 101.664 60.0593 101.524C60.0443 101.383 60.0328 101.242 60.0246 101.101C60.0164 100.96 60.0117 100.819 60.0103 100.678C60.0087 100.536 60.0107 100.395 60.016 100.254C60.0212 100.113 60.0298 99.9717 60.0419 99.8308C60.0541 99.69 60.0695 99.5496 60.0882 99.4095C60.1068 99.2693 60.1289 99.1299 60.1542 98.9908C60.1796 98.8517 60.2084 98.7135 60.2404 98.5758C60.2722 98.4381 60.3074 98.3013 60.346 98.1654C60.3845 98.0295 60.4263 97.8945 60.4712 97.7605C60.5162 97.6263 60.5642 97.4935 60.6156 97.3619C60.6667 97.2302 60.7212 97.0998 60.7789 96.9707C60.8363 96.8416 60.8968 96.7138 60.9605 96.5877C61.024 96.4615 61.0906 96.3369 61.1601 96.2138C61.2296 96.0908 61.3019 95.9695 61.3773 95.85C61.4527 95.7304 61.5308 95.6127 61.6117 95.4968C61.6925 95.3808 61.7763 95.267 61.8626 95.1553C61.949 95.0433 62.038 94.9336 62.1296 94.826C62.2212 94.7183 62.3154 94.6131 62.4121 94.5099C62.5085 94.4068 62.6076 94.306 62.7091 94.2076C62.8105 94.1092 62.9142 94.0131 63.0203 93.9197C63.1261 93.8261 63.2343 93.7353 63.3447 93.647C63.455 93.5588 63.5675 93.473 63.682 93.3902C63.7964 93.3072 63.9126 93.2271 64.031 93.1498C64.1492 93.0722 64.2691 92.9976 64.391 92.9261C64.5128 92.8545 64.6363 92.7857 64.7613 92.7199C64.8863 92.6541 65.013 92.5914 65.1412 92.5316C65.2691 92.4718 65.3986 92.4152 65.5294 92.3617C65.6601 92.3082 65.7921 92.2578 65.9253 92.2105C66.0585 92.1633 66.1927 92.1191 66.3281 92.0783C66.4632 92.0373 66.5996 91.9998 66.7367 91.9654C66.8736 91.931 67.0115 91.8998 67.1501 91.872C67.2886 91.8443 67.4277 91.8197 67.5675 91.7986C67.7072 91.7775 67.8474 91.7597 67.988 91.7453C68.1285 91.7306 68.2693 91.7195 68.4105 91.7119C68.5515 91.7041 68.6927 91.6996 68.8341 91.6986C68.9755 91.6974 69.1167 91.6998 69.258 91.7056C69.3992 91.7113 69.5402 91.7205 69.681 91.733C69.8216 91.7453 69.9621 91.7611 70.1021 91.7803C70.2421 91.7994 70.3816 91.8219 70.5207 91.8476C70.6595 91.8734 70.7978 91.9025 70.9353 91.9349C71.0728 91.9674 71.2095 92.0029 71.3455 92.0418C71.4814 92.0806 71.6162 92.1228 71.7501 92.1681C71.8839 92.2135 72.0166 92.2621 72.1482 92.3136C72.2796 92.3652 72.4099 92.4201 72.539 92.4781C72.6679 92.5359 72.7953 92.5967 72.9214 92.6607C73.0472 92.7246 73.1716 92.7916 73.2947 92.8615C73.4173 92.9314 73.5384 93.0041 73.658 93.0799C73.7773 93.1554 73.8949 93.234 74.0105 93.3152C74.1259 93.3965 74.2396 93.4804 74.3513 93.5672L74.9378 94.065L91.5291 109.474L124.422 71.9183C124.518 71.8088 124.617 71.7017 124.718 71.597C124.819 71.4924 124.922 71.3902 125.028 71.2906C125.134 71.1908 125.243 71.0937 125.354 70.9996C125.465 70.9053 125.578 70.8138 125.693 70.7252C125.808 70.6363 125.926 70.5504 126.045 70.4676C126.165 70.3845 126.286 70.3045 126.41 70.2275C126.533 70.1506 126.659 70.0765 126.786 70.0058C126.913 69.9349 127.042 69.8672 127.172 69.8027C127.303 69.7383 127.435 69.6769 127.568 69.6189C127.702 69.5607 127.836 69.506 127.972 69.4547C128.109 69.4031 128.246 69.3551 128.385 69.3105C128.523 69.2658 128.662 69.2246 128.803 69.1869C128.944 69.149 129.085 69.1146 129.227 69.0838C129.369 69.0529 129.512 69.0256 129.656 69.0017C129.799 68.9777 129.943 68.9574 130.088 68.9408C130.232 68.924 130.377 68.9107 130.523 68.901C130.668 68.8912 130.813 68.8851 130.959 68.8828C131.104 68.8801 131.25 68.8812 131.395 68.8859C131.54 68.8904 131.686 68.8986 131.831 68.9103C131.976 68.922 132.12 68.9375 132.265 68.9562C132.409 68.975 132.553 68.9974 132.696 69.0234C132.839 69.0492 132.982 69.0787 133.124 69.1117C133.265 69.1445 133.406 69.181 133.546 69.2209C133.686 69.2607 133.825 69.3039 133.963 69.3506C134.101 69.397 134.237 69.447 134.373 69.5006C134.508 69.5539 134.642 69.6105 134.775 69.6705C134.907 69.7304 135.038 69.7935 135.168 69.8599C135.297 69.9263 135.425 69.9959 135.551 70.0685C135.677 70.1412 135.802 70.2168 135.924 70.2957C136.046 70.3744 136.167 70.456 136.285 70.5408C136.403 70.6256 136.52 70.7131 136.634 70.8035C136.748 70.8937 136.86 70.9869 136.969 71.0828Z"   fill="#000000" >
</path>
</svg>
